<svg width="20" height="21" viewBox="0 0 20 21" fill="none" xmlns="http://www.w3.org/2000/svg">
<path id="Icon" d="M10.9823 1.76376C10.631 1.4905 10.4553 1.35388 10.2613 1.30136C10.0902 1.25502 9.9098 1.25502 9.73865 1.30136C9.54468 1.35388 9.36902 1.4905 9.0177 1.76375L2.23539 7.03888C1.78202 7.3915 1.55534 7.56781 1.39203 7.78861C1.24737 7.9842 1.1396 8.20454 1.07403 8.43881C1 8.70327 1 8.99045 1 9.56481V16.7997C1 17.9198 1 18.4799 1.21799 18.9077C1.40973 19.284 1.71569 19.59 2.09202 19.7818C2.51984 19.9997 3.0799 19.9997 4.2 19.9997H6.2C6.48003 19.9997 6.62004 19.9997 6.727 19.9452C6.82108 19.8973 6.89757 19.8208 6.9455 19.7267C7 19.6198 7 19.4798 7 19.1997V12.5997C7 12.0397 7 11.7597 7.10899 11.5457C7.20487 11.3576 7.35785 11.2046 7.54601 11.1087C7.75992 10.9997 8.03995 10.9997 8.6 10.9997H11.4C11.9601 10.9997 12.2401 10.9997 12.454 11.1087C12.6422 11.2046 12.7951 11.3576 12.891 11.5457C13 11.7597 13 12.0397 13 12.5997V19.1997C13 19.4798 13 19.6198 13.0545 19.7267C13.1024 19.8208 13.1789 19.8973 13.273 19.9452C13.38 19.9997 13.52 19.9997 13.8 19.9997H15.8C16.9201 19.9997 17.4802 19.9997 17.908 19.7818C18.2843 19.59 18.5903 19.284 18.782 18.9077C19 18.4799 19 17.9198 19 16.7997V9.56481C19 8.99045 19 8.70327 18.926 8.43881C18.8604 8.20454 18.7526 7.9842 18.608 7.78861C18.4447 7.56781 18.218 7.3915 17.7646 7.03888L10.9823 1.76376Z" stroke="#A2A5AA" stroke-width="1.5" stroke-linecap="round" stroke-linejoin="round"/>
</svg>
