<svg width="24" height="24" viewBox="0 0 24 24" fill="none" xmlns="http://www.w3.org/2000/svg">
<g id="PuzzlePiece">
<path id="Vector" d="M6.00052 20.2495C5.90203 20.2495 5.8045 20.2301 5.7135 20.1924C5.62251 20.1548 5.53983 20.0995 5.47019 20.0299C5.40054 19.9602 5.3453 19.8775 5.30761 19.7865C5.26992 19.6955 5.25052 19.598 5.25052 19.4995L5.25057 15.4969C4.85047 15.6864 4.40894 15.7716 3.96705 15.7447C3.52516 15.7177 3.09727 15.5794 2.72318 15.3427C2.3491 15.1059 2.04096 14.7784 1.82744 14.3906C1.61392 14.0028 1.50195 13.5672 1.50195 13.1245C1.50195 12.6818 1.61392 12.2463 1.82744 11.8585C2.04096 11.4707 2.3491 11.1432 2.72318 10.9064C3.09727 10.6697 3.52516 10.5314 3.96705 10.5044C4.40894 10.4774 4.85047 10.5627 5.25057 10.7522L5.25052 6.74954C5.25052 6.65105 5.26992 6.55352 5.30761 6.46252C5.3453 6.37153 5.40055 6.28885 5.47019 6.2192C5.53984 6.14956 5.62252 6.09431 5.71351 6.05662C5.80451 6.01893 5.90204 5.99953 6.00053 5.99953L10.3781 5.99958C10.1886 5.59948 10.1034 5.15795 10.1304 4.71607C10.1574 4.27418 10.2956 3.84629 10.5324 3.4722C10.7691 3.09812 11.0967 2.78998 11.4845 2.57646C11.8723 2.36294 12.3078 2.25098 12.7505 2.25098C13.1932 2.25098 13.6287 2.36294 14.0165 2.57646C14.4044 2.78998 14.7319 3.09812 14.9686 3.4722C15.2054 3.84629 15.3437 4.27418 15.3706 4.71607C15.3976 5.15795 15.3124 5.59948 15.1229 5.99958L19.5005 5.99953C19.6994 5.99953 19.8902 6.07855 20.0308 6.2192C20.1715 6.35985 20.2505 6.55061 20.2505 6.74952L20.2505 10.7522C19.8504 10.5627 19.4089 10.4774 18.967 10.5044C18.5251 10.5314 18.0972 10.6697 17.7231 10.9064C17.3491 11.1432 17.0409 11.4707 16.8274 11.8585C16.6139 12.2463 16.5019 12.6818 16.5019 13.1245C16.5019 13.5672 16.6139 14.0028 16.8274 14.3906C17.0409 14.7784 17.3491 15.1059 17.7231 15.3427C18.0972 15.5794 18.5251 15.7177 18.967 15.7447C19.4089 15.7716 19.8504 15.6864 20.2505 15.4969L20.2505 19.4995C20.2505 19.6985 20.1715 19.8892 20.0308 20.0299C19.8902 20.1705 19.6994 20.2495 19.5005 20.2495L6.00052 20.2495Z" fill="#6F36E8" stroke="#6F36E8" stroke-width="1.5" stroke-linecap="round" stroke-linejoin="round"/>
</g>
</svg>
