<svg width="24" height="24" viewBox="0 0 24 24" fill="none" xmlns="http://www.w3.org/2000/svg">
<g id="PuzzlePiece">
<path id="Vector" d="M6.00052 20.25C5.90203 20.25 5.8045 20.2306 5.7135 20.1929C5.62251 20.1552 5.53983 20.1 5.47019 20.0303C5.40054 19.9607 5.3453 19.878 5.30761 19.787C5.26992 19.696 5.25052 19.5985 5.25052 19.5L5.25057 15.4974C4.85047 15.6869 4.40894 15.7721 3.96705 15.7451C3.52516 15.7182 3.09727 15.5799 2.72318 15.3431C2.3491 15.1064 2.04096 14.7789 1.82744 14.3911C1.61392 14.0032 1.50195 13.5677 1.50195 13.125C1.50195 12.6823 1.61392 12.2468 1.82744 11.859C2.04096 11.4712 2.3491 11.1436 2.72318 10.9069C3.09727 10.6702 3.52516 10.5319 3.96705 10.5049C4.40894 10.4779 4.85047 10.5632 5.25057 10.7527L5.25052 6.75003C5.25052 6.65154 5.26992 6.55401 5.30761 6.46301C5.3453 6.37202 5.40055 6.28934 5.47019 6.21969C5.53984 6.15005 5.62252 6.0948 5.71351 6.05711C5.80451 6.01942 5.90204 6.00002 6.00053 6.00002L10.3781 6.00007C10.1886 5.59997 10.1034 5.15844 10.1304 4.71656C10.1574 4.27467 10.2956 3.84678 10.5324 3.47269C10.7691 3.09861 11.0967 2.79047 11.4845 2.57695C11.8723 2.36343 12.3078 2.25146 12.7505 2.25146C13.1932 2.25146 13.6287 2.36343 14.0165 2.57695C14.4044 2.79047 14.7319 3.09861 14.9686 3.47269C15.2054 3.84678 15.3437 4.27467 15.3706 4.71656C15.3976 5.15844 15.3124 5.59997 15.1229 6.00007L19.5005 6.00002C19.6994 6.00002 19.8902 6.07904 20.0308 6.21969C20.1715 6.36034 20.2505 6.5511 20.2505 6.75001L20.2505 10.7527C19.8504 10.5632 19.4089 10.4779 18.967 10.5049C18.5251 10.5319 18.0972 10.6702 17.7231 10.9069C17.3491 11.1436 17.0409 11.4712 16.8274 11.859C16.6139 12.2468 16.5019 12.6823 16.5019 13.125C16.5019 13.5677 16.6139 14.0032 16.8274 14.3911C17.0409 14.7789 17.3491 15.1064 17.7231 15.3431C18.0972 15.5799 18.5251 15.7182 18.967 15.7451C19.4089 15.7721 19.8504 15.6869 20.2505 15.4974L20.2505 19.5C20.2505 19.6989 20.1715 19.8897 20.0308 20.0304C19.8902 20.171 19.6994 20.25 19.5005 20.25L6.00052 20.25Z" stroke="#A2A5AA" stroke-width="1.5" stroke-linecap="round" stroke-linejoin="round"/>
</g>
</svg>
