<svg width="320" height="52" viewBox="0 0 320 52" fill="none" xmlns="http://www.w3.org/2000/svg">
<rect x="0.5" y="0.5" width="319" height="51" rx="11.5" fill="white"/>
<rect x="0.5" y="0.5" width="319" height="51" rx="11.5" stroke="#ECEFF2"/>
<path d="M129.047 20.0469V21.3281C129.047 22.6562 129.047 24.1094 128.688 26.0938H130.562V27.7031H125.016V33.4531H123.016V27.7031H117.594V26.0938H126.672C127.031 24.2578 127.062 22.8672 127.062 21.6406H119.078V20.0469H129.047ZM142.891 19.7969V20.7656C142.891 21.6797 142.891 22.8203 142.625 24.25H144.438V25.8125H131.422V24.25H140.609C140.844 23.0938 140.891 22.1641 140.906 21.375H133.016V19.7969H142.891ZM142.828 26.8125V30.7969H134.891V31.7969H143.219V33.3281H132.906V29.2969H140.859V28.3594H132.891V26.8125H142.828ZM158.266 30.2188V31.8594H145.25V30.2188H150.734V28.0781H146.75V23.2969H154.797V21.7344H146.734V20.1406H156.766V24.8594H148.75V26.4531H157.094V28.0781H152.719V30.2188H158.266ZM175.781 30.2188V31.8594H162.766V30.2188H168.25V28.0781H164.266V23.2969H172.312V21.7344H164.25V20.1406H174.281V24.8594H166.266V26.4531H174.609V28.0781H170.234V30.2188H175.781ZM187.969 20.5312V22.2344C187.969 24.1875 187.969 26.125 187.453 29.0625L185.438 28.8906C185.969 26.1562 185.969 24.125 185.984 22.2344V22.125H177.938V20.5312H187.969ZM189.562 29.9375V31.5781H176.594V29.9375H189.562ZM202.328 19.2344V29.4531H200.328V19.2344H202.328ZM202.703 31.5938V33.1875H192.797V28.4219H194.812V31.5938H202.703ZM194.531 20.1406C196.719 20.1406 198.422 21.6406 198.422 23.7188C198.422 25.8438 196.719 27.3281 194.531 27.3281C192.344 27.3281 190.641 25.8438 190.641 23.7188C190.641 21.6406 192.344 20.1406 194.531 20.1406ZM194.531 21.875C193.422 21.8594 192.578 22.5625 192.594 23.7188C192.578 24.9062 193.422 25.5938 194.531 25.5938C195.609 25.5938 196.453 24.9062 196.453 23.7188C196.453 22.5625 195.609 21.8594 194.531 21.875Z" fill="#1E1E1E"/>
<path d="M41.8055 24.0415H41V24H32V28H37.6515C36.827 30.3285 34.6115 32 32 32C28.6865 32 26 29.3135 26 26C26 22.6865 28.6865 20 32 20C33.5295 20 34.921 20.577 35.9805 21.5195L38.809 18.691C37.023 17.0265 34.634 16 32 16C26.4775 16 22 20.4775 22 26C22 31.5225 26.4775 36 32 36C37.5225 36 42 31.5225 42 26C42 25.3295 41.931 24.675 41.8055 24.0415Z" fill="#FFC107"/>
<path d="M23.1523 21.3455L26.4378 23.755C27.3268 21.554 29.4798 20 31.9993 20C33.5288 20 34.9203 20.577 35.9798 21.5195L38.8083 18.691C37.0223 17.0265 34.6333 16 31.9993 16C28.1583 16 24.8273 18.1685 23.1523 21.3455Z" fill="#FF3D00"/>
<path d="M32.0002 36.0003C34.5832 36.0003 36.9302 35.0118 38.7047 33.4043L35.6097 30.7853C34.5719 31.5745 33.3039 32.0014 32.0002 32.0003C29.3992 32.0003 27.1907 30.3418 26.3587 28.0273L23.0977 30.5398C24.7527 33.7783 28.1137 36.0003 32.0002 36.0003Z" fill="#4CAF50"/>
<path d="M41.8055 24.0415H41V24H32V28H37.6515C37.2571 29.1082 36.5467 30.0766 35.608 30.7855L35.6095 30.7845L38.7045 33.4035C38.4855 33.6025 42 31 42 26C42 25.3295 41.931 24.675 41.8055 24.0415Z" fill="#1976D2"/>
</svg>
