<svg width="320" height="52" viewBox="0 0 320 52" fill="none" xmlns="http://www.w3.org/2000/svg">
<rect width="320" height="52" rx="12" fill="#FEE500"/>
<path d="M104.273 20.5781C104.258 24.9688 103.195 28.625 97.8828 31.2812L96.7891 29.7812C99.1641 28.6016 100.578 27.2812 101.383 25.7031L97.1797 26.0938L96.9297 24.3906L101.992 24.0781C102.133 23.4844 102.234 22.8438 102.289 22.1719H97.6797V20.5781H104.273ZM108.07 19.2188V24.6719H110.086V26.3125H108.07V33.4062H106.07V19.2188H108.07ZM118.102 20.5781C118.086 24.9688 117.023 28.625 111.711 31.2812L110.617 29.7812C112.992 28.6016 114.406 27.2812 115.211 25.7031L111.008 26.0938L110.758 24.3906L115.82 24.0781C115.961 23.4844 116.062 22.8438 116.117 22.1719H111.508V20.5781H118.102ZM121.898 19.2188V24.6719H123.914V26.3125H121.898V33.4062H119.898V19.2188H121.898ZM130.992 19.9531C134.055 19.9531 136.336 21.5 136.352 23.8438C136.336 25.9844 134.531 27.4297 131.977 27.7188V30.1406H137.523V31.7812H124.508V30.1406H129.992V27.7031C127.445 27.4297 125.648 25.9766 125.648 23.8438C125.648 21.5 127.93 19.9531 130.992 19.9531ZM130.992 21.5469C129.008 21.5469 127.617 22.4219 127.617 23.8438C127.617 25.3438 129.008 26.1875 130.992 26.1875C132.992 26.1875 134.367 25.3438 134.383 23.8438C134.367 22.4219 132.992 21.5469 130.992 21.5469ZM151.305 26.7656V28.3281H138.305V26.7656H143.805V25.7188H139.93V19.5312H149.789V21.0781H141.93V21.875H149.461V23.3438H141.93V24.2031H149.914V25.7188H145.805V26.7656H151.305ZM149.711 29.2031V33.4375H147.695V30.7656H139.773V29.2031H149.711ZM158.648 19.9375C161.648 19.9531 163.992 21.5625 164.008 24.0312C163.992 26.5156 161.648 28.1406 158.648 28.125C155.633 28.1406 153.305 26.5156 153.305 24.0312C153.305 21.5625 155.633 19.9531 158.648 19.9375ZM158.648 21.5625C156.68 21.5469 155.242 22.5 155.242 24.0312C155.242 25.5781 156.68 26.5 158.648 26.5C160.617 26.5 162.023 25.5781 162.039 24.0312C162.023 22.5 160.617 21.5469 158.648 21.5625ZM165.18 30.0938V31.7031H152.164V30.0938H165.18ZM179.008 30.2188V31.8594H165.992V30.2188H171.477V28.0781H167.492V23.2969H175.539V21.7344H167.477V20.1406H177.508V24.8594H169.492V26.4531H177.836V28.0781H173.461V30.2188H179.008ZM196.523 30.2188V31.8594H183.508V30.2188H188.992V28.0781H185.008V23.2969H193.055V21.7344H184.992V20.1406H195.023V24.8594H187.008V26.4531H195.352V28.0781H190.977V30.2188H196.523ZM208.711 20.5312V22.2344C208.711 24.1875 208.711 26.125 208.195 29.0625L206.18 28.8906C206.711 26.1562 206.711 24.125 206.727 22.2344V22.125H198.68V20.5312H208.711ZM210.305 29.9375V31.5781H197.336V29.9375H210.305ZM223.07 19.2344V29.4531H221.07V19.2344H223.07ZM223.445 31.5938V33.1875H213.539V28.4219H215.555V31.5938H223.445ZM215.273 20.1406C217.461 20.1406 219.164 21.6406 219.164 23.7188C219.164 25.8438 217.461 27.3281 215.273 27.3281C213.086 27.3281 211.383 25.8438 211.383 23.7188C211.383 21.6406 213.086 20.1406 215.273 20.1406ZM215.273 21.875C214.164 21.8594 213.32 22.5625 213.336 23.7188C213.32 24.9062 214.164 25.5938 215.273 25.5938C216.352 25.5938 217.195 24.9062 217.195 23.7188C217.195 22.5625 216.352 21.8594 215.273 21.875Z" fill="#3C1E1E"/>
<path d="M32 17.875C33.6611 17.875 35.1975 18.1845 36.6091 18.8036C38.0208 19.4226 39.1367 20.2644 39.957 21.3288C40.7773 22.3933 41.1875 23.5544 41.1875 24.8121C41.1875 26.0699 40.7773 27.2326 39.957 28.3004C39.1367 29.3681 38.0225 30.2115 36.6143 30.8306C35.2061 31.4496 33.668 31.7591 32 31.7591C31.4736 31.7591 30.9302 31.7231 30.3696 31.651C27.936 33.269 26.6406 34.0879 26.4834 34.1075C26.4082 34.1337 26.3364 34.1305 26.2681 34.0977C26.2407 34.0781 26.2202 34.0519 26.2065 34.0191C26.1929 33.9863 26.186 33.9569 26.186 33.9307V33.8914C26.2271 33.6359 26.5381 32.5714 27.1191 30.6979C25.7998 30.0691 24.7522 29.2355 23.9763 28.1972C23.2004 27.1589 22.8125 26.0306 22.8125 24.8121C22.8125 23.5544 23.2227 22.3933 24.043 21.3288C24.8633 20.2644 25.9792 19.4226 27.3909 18.8036C28.8025 18.1845 30.3389 17.875 32 17.875Z" fill="#3C1E1E"/>
</svg>
