<svg width="320" height="52" viewBox="0 0 320 52" fill="none" xmlns="http://www.w3.org/2000/svg">
<rect width="320" height="52" rx="12" fill="url(#paint0_linear_4060_22949)"/>
<path d="M152.438 29.7188V31.3594H139.422V29.7188H144.906V27.5781H140.922V22.7969H148.969V21.2344H140.906V19.6406H150.938V24.3594H142.922V25.9531H151.266V27.5781H146.891V29.7188H152.438ZM164.625 20.0312V21.7344C164.625 23.6875 164.625 25.625 164.109 28.5625L162.094 28.3906C162.625 25.6562 162.625 23.625 162.641 21.7344V21.625H154.594V20.0312H164.625ZM166.219 29.4375V31.0781H153.25V29.4375H166.219ZM178.984 18.7344V28.9531H176.984V18.7344H178.984ZM179.359 31.0938V32.6875H169.453V27.9219H171.469V31.0938H179.359ZM171.188 19.6406C173.375 19.6406 175.078 21.1406 175.078 23.2188C175.078 25.3438 173.375 26.8281 171.188 26.8281C169 26.8281 167.297 25.3438 167.297 23.2188C167.297 21.1406 169 19.6406 171.188 19.6406ZM171.188 21.375C170.078 21.3594 169.234 22.0625 169.25 23.2188C169.234 24.4062 170.078 25.0938 171.188 25.0938C172.266 25.0938 173.109 24.4062 173.109 23.2188C173.109 22.0625 172.266 21.3594 171.188 21.375Z" fill="white"/>
<defs>
<linearGradient id="paint0_linear_4060_22949" x1="160" y1="-19.0357" x2="176.459" y2="76.1181" gradientUnits="userSpaceOnUse">
<stop stop-color="#713CE2"/>
<stop offset="1" stop-color="#5200FF"/>
</linearGradient>
</defs>
</svg>
