<svg width="320" height="52" viewBox="0 0 320 52" fill="none" xmlns="http://www.w3.org/2000/svg">
<rect width="320" height="52" rx="12" fill="#5AC451"/>
<path d="M113.227 20.5781V28.3281C114.531 28.3047 115.734 28.2109 117.07 27.9219L117.336 29.5938C115.586 29.9688 114.055 30.0312 112.227 30.0312H111.227V20.5781H113.227ZM123.008 19.2188V33.4375H121.133V19.2188H123.008ZM119.961 19.4844V32.8125H118.07V25.3281H115.227V23.7188H118.07V19.4844H119.961ZM136.414 19.2188V33.4688H134.398V19.2188H136.414ZM128.695 20.2188C130.836 20.2188 132.43 22.1875 132.43 25.2812C132.43 28.4062 130.836 30.3594 128.695 30.3594C126.508 30.3594 124.914 28.4062 124.93 25.2812C124.914 22.1875 126.508 20.2188 128.695 20.2188ZM128.695 22.0156C127.586 22.0156 126.852 23.1719 126.852 25.2812C126.852 27.4062 127.586 28.5469 128.695 28.5469C129.773 28.5469 130.508 27.4062 130.508 25.2812C130.508 23.1719 129.773 22.0156 128.695 22.0156ZM150.336 19.2188V33.4688H148.367V25.8438H145.727V30.0938H138.867V20.3125H140.852V23.7656H143.773V20.3125H145.727V24.2344H148.367V19.2188H150.336ZM140.852 28.5H143.773V25.3281H140.852V28.5ZM165.18 30.2188V31.8594H152.164V30.2188H157.648V28.0781H153.664V23.2969H161.711V21.7344H153.648V20.1406H163.68V24.8594H155.664V26.4531H164.008V28.0781H159.633V30.2188H165.18ZM182.695 30.2188V31.8594H169.68V30.2188H175.164V28.0781H171.18V23.2969H179.227V21.7344H171.164V20.1406H181.195V24.8594H173.18V26.4531H181.523V28.0781H177.148V30.2188H182.695ZM194.883 20.5312V22.2344C194.883 24.1875 194.883 26.125 194.367 29.0625L192.352 28.8906C192.883 26.1562 192.883 24.125 192.898 22.2344V22.125H184.852V20.5312H194.883ZM196.477 29.9375V31.5781H183.508V29.9375H196.477ZM209.242 19.2344V29.4531H207.242V19.2344H209.242ZM209.617 31.5938V33.1875H199.711V28.4219H201.727V31.5938H209.617ZM201.445 20.1406C203.633 20.1406 205.336 21.6406 205.336 23.7188C205.336 25.8438 203.633 27.3281 201.445 27.3281C199.258 27.3281 197.555 25.8438 197.555 23.7188C197.555 21.6406 199.258 20.1406 201.445 20.1406ZM201.445 21.875C200.336 21.8594 199.492 22.5625 199.508 23.7188C199.492 24.9062 200.336 25.5938 201.445 25.5938C202.523 25.5938 203.367 24.9062 203.367 23.7188C203.367 22.5625 202.523 21.8594 201.445 21.875Z" fill="white"/>
<path d="M22 34.5V17.5H28.5778L35.0667 25.6699V17.5H42V34.5H35.0667L28.5778 26.165V34.5H22Z" fill="white"/>
</svg>
