<svg width="242" height="33" viewBox="0 0 242 33" fill="none" xmlns="http://www.w3.org/2000/svg">
<g clip-path="url(#clip0_807_80587)">
<path d="M22.1684 17.8763C21.3322 20.1889 20.5015 22.5043 19.6571 24.8143C18.9909 26.6414 17.6064 27.5268 15.4076 27.5536C13.3734 27.5777 12.2137 26.7943 11.5201 24.8787C10.5934 22.3138 9.68595 19.7409 8.49336 17.2136C8.49336 21.136 8.49336 25.0585 8.49336 28.9809C8.49336 31.4653 7.88199 32.1441 5.35973 32.4633C4.93204 32.517 4.49887 32.5572 4.06844 32.5653C0.729184 32.6297 0.0903937 32.018 0.0794274 28.7904C0.0547531 20.755 0.0273372 12.7197 -7.86979e-05 4.68431C-0.0110451 1.80017 0.729184 0.799435 3.26515 0.26285C6.22881 -0.364955 8.4961 0.544557 9.49404 2.88944C11.3994 7.36992 13.2391 11.8772 15.1116 16.3872C15.6599 16.288 15.627 15.7916 15.7805 15.4455C17.5735 11.3863 19.3555 7.32163 21.1403 3.25968C22.5934 -0.0510528 27.8901 -1.11617 30.5878 1.36017C31.3034 2.01748 31.5912 2.81968 31.5748 3.76944C31.4405 12.438 31.3198 21.1065 31.1855 29.775C31.1636 31.1594 30.4754 32.0716 29.0443 32.348C28.4631 32.4607 27.8764 32.568 27.2869 32.5921C23.2321 32.7585 22.47 32.0394 22.47 28.0955C22.47 24.7124 22.47 21.3292 22.47 17.946L22.1684 17.8789V17.8763Z" fill="url(#paint0_linear_807_80587)"/>
<path d="M126.925 12.9044C128.545 12.9044 130.168 12.8642 131.788 12.9125C134.294 12.9903 135.698 14.3532 135.709 16.7866C135.72 18.8417 135.791 20.8995 135.36 22.9466C134.384 27.5988 131.709 30.711 127.015 32.0981C123.747 33.0639 120.422 33.2759 117.096 32.573C113.129 31.7359 110.116 29.5573 108.348 25.93C106.209 21.5461 105.628 16.9127 106.653 12.1908C108.312 4.5471 114.047 0.16051 122.058 0.203437C125.392 0.222218 128.597 0.860754 131.525 2.48661C134.11 3.92197 134.7 5.66319 133.323 7.64051C131.736 9.92368 128.238 10.9566 126.604 9.36027C125.71 8.48563 124.539 8.03758 123.284 7.87393C119.262 7.34807 116.926 8.98466 116.145 12.9608C115.577 15.8449 115.517 18.7505 116.507 21.5676C117.729 25.0447 121.54 26.2788 124.696 24.2881C125.2 23.9688 125.642 23.5717 125.921 23.0459C126.324 22.2839 126.741 21.3717 126.349 20.6393C126.012 20.0088 125.063 20.4622 124.386 20.4327C123.903 20.4112 123.415 20.4649 122.927 20.489C121.458 20.5669 120.049 20.4381 119.336 18.9356C118.585 17.3554 118.585 15.7483 119.552 14.2325C120.082 13.4008 120.91 13.0654 121.902 13.0708C123.676 12.9527 125.252 12.9071 126.927 12.9071C126.927 12.8534 126.927 12.9608 126.927 12.9071L126.925 12.9044Z" fill="url(#paint1_linear_807_80587)"/>
<path d="M64.304 16.3008C64.3177 18.4042 64.1066 20.3869 63.6706 22.3615C61.9325 30.244 55.9668 33.3615 48.5042 32.774C41.2582 32.2025 36.7071 27.7435 35.4597 20.4379C34.8428 16.8401 35.0786 13.261 36.1095 9.76519C37.6612 4.50665 41.1512 1.22275 46.766 0.455432C54.8235 -0.644567 60.9866 1.91494 63.5007 9.81885C64.1778 11.9491 64.3999 14.1598 64.304 16.3008ZM45.1923 16.4806C45.1786 18.6081 45.3239 20.7196 46.2341 22.6862C46.925 24.1832 48.0299 25.1571 49.8558 25.0981C51.6707 25.0391 52.7811 24.0437 53.2965 22.4742C54.5987 18.5035 54.6481 14.4737 53.4144 10.4842C52.8304 8.59543 51.6406 7.8147 49.8832 7.78519C48.0271 7.75299 46.8318 8.56055 46.0888 10.401C45.2993 12.3542 45.2088 14.4147 45.1923 16.4806Z" fill="url(#paint2_linear_807_80587)"/>
<path d="M188.218 16.4588C188.218 12.3324 188.21 8.20878 188.221 4.08244C188.226 1.71342 189.213 0.490003 191.648 0.345125C196.076 0.0821983 200.512 0.125125 204.835 1.28415C209.726 2.5961 212.84 5.65464 213.986 10.5376C214.779 13.9207 215.026 17.3361 214.332 20.7541C213.06 27.0402 208.742 30.3966 202.719 31.9527C199.47 32.7924 196.128 33.0715 192.764 32.9346C189.362 32.7951 188.221 31.6388 188.218 28.3576C188.216 24.3922 188.218 20.4241 188.218 16.4588ZM197.976 16.4507C197.954 16.4507 197.998 16.4507 197.976 16.4507C197.976 18.9298 197.989 21.4088 197.877 23.8824C197.819 25.1381 198.337 25.2507 199.352 25.0522C201.943 24.5398 203.752 23.1715 204.47 20.6173C205.186 18.0739 205.046 15.4795 204.668 12.9254C204.161 9.51805 202.697 8.31878 199.185 7.74464C198.017 7.55415 197.948 7.96732 197.962 8.86073" fill="url(#paint3_linear_807_80587)"/>
<path d="M139.588 12.9136C139.588 9.73968 139.572 6.56846 139.593 3.39456C139.607 1.40919 140.293 0.687485 142.253 0.23407C143.881 -0.144223 145.482 0.011387 147.075 0.319924C148.737 0.641875 149.34 1.51651 149.332 3.45895C149.307 9.38017 149.233 15.3041 149.236 21.2253C149.236 24.485 151.582 26.1377 154.798 25.2443C156.561 24.756 157.373 23.5755 157.408 21.3541C157.502 15.5375 157.573 9.7209 157.663 3.907C157.707 1.06309 158.527 0.293094 161.474 0.285045C162.765 0.282363 164.07 0.183094 165.318 0.641875C166.584 1.1087 167.451 1.90822 167.415 3.3248C167.251 9.87919 167.242 16.4416 166.834 22.9799C166.494 28.4155 163.621 31.3533 158.129 32.5016C154.431 33.2743 150.719 33.1482 147.078 32.118C142.261 30.755 139.673 27.3933 139.536 22.2716C139.454 19.1541 139.519 16.0311 139.519 12.9136H139.585H139.588Z" fill="url(#paint4_linear_807_80587)"/>
<path d="M218.653 16.1586C218.653 12.1932 218.636 8.23051 218.658 4.26514C218.672 1.95782 219.79 0.645873 222.159 0.594898C227.881 0.474166 233.608 0.511727 239.332 0.490263C240.618 0.484898 241.345 1.2227 241.602 2.3549C241.849 3.4388 241.857 4.56026 241.564 5.65221C241.205 6.98831 240.366 7.69392 238.883 7.67782C235.804 7.64295 232.725 7.70197 229.646 7.64831C228.709 7.63221 228.352 7.80124 228.341 8.83417C228.298 12.5849 228.251 12.5849 232.021 12.5849C234.074 12.5849 236.125 12.5715 238.178 12.5903C240.018 12.609 240.676 13.2529 240.774 15.072C240.777 15.1256 240.774 15.1766 240.777 15.2303C240.939 19.2278 240.555 19.6249 236.522 19.6249C234.2 19.6249 231.875 19.6544 229.556 19.6088C228.714 19.5927 228.265 19.7215 228.33 20.6981C228.432 22.2193 227.823 24.2073 228.596 25.1464C229.411 26.1337 231.519 25.3717 233.06 25.4093C235.056 25.4576 237.057 25.3771 239.056 25.3986C241.153 25.42 241.838 26.0827 241.973 28.1512C242.008 28.6771 242.019 29.211 241.978 29.7342C241.797 32.0656 241.142 32.6478 238.724 32.6505C234.025 32.6559 229.326 32.6586 224.627 32.6451C223.821 32.6451 222.998 32.6264 222.211 32.4788C219.651 32.0012 218.696 30.9146 218.675 28.3712C218.636 24.3012 218.664 20.2312 218.664 16.1612H218.655L218.653 16.1586Z" fill="url(#paint5_linear_807_80587)"/>
<path d="M80.8494 0.941925C81.5513 0.941925 82.2586 0.874852 82.9522 0.95534C84.822 1.16729 86.1297 1.84339 86.8343 3.87168C89.639 11.9553 92.6602 19.9666 95.5992 28.0073C96.3285 30.0007 95.9254 30.8673 93.8994 31.7017C92.6986 32.198 91.4292 32.4583 90.1462 32.5924C87.7391 32.8446 86.7274 32.1014 85.968 29.8478C85.4992 28.4607 85.5951 26.5156 84.4437 25.8288C83.3909 25.201 81.6253 25.7 80.1723 25.7268C77.5933 25.7751 75.9027 26.9708 75.1003 29.3139C74.2011 31.9378 73.4005 32.4958 70.5959 32.3349C69.7433 32.2866 68.8769 32.1605 68.0544 31.9378C65.4938 31.2483 64.8934 30.0222 65.8584 27.5673C68.9126 19.7975 72.0846 12.068 74.9632 4.23388C75.8844 1.72534 77.406 0.837291 79.8762 0.89095C80.1997 0.898998 80.5232 0.89095 80.8467 0.89095C80.8467 0.907047 80.8467 0.923145 80.8467 0.939242L80.8494 0.941925ZM80.7535 12.6127C80.3669 13.7744 80.1065 14.5685 79.8378 15.3627C79.1542 17.382 79.9164 18.2933 82.1243 18.0966C82.212 18.0885 82.2888 17.9812 82.3738 17.9168C81.8721 16.2722 81.3703 14.6302 80.7535 12.6127Z" fill="url(#paint6_linear_807_80587)"/>
<path d="M172.588 16.6214C172.588 12.3904 172.695 8.15943 172.712 3.92846C172.72 1.54333 173.553 0.639187 175.952 0.158943C177.43 -0.136179 178.869 0.102602 180.273 0.44065C181.866 0.824309 182.71 1.90285 182.683 3.56626C182.546 12.2911 182.414 21.0133 182.277 29.7382C182.255 31.2111 181.521 32.0804 180.007 32.3594C178.285 32.676 176.583 32.7002 174.861 32.3782C173.279 32.0858 172.564 31.2138 172.577 29.6282C172.613 25.2926 172.588 20.9543 172.588 16.6187C172.547 16.6187 172.63 16.6187 172.588 16.6187V16.6214Z" fill="url(#paint7_linear_807_80587)"/>
</g>
<defs>
<linearGradient id="paint0_linear_807_80587" x1="15.7876" y1="3.40842" x2="15.7876" y2="32.6139" gradientUnits="userSpaceOnUse">
<stop stop-color="#713CE2"/>
<stop offset="1" stop-color="#5200FF"/>
</linearGradient>
<linearGradient id="paint1_linear_807_80587" x1="120.94" y1="3.62937" x2="120.94" y2="32.9876" gradientUnits="userSpaceOnUse">
<stop stop-color="#713CE2"/>
<stop offset="1" stop-color="#5200FF"/>
</linearGradient>
<linearGradient id="paint2_linear_807_80587" x1="49.7237" y1="3.62304" x2="49.7237" y2="32.8433" gradientUnits="userSpaceOnUse">
<stop stop-color="#713CE2"/>
<stop offset="1" stop-color="#5200FF"/>
</linearGradient>
<linearGradient id="paint3_linear_807_80587" x1="201.477" y1="3.63605" x2="201.477" y2="32.9678" gradientUnits="userSpaceOnUse">
<stop stop-color="#713CE2"/>
<stop offset="1" stop-color="#5200FF"/>
</linearGradient>
<linearGradient id="paint4_linear_807_80587" x1="153.455" y1="3.4592" x2="153.455" y2="32.9994" gradientUnits="userSpaceOnUse">
<stop stop-color="#713CE2"/>
<stop offset="1" stop-color="#5200FF"/>
</linearGradient>
<linearGradient id="paint5_linear_807_80587" x1="230.326" y1="3.85171" x2="230.326" y2="32.6549" gradientUnits="userSpaceOnUse">
<stop stop-color="#713CE2"/>
<stop offset="1" stop-color="#5200FF"/>
</linearGradient>
<linearGradient id="paint6_linear_807_80587" x1="80.6799" y1="4.20688" x2="80.6799" y2="32.6393" gradientUnits="userSpaceOnUse">
<stop stop-color="#713CE2"/>
<stop offset="1" stop-color="#5200FF"/>
</linearGradient>
<linearGradient id="paint7_linear_807_80587" x1="177.63" y1="3.4306" x2="177.63" y2="32.6085" gradientUnits="userSpaceOnUse">
<stop stop-color="#713CE2"/>
<stop offset="1" stop-color="#5200FF"/>
</linearGradient>
<clipPath id="clip0_807_80587">
<rect width="242" height="33" fill="white"/>
</clipPath>
</defs>
</svg>
