<svg width="20" height="20" viewBox="0 0 20 20" fill="none" xmlns="http://www.w3.org/2000/svg">
<g id="MegaphoneSimple">
<path id="Vector" d="M2.5 3.9585V14.7918C2.5 14.8889 2.52259 14.9846 2.56598 15.0713C2.60938 15.1581 2.67238 15.2336 2.75 15.2918C2.82762 15.35 2.91773 15.3894 3.0132 15.4067C3.10866 15.4241 3.20685 15.419 3.3 15.3918L17.05 11.3814C17.1798 11.3435 17.2939 11.2646 17.375 11.1564C17.4561 11.0482 17.5 10.9166 17.5 10.7814V7.96891C17.5 7.83368 17.4561 7.7021 17.375 7.59391C17.2939 7.48573 17.1798 7.40678 17.05 7.36891L3.3 3.3585C3.20685 3.33133 3.10866 3.32622 3.0132 3.34358C2.91773 3.36093 2.82762 3.40028 2.75 3.4585C2.67238 3.51671 2.60938 3.5922 2.56598 3.67899C2.52259 3.76577 2.5 3.86147 2.5 3.9585V3.9585Z" stroke="#A2A5AA" stroke-width="1.5" stroke-linecap="round" stroke-linejoin="round"/>
<path id="Vector_2" d="M14.375 12.1615V15.0002C14.375 15.166 14.3092 15.3249 14.1919 15.4421C14.0747 15.5593 13.9158 15.6252 13.75 15.6252H11.25C11.0842 15.6252 10.9253 15.5593 10.8081 15.4421C10.6908 15.3249 10.625 15.166 10.625 15.0002V5.49512" stroke="#A2A5AA" stroke-width="1.5" stroke-linecap="round" stroke-linejoin="round"/>
</g>
</svg>
