<svg width="20" height="20" viewBox="0 0 20 20" fill="none" xmlns="http://www.w3.org/2000/svg">
<g id="Frame 1000004353">
<path id="Vector" d="M10 3.22949C11.3843 3.22949 12.6646 3.48742 13.8409 4.00329C15.0173 4.51915 15.9473 5.22062 16.6309 6.10769C17.3145 6.99476 17.6562 7.96234 17.6562 9.01045C17.6562 10.0586 17.3145 11.0275 16.6309 11.9173C15.9473 12.8071 15.0187 13.5099 13.8452 14.0258C12.6717 14.5417 11.39 14.7996 10 14.7996C9.56136 14.7996 9.10848 14.7696 8.64136 14.7095C6.61336 16.0579 5.53385 16.7402 5.40283 16.7566C5.34017 16.7784 5.28035 16.7757 5.22339 16.7484C5.2006 16.732 5.18351 16.7102 5.17212 16.6829C5.16073 16.6556 5.15503 16.631 5.15503 16.6092V16.5765C5.18921 16.3636 5.4484 15.4765 5.93262 13.9153C4.83317 13.3912 3.96016 12.6966 3.3136 11.8313C2.66703 10.9661 2.34375 10.0258 2.34375 9.01045C2.34375 7.96234 2.68555 6.99476 3.36914 6.10769C4.05273 5.22062 4.98271 4.51915 6.15906 4.00329C7.33541 3.48742 8.61572 3.22949 10 3.22949Z" fill="#3C1E1E"/>
</g>
</svg>
