<svg width="134" height="73" viewBox="0 0 134 73" fill="none" xmlns="http://www.w3.org/2000/svg">
<path d="M124.607 34.4259C124.58 36.9596 124.181 39.4301 123.563 41.8795C123.381 42.5989 123.192 42.793 122.409 42.4364C115.415 39.2487 108.388 36.139 101.394 32.9533C98.7444 31.7466 96.5461 33.0672 95.5081 34.8964C94.8816 36.0039 95.0081 37.1516 95.3689 38.3183C97.2929 44.5461 99.2022 50.7803 101.118 57.0102C101.571 58.4849 102.008 59.9659 102.489 61.4321C102.668 61.9743 102.664 62.1937 101.985 62.3309C93.4427 64.0566 85.5883 62.468 78.6073 57.2507C71.9048 52.2402 68.1559 45.4617 67.2276 37.1242C65.6243 22.7318 75.3584 9.33737 89.5356 6.19181C106.295 2.47241 122.481 14.0357 124.35 31.0884C124.472 32.1981 124.523 33.3141 124.605 34.428L124.607 34.4259Z" fill="#6B30E9"/>
<path d="M10.2721 23.1183C10.2721 23.4558 10.2721 23.7913 10.2721 24.1288C10.2721 37.0739 10.2721 50.019 10.2721 62.9663C10.2721 65.6076 8.94936 67.6962 6.72574 68.2806C3.09495 69.2342 0.0675318 67.2722 0.0506542 63.4536C-0.0337337 45.6013 0.0147894 27.7512 0.00635059 9.90103C0.00635059 7.42214 1.42618 6.01919 3.54009 5.17742C6.25949 4.09304 8.95147 4.35886 11.5759 5.55295C12.6139 6.02552 13.2468 6.88417 13.7574 7.87994C18.4303 16.9854 23.1181 26.0824 27.8016 35.1837C27.9282 35.4305 28.0632 35.6731 28.2679 36.0571C28.521 35.5845 28.7299 35.2026 28.9303 34.8166C33.4936 26.0402 38.0547 17.2639 42.6159 8.48543C44.3796 5.08881 47.0294 3.79979 50.8163 4.56139C52.7319 4.94535 54.4872 5.68164 55.8395 7.18374C56.5399 7.96222 56.8775 8.85462 56.8754 9.8926C56.8711 12.0339 56.8754 14.1774 56.8754 16.3187C56.8754 31.8714 56.8669 47.4241 56.888 62.9789C56.888 64.4473 56.4724 65.73 55.5695 66.8523C54.3079 68.4177 51.926 68.9367 49.6876 68.1772C47.848 67.5527 46.4471 65.5633 46.4324 63.4093C46.4091 59.7764 46.4218 56.1456 46.4577 52.5127C46.5526 42.8587 46.6708 33.2048 46.7783 23.5508C46.7805 23.344 46.7783 23.1373 46.6349 22.8693C46.4788 23.1436 46.3121 23.4158 46.1644 23.6963C41.6919 32.2744 37.2235 40.8566 32.7425 49.4325C32.0316 50.7933 31.2552 52.1034 29.5189 52.3798C26.8248 52.8081 25.1877 52.0359 23.943 49.5992C19.5738 41.0381 15.2257 32.4643 10.8692 23.8947C10.7321 23.6246 10.5865 23.3609 10.443 23.093C10.3861 23.1035 10.3291 23.1141 10.2721 23.1225V23.1183Z" fill="#6B30E9"/>
<path d="M130.052 35.1555C130.073 37.704 129.561 41.0331 128.601 44.3011C128.415 44.9298 128.189 45.1049 127.584 44.7715C126.831 44.3559 125.7 44.1914 125.369 43.5753C125.078 43.0374 125.696 42.0289 125.865 41.2188C127.905 31.415 125.997 22.4657 119.622 14.7147C112.567 6.13663 103.266 2.3434 92.2972 3.63453C80.3563 5.03959 71.7192 11.5691 67.2614 22.7167C62.7298 34.0479 64.6053 44.761 72.4027 54.2251C77.3141 60.1871 83.774 63.5499 91.3985 64.7124C95.1833 65.2904 98.9385 65.0964 102.66 64.2651C103.183 64.1491 103.375 64.1934 103.487 64.7293C103.611 65.3305 103.749 65.9592 104.033 66.493C104.508 67.379 104.128 67.5352 103.329 67.6955C100.763 68.2124 98.1811 68.4465 95.563 68.4571C79.9175 68.5246 65.5378 57.2293 62.3268 41.1766C58.6644 22.8686 69.6348 6.40878 85.9597 1.4742C105.89 -4.5511 126.563 8.53114 129.692 29.0944C129.953 30.8159 130.05 32.55 130.052 35.1513V35.1555Z" fill="#67439B"/>
<path d="M129.514 56.2437C128.668 56.1868 127.628 55.7416 126.645 55.1214C124.708 53.8999 124.504 53.8851 122.808 55.3281C119.841 57.8513 116.911 60.4167 113.962 62.9568C113.582 63.2838 113.624 63.6678 113.759 64.056C114.046 64.8914 114.384 65.71 114.671 66.5454C115.217 68.1403 115.36 69.7289 114.206 71.1298C113.133 72.4357 111.723 72.9293 110.046 72.5791C108.453 72.2458 107.633 71.1066 107.196 69.6825C105.044 62.6551 102.932 55.6172 100.801 48.5834C100.082 46.21 99.3689 43.8324 98.62 41.4674C98.0609 39.7037 98.2845 38.1299 99.7339 36.902C101.19 35.6679 102.787 35.497 104.567 36.305C113.114 40.1763 121.681 44.0054 130.244 47.8429C131.063 48.21 131.9 48.5201 132.592 49.1277C133.943 50.3134 134.354 51.98 133.685 53.6826C133.052 55.2944 131.571 56.288 129.519 56.248L129.514 56.2437ZM107.86 45.9379C107.82 46.0623 107.774 46.1277 107.789 46.1742C108.879 49.4357 109.979 52.6931 111.065 55.9568C111.211 56.3914 111.392 56.307 111.656 56.0771C113.521 54.4399 115.382 52.7986 117.259 51.1762C117.687 50.8071 117.609 50.6214 117.139 50.402C116.071 49.9041 115.021 49.3703 113.96 48.8598C111.932 47.8851 109.903 46.9168 107.863 45.94L107.86 45.9379Z" fill="#6B30E9"/>
</svg>
