<?xml version="1.0" encoding="UTF-8"?>
<svg id="_레이어_1" xmlns="http://www.w3.org/2000/svg" version="1.1" viewBox="0 0 48 48">
  <!-- Generator: Adobe Illustrator 29.0.0, SVG Export Plug-In . SVG Version: 2.1.0 Build 186)  -->
  <defs>
    <style>
      .st0 {
        fill: #603588;
      }

      .st1 {
        fill: #231815;
      }

      .st2 {
        fill: #5d3287;
      }
    </style>
  </defs>
  <g>
    <path class="st1" d="M7.6,36.95c-.03.06-.07.13-.12.16-.06.05-.14.09-.23.1-.17.05-.32.03-.46-.04-.33-.21-.29-.63-.3-.95v-2.08c0-.39,0-.35-.02-.77v-.46c-.94,1.56-1.14,1.8-1.49,1.83-.2.02-.4-.21-.5-.34-.29-.36-.66-.85-1.04-1.57,0,.04-.02,3.83-.05,3.83,0,.41-.41.76-.9.5-.15-.1-.23-.31-.25-.46,0-.16-.02-.32-.02-.49v-.7l.02-1.39v-1.21c0-.52.02-1.04.05-1.54,0-.13.04-.24.08-.35.04-.09.1-.16.19-.22.09-.05.19-.08.29-.08.08,0,.16,0,.23.02.24.04.41.35.56.51.19.22.45.66.59.89.32.5.55.94.77,1.23.06-.07.22-.3.26-.39.25-.39.46-.7.86-1.36.17-.28.55-.9.94-.91.09,0,.16,0,.23.02.08,0,.14.04.21.1.04.04.08.09.11.15.02.06.04.14.04.2,0,.08.02.15.02.23,0,.67.02,1.33.02,2v2.52c0,.17.02.37,0,.56,0,.14-.04.31-.09.44v.02Z"/>
    <path class="st1" d="M13.09,32.46c.35.92.39,2.04.13,2.87-.07.27-.17.5-.3.72-.3.51-.8.85-1.36.97-.77.18-1.66-.02-2.27-.61-.74-.72-.94-1.96-.86-2.92.06-.88.57-2.12,1.58-2.5,1.61-.61,2.62.25,3.08,1.47ZM12.04,32.89c-.26-.77-.77-1.22-1.67-.8-.53.25-.72.98-.76,1.56-.04.62.04,1.42.43,1.9.31.36.76.5,1.16.41.33-.07.58-.3.76-.66.07-.14.13-.29.16-.45.14-.56.13-1.33-.08-1.95v-.01Z"/>
    <path class="st1" d="M19.42,36.76c0,.07-.02.13-.06.2-.04.05-.1.12-.18.15-.15.09-.31.12-.48.09-.07-.02-.15-.05-.22-.12-.02-.02-.04-.03-.04-.04,0,0-.03-.04-.04-.04-.05-.05-.09-.12-.13-.17-.03-.05-.05-.11-.09-.17-.03-.05-.05-.09-.06-.14-.02-.04-.04-.1-.04-.14l-.19-.44h-2.48l-.19.44s-.03.1-.05.14-.04.09-.06.14c-.04.06-.06.12-.1.17-.03.05-.06.12-.12.17-.02,0-.04.04-.04.04,0,.02-.03.03-.05.04-.07.06-.15.1-.22.12-.17.03-.32,0-.48-.09-.08-.04-.14-.1-.18-.15-.04-.06-.06-.13-.06-.2,0-.08,0-.14.02-.22,0-.05.03-.12.04-.16.02-.05.03-.07.03-.08l1.87-4.61.05-.14c.03-.07.06-.13.09-.21.03-.07.05-.13.1-.21.04-.07.09-.13.13-.19s.1-.09.15-.12c.17-.06.41-.06.58,0,.05.03.11.06.15.12s.09.12.13.19c.04.07.07.14.1.21.03.08.06.14.09.21l.05.14,1.87,4.61s0,.03.03.08c.02.04.04.11.04.16,0,.07.02.13.02.22h.02ZM17.27,34.33c-.15-.34-.32-.72-.5-1.11-.05-.11-.1-.22-.14-.33-.04.11-.09.23-.13.33-.18.39-.34.77-.5,1.11l-.16.4h1.59s-.16-.4-.16-.4Z"/>
    <path class="st1" d="M26.33,36.97c-.37.23-1.03.32-1.48.31-2.16-.07-2.56-2.15-2.45-3.68.07-.92.5-2.22,1.51-2.62.93-.38,2.37-.23,2.93.61.19.31.32.8.25,1.21-.11.71-.89.5-1.04,0-.08-.28-.18-.52-.43-.67-.58-.36-1.31-.06-1.65.48-.4.59-.44,1.46-.31,2.15.06.28.16.56.31.83.22.38.79.61,1.25.5.65-.16.79-.59.79-1.09h0c-.15,0-.29-.02-.34-.02-.13,0-.27-.03-.39-.07-.11-.04-.19-.09-.24-.17-.06-.07-.09-.15-.09-.24,0-.07,0-.13.02-.21.02-.05.06-.12.12-.18.04-.03.1-.05.17-.07s.14-.04.23-.05h1.06c.13,0,.33.04.43.12.04.04.08.09.1.15.02.05.04.13.05.2,0,.07.02.15.02.22v.37c0,.71-.08,1.49-.82,1.96v-.04Z"/>
    <path class="st1" d="M32.6,35.36c-.08.25-.21.54-.33.76-.38.65-1.15.99-1.87,1.03-.63.03-1.22-.18-1.69-.64-.72-.7-.83-1.59-.82-2.58,0-.47-.02-1.45,0-1.94,0-.31-.03-.76.17-1.04.23-.31.83-.3,1.06.02.06.09.08.19.09.31.05.8,0,2.12,0,2.5,0,.71.04,1.32.31,1.7.23.34.58.41.91.38.3-.04.64-.22.82-.58.07-.13.13-.32.14-.46.09-.92.15-2.52.12-3.49,0,0,.04-.6.67-.59.5,0,.61.55.61.55.13,1.15.06,3.24-.19,4.09v-.02Z"/>
    <path class="st1" d="M33.86,36.2v-.71l.02-1.32v-1.22c0-.43,0-.73.02-1.14v-.04c0-.12.02-.25.02-.38,0-.12.04-.23.1-.35.05-.09.1-.15.19-.22.09-.04.19-.07.28-.07s.17,0,.24.02c.07,0,.14.05.21.11.04.04.07.08.1.14.02.07.04.13.05.21,0,.08.02.15.02.22v.37l-.05,4.67v.09s0,.09-.02.16c-.02.06-.04.13-.06.2-.04.06-.07.12-.13.16-.05.05-.13.08-.23.1-.16.04-.32.02-.46-.04-.06-.04-.12-.1-.15-.18-.02-.02-.03-.04-.03-.05,0-.02-.03-.04-.04-.05-.02-.06-.04-.13-.04-.2,0-.05-.02-.12-.03-.18v-.28l-.01-.02Z"/>
    <path class="st1" d="M40.76,34.76c-.12.68-.42,1.38-1.04,1.83-.65.48-1.52.61-2.34.65-.27.02-.57.03-.83-.04-.1-.02-.18-.04-.24-.1-.05-.04-.09-.1-.12-.16-.04-.06-.05-.13-.07-.2,0-.06-.02-.12-.02-.16v-5.14c0-.08,0-.15.02-.23,0-.08.03-.15.05-.21.03-.07.05-.12.1-.15.07-.06.14-.09.21-.11s.15.02.24-.03l1.5.04c1.58.04,2.51,1.5,2.61,2.78.03.4,0,.83-.07,1.22v.01ZM39.13,32.58c-.32-.53-1.12-.63-1.82-.64v4.08c.74-.02,1.4-.09,1.85-.77.46-.73.41-1.94-.03-2.66v-.01Z"/>
    <path class="st1" d="M42.8,31.86l-.02,1.41h2.11c.14,0,.28.04.41.08.11.04.19.09.25.16.06.08.09.17.09.26,0,.06,0,.14-.02.21,0,.06-.04.13-.12.18-.04.04-.1.07-.17.09-.06.02-.14.04-.23.04-.08.02-.16.03-.25.03h-2.09l-.02,1.77,1.79.02h.67c.09.02.17.03.24.04.07.03.14.06.18.1.06.06.1.12.12.19,0,.05.02.13,0,.2,0,.1-.03.18-.09.26-.06.07-.14.14-.25.16-.13.05-.26.08-.41.08-.13,0-.28,0-.41.02h-2.4c-.13,0-.24,0-.34-.07-.06-.04-.12-.09-.15-.17-.02-.02-.03-.05-.03-.05,0-.02-.03-.04-.04-.05-.02-.06-.04-.13-.04-.19,0-.05-.02-.12-.03-.18v-.98l.02-1.3v-1.2c0-.43,0-.73.02-1.12v-.04c0-.13.02-.24.02-.36,0-.13.04-.24.1-.35.04-.09.1-.17.19-.22s.17-.08.28-.08h.11c.43,0,.46,0,.95-.02h1.39c.13,0,.28,0,.41.02.13,0,.27.04.4.08.1.03.19.08.25.15.05.08.08.16.08.25,0,.07,0,.14-.02.2,0,.07-.04.13-.11.19-.04.03-.1.06-.17.09-.07.02-.15.03-.22.04-.09.02-.17.02-.26.02h-2.21v.04h.02Z"/>
  </g>
  <g>
    <path class="st2" d="M40.34,18.46c0,.72-.12,1.42-.3,2.11-.05.21-.1.26-.33.16-1.98-.9-3.97-1.78-5.95-2.68-.75-.34-1.38.03-1.67.55-.18.32-.14.65-.05.97.54,1.77,1.08,3.52,1.64,5.29.14.42.26.84.39,1.26.05.15.05.21-.15.26-2.42.49-4.65.05-6.63-1.44-1.91-1.42-2.95-3.34-3.22-5.7-.45-4.08,2.31-7.88,6.33-8.76,4.76-1.05,9.34,2.22,9.87,7.05.03.32.05.63.07.95v-.03.01Z"/>
    <path class="st2" d="M7.94,15.25v11.3c0,.75-.38,1.33-1.01,1.5-1.04.27-1.89-.29-1.89-1.36-.03-5.05,0-10.12,0-15.18,0-.7.41-1.1,1-1.33.77-.32,1.53-.23,2.28.11.3.14.48.38.61.66,1.32,2.58,2.65,5.16,3.98,7.74.03.08.08.14.14.24.08-.14.14-.24.2-.34,1.29-2.49,2.58-4.98,3.89-7.47.49-.96,1.24-1.33,2.33-1.11.54.11,1.03.32,1.42.75.2.23.3.48.3.77v15.04c0,.42-.12.78-.38,1.09-.36.45-1.03.58-1.66.38-.53-.18-.91-.73-.91-1.35v-3.09c.03-2.73.06-5.47.09-8.2,0-.06,0-.12-.04-.2-.04.08-.09.15-.14.24-1.28,2.43-2.53,4.86-3.81,7.29-.2.39-.42.75-.91.84-.77.12-1.23-.09-1.58-.79-1.24-2.43-2.48-4.86-3.71-7.29-.05-.08-.08-.15-.12-.22h-.08v-.02Z"/>
    <path class="st0" d="M41.88,18.67c0,.72-.14,1.66-.41,2.6-.05.18-.12.22-.29.14-.21-.12-.54-.16-.63-.34-.07-.15.09-.43.14-.67.58-2.78.05-5.31-1.77-7.52-1.99-2.43-4.64-3.51-7.74-3.14-3.39.4-5.83,2.25-7.09,5.41-1.29,3.21-.75,6.26,1.45,8.92,1.4,1.69,3.22,2.64,5.39,2.97,1.08.17,2.13.1,3.19-.12.15-.03.21-.02.24.14.03.17.07.34.15.49.14.26.03.3-.19.34-.72.15-1.45.21-2.2.21-4.44.02-8.51-3.18-9.42-7.72-1.03-5.19,2.07-9.86,6.7-11.25,5.66-1.71,11.51,1.99,12.39,7.83.07.49.1.97.1,1.71,0,0-.01,0-.01,0Z"/>
    <path class="st2" d="M41.73,24.64c-.24-.02-.54-.14-.81-.31-.56-.34-.6-.34-1.09.06-.84.72-1.67,1.44-2.51,2.16-.1.09-.09.19-.06.31.07.24.18.46.26.7.15.45.19.9-.14,1.31-.3.37-.7.51-1.19.41-.45-.09-.69-.42-.81-.82-.61-1.99-1.21-3.99-1.82-5.98-.21-.67-.41-1.35-.61-2.01-.17-.49-.09-.95.31-1.29.42-.34.87-.41,1.36-.16,2.43,1.09,4.84,2.19,7.28,3.27.22.1.46.2.66.36.39.33.49.81.31,1.29-.18.45-.6.73-1.19.72h.03l.02-.02ZM35.6,21.72s-.03.06-.02.06c.31.93.61,1.85.93,2.77.05.12.09.1.17.03.53-.46,1.05-.93,1.59-1.4.12-.1.1-.15-.03-.22-.3-.14-.6-.28-.9-.43-.57-.27-1.16-.55-1.72-.83h-.02s0,.02,0,.02Z"/>
  </g>
</svg>