<?xml version="1.0" encoding="UTF-8"?>
<svg id="_레이어_1" data-name="레이어_1" xmlns="http://www.w3.org/2000/svg" version="1.1" viewBox="0 0 16 16">
  <!-- Generator: Adobe Illustrator 29.0.0, SVG Export Plug-In . SVG Version: 2.1.0 Build 186)  -->
  <defs>
    <style>
      .st0 {
        fill: #231815;
      }

      .st1 {
        fill: #5d3287;
      }

      .st2 {
        fill: #603588;
      }
    </style>
  </defs>
  <g>
    <path class="st0" d="M2.54,12.32s-.02.04-.04.05c-.02.02-.05.03-.08.03-.06.02-.11,0-.15-.01-.11-.07-.1-.21-.1-.32v-.69c0-.13,0-.12,0-.26,0-.01,0-.02,0-.15-.31.52-.38.6-.5.61-.07,0-.13-.07-.17-.11-.1-.12-.22-.28-.35-.52,0,.02,0,1.28-.02,1.28,0,.14-.14.25-.3.17-.05-.03-.08-.1-.08-.15,0-.05,0-.11,0-.16v-.24s0-.46,0-.46v-.4c0-.17,0-.35.02-.51,0-.04.01-.08.03-.12.02-.03.03-.05.06-.07.03-.02.06-.03.1-.03.03,0,.05,0,.08,0,.08.02.14.12.19.17.06.07.15.22.2.3.11.17.18.31.26.41.02-.02.07-.1.09-.13.08-.13.15-.23.29-.45.06-.09.18-.3.31-.3.03,0,.05,0,.08,0,.03,0,.05.02.07.03.02.02.03.03.04.05,0,.02.01.04.01.07,0,.03,0,.05,0,.08,0,.22,0,.45,0,.67,0,.27,0,.57,0,.84,0,.06,0,.12,0,.19,0,.05-.01.1-.03.15Z"/>
    <path class="st0" d="M4.37,10.82c.12.31.13.68.05.96-.02.09-.06.17-.1.24-.1.17-.27.28-.45.33-.26.06-.55,0-.76-.21-.25-.24-.31-.66-.29-.97.02-.29.19-.71.53-.83.54-.21.87.08,1.03.49ZM4.02,10.96c-.09-.26-.26-.41-.56-.27-.18.08-.24.33-.25.52-.02.21.01.47.14.63.1.12.25.17.39.13.11-.02.2-.1.25-.22.02-.05.04-.1.05-.15.05-.19.04-.45-.03-.65Z"/>
    <path class="st0" d="M6.48,12.25s0,.04-.02.07c-.01.02-.03.04-.06.05-.05.03-.1.04-.16.03-.02,0-.05-.02-.08-.04,0,0-.01,0-.02-.01,0,0,0-.01-.01-.02-.02-.02-.03-.04-.04-.06,0-.02-.02-.04-.03-.06,0-.01-.02-.03-.02-.04,0-.01-.01-.03-.02-.05l-.06-.15c-.27,0-.55,0-.83,0l-.06.15s0,.03-.02.05c0,.02-.01.03-.02.04-.01.02-.02.04-.03.06,0,.02-.02.04-.04.06,0,0-.01.01-.02.02,0,0,0,0-.01.01-.02.02-.05.03-.08.04-.06,0-.11,0-.16-.03-.03-.01-.05-.03-.06-.05-.01-.02-.02-.04-.02-.07,0-.03,0-.05,0-.07,0-.02,0-.04.01-.05,0-.02,0-.02,0-.03l.62-1.54.02-.05s.02-.04.03-.07c0-.02.02-.04.03-.07.01-.02.03-.04.04-.06.02-.02.03-.03.05-.04.06-.02.14-.02.2,0,.02,0,.04.02.05.04.02.02.03.04.05.06.01.02.02.04.03.07,0,.03.02.05.03.07l.02.05.62,1.54s0,0,0,.03c0,.01.01.04.02.05,0,.02,0,.05,0,.07ZM5.76,11.44c-.05-.11-.11-.24-.17-.37-.02-.04-.03-.08-.05-.11-.01.04-.03.08-.05.11-.06.13-.11.26-.17.37l-.05.13h.53l-.05-.13Z"/>
    <path class="st0" d="M8.78,12.32c-.12.08-.34.11-.49.1-.72-.02-.85-.72-.82-1.23.02-.31.17-.74.5-.88.31-.13.79-.08.98.21.06.1.11.27.08.4-.04.24-.3.17-.35,0-.03-.09-.06-.17-.14-.23-.2-.12-.44-.02-.55.16-.13.2-.15.49-.1.72.02.09.05.19.1.28.07.13.26.2.42.17.22-.05.26-.2.26-.36h0c-.05,0-.1,0-.11,0-.05,0-.09,0-.13-.02-.04-.01-.06-.03-.08-.06-.02-.02-.03-.05-.03-.08,0-.02,0-.05,0-.07,0-.02.02-.04.04-.06.01,0,.03-.02.06-.02s.05-.02.08-.02c.02,0,.05,0,.08,0h.27s.11.01.14.04c.01.02.03.03.03.05,0,.02.01.04.01.07s0,.05,0,.07v.12c0,.24-.03.5-.27.66Z"/>
    <path class="st0" d="M10.87,11.79c-.03.08-.07.18-.11.25-.13.22-.38.33-.62.34-.21,0-.41-.06-.57-.21-.24-.23-.28-.53-.27-.86,0-.16,0-.48,0-.65,0-.11,0-.25.06-.35.08-.1.28-.1.35,0,.02.03.03.06.03.1.02.27,0,.71,0,.84,0,.24.01.44.1.57.08.11.2.14.3.13.1-.01.21-.07.27-.19.02-.04.04-.1.05-.15.03-.31.05-.84.04-1.17,0,0,.01-.2.22-.2.17,0,.21.18.21.18.04.38.02,1.08-.06,1.36Z"/>
    <path class="st0" d="M11.29,12.07v-.24s0-.44,0-.44c0-.13,0-.26,0-.41s0-.24,0-.38h0c0-.05,0-.1,0-.14,0-.04.01-.08.03-.12.01-.03.03-.05.06-.07.03-.01.06-.02.09-.02s.06,0,.08,0c.02,0,.05.02.07.04.01.01.02.03.03.05,0,.02.01.04.02.07,0,.03,0,.05,0,.08,0,.03,0,.05,0,.07v.05l-.02,1.56v.03s0,.03,0,.05c0,.02-.01.04-.02.07-.01.02-.02.04-.04.05-.02.02-.04.03-.08.03-.05.01-.11,0-.15-.01-.02-.02-.04-.03-.05-.06,0,0,0-.01,0-.02,0,0,0-.01-.01-.02,0-.02-.01-.04-.01-.07,0-.02,0-.04,0-.06,0-.02,0-.03,0-.05v-.05Z"/>
    <path class="st0" d="M13.59,11.58c-.04.23-.14.46-.35.61-.22.16-.51.2-.78.22-.09,0-.19,0-.28-.01-.03,0-.06-.01-.08-.03-.02-.01-.03-.03-.04-.05-.01-.02-.02-.04-.02-.07,0-.02,0-.04,0-.05v-1.72s0-.05,0-.08c0-.03,0-.05.02-.07,0-.02.02-.04.03-.05.02-.02.05-.03.07-.04.02,0,.05,0,.08,0h.5c.53.02.84.51.87.94,0,.13,0,.28-.02.41ZM13.04,10.86c-.11-.18-.37-.21-.61-.21,0,.11,0,.22,0,.34,0,.14,0,.28,0,.41v.61c.25,0,.47-.03.62-.26.15-.24.14-.65,0-.89Z"/>
    <path class="st0" d="M14.27,10.62v.47s.11,0,.11,0c.16,0,.28,0,.43,0h.01s.09,0,.14,0c.05,0,.09.02.14.03.04.01.06.03.08.05.02.03.03.06.03.09,0,.02,0,.05,0,.07,0,.02-.01.04-.04.06-.01.01-.03.02-.06.03-.02,0-.05.01-.08.01-.03,0-.05,0-.08,0h-.7s0,.59,0,.59h.6s.14,0,.14,0c.03,0,.06,0,.08,0,.03,0,.06,0,.08.01.02,0,.04.02.06.03.02.02.03.04.04.06,0,.02,0,.04,0,.07,0,.03,0,.06-.03.09-.02.02-.05.04-.08.05-.04.02-.09.03-.14.03-.04,0-.09,0-.14,0h-.02c-.16,0-.32,0-.49,0-.16,0-.17,0-.3,0-.04,0-.08,0-.11-.02-.02-.01-.04-.03-.05-.06,0,0,0-.02,0-.02,0,0,0-.01-.01-.02,0-.02-.01-.04-.01-.06,0-.02,0-.04,0-.06v-.05s0-.03,0-.05v-.67s0-.4,0-.4c0-.14,0-.24,0-.38h0c0-.06,0-.1,0-.14,0-.04.01-.08.03-.12.01-.03.03-.06.06-.07.03-.02.06-.03.09-.03.01,0,.02,0,.04,0h0c.14,0,.15,0,.32,0,.16,0,.3,0,.45,0h.01s.09,0,.14,0c.05,0,.09.01.13.03.03,0,.06.03.08.05.02.03.03.05.03.08,0,.02,0,.05,0,.07,0,.02-.02.04-.04.06-.02,0-.03.02-.06.03-.02,0-.05,0-.08.01-.03,0-.06,0-.09,0h-.74Z"/>
  </g>
  <g>
    <path class="st1" d="M13.45,6.16c0,.24-.04.47-.1.7-.02.07-.03.09-.11.05-.66-.3-1.32-.59-1.98-.89-.25-.11-.46.01-.56.18-.06.11-.05.22-.02.32.18.59.36,1.17.55,1.76.05.14.09.28.13.42.02.05.02.07-.05.09-.81.16-1.55.02-2.21-.48-.64-.47-.98-1.11-1.07-1.9-.15-1.36.77-2.62,2.11-2.92,1.59-.35,3.11.74,3.29,2.35.01.11.02.21.02.32h0Z"/>
    <path class="st1" d="M2.65,5.09v3.77c0,.25-.12.44-.34.5-.35.09-.63-.1-.63-.45,0-1.68,0-3.37,0-5.06,0-.23.14-.37.33-.44.26-.11.51-.08.76.04.1.05.16.12.2.22.44.86.88,1.72,1.33,2.58.01.03.03.05.05.08.03-.05.05-.08.07-.11.43-.83.86-1.66,1.3-2.49.16-.32.41-.44.78-.37.18.04.34.11.47.25.07.08.1.16.1.26v5.01c0,.14-.04.26-.12.36-.12.15-.34.19-.55.12-.18-.06-.3-.24-.3-.45v-1.03c.01-.91.02-1.82.03-2.73,0-.02,0-.04-.01-.07-.01.03-.03.05-.05.08-.43.81-.84,1.62-1.27,2.43-.07.13-.14.25-.3.28-.26.04-.41-.03-.53-.26-.41-.81-.83-1.62-1.24-2.43-.02-.03-.03-.05-.04-.07h-.03Z"/>
    <path class="st2" d="M13.96,6.23c0,.24-.05.55-.14.87-.02.06-.04.07-.1.05-.07-.04-.18-.05-.21-.11-.02-.05.03-.14.05-.22.19-.93.02-1.77-.59-2.51-.66-.81-1.55-1.17-2.58-1.05-1.13.13-1.94.75-2.36,1.8-.43,1.07-.25,2.09.48,2.97.47.56,1.07.88,1.8.99.36.06.71.03,1.06-.04.05-.01.07,0,.08.05.01.06.02.11.05.16.05.09.01.1-.06.11-.24.05-.48.07-.73.07-1.48,0-2.84-1.06-3.14-2.57-.34-1.73.69-3.29,2.23-3.75,1.89-.57,3.84.66,4.13,2.61.02.16.03.32.03.57h0Z"/>
    <path class="st1" d="M13.91,8.22c-.08,0-.18-.05-.27-.1-.19-.11-.2-.11-.36.02-.28.24-.56.48-.84.72-.03.03-.03.06-.02.1.02.08.06.15.09.23.05.15.06.3-.05.44-.1.12-.23.17-.4.14-.15-.03-.23-.14-.27-.27-.2-.66-.4-1.33-.61-1.99-.07-.22-.14-.45-.2-.67-.06-.16-.03-.32.1-.43.14-.11.29-.14.45-.05.81.36,1.61.73,2.43,1.09.07.03.15.07.22.12.13.11.16.27.1.43-.06.15-.2.24-.4.24,0,0,.01,0,.01,0ZM11.87,7.24s-.01.02,0,.02c.1.31.2.62.31.92.02.04.03.03.06.01.18-.15.35-.31.53-.47.04-.03.03-.05-.01-.07-.1-.05-.2-.09-.3-.14-.19-.09-.39-.18-.57-.28h0Z"/>
  </g>
</svg>