<?xml version="1.0" encoding="utf-8"?>
<!-- Generator: Adobe Illustrator 21.1.0, SVG Export Plug-In . SVG Version: 6.00 Build 0)  -->
<svg version="1.1" id="레이어_1" xmlns="http://www.w3.org/2000/svg" xmlns:xlink="http://www.w3.org/1999/xlink" x="0px"
	 y="0px" width="450px" height="450px" viewBox="0 0 450 450" style="enable-background:new 0 0 450 450;" xml:space="preserve">
<style type="text/css">
	.st0{fill:#8B50A4;}
	.st1{fill:#FFFFFF;}
</style>
<circle class="st0" cx="225" cy="225" r="225"/>
<g>
	<path class="st1" d="M306.7,86.4v44.9H204l-7.5,50.7c4.7-0.8,10.8-1.2,18.3-1.2c43.2,0,73.3,15,90.2,44.9c6.7,11.9,10,26.5,10,43.6
		c0,29.1-11.1,52.6-33.3,70.7c-20.5,15.8-45.3,23.7-74.4,23.7c-29.1,0-53.2-5.5-72.3-16.6l11.6-40.7c17.7,10,37.4,15,59,15
		c16.1,0,29.4-4.3,39.9-12.9c11.9-9.1,17.9-21.1,17.9-35.7c0-33.8-25.1-50.7-75.2-50.7c-13.6,0-26.3,1.1-38.2,3.3l17.9-138.8H306.7z
		"/>
</g>
</svg>
