<?xml version="1.0" encoding="utf-8"?>
<!-- Generator: Adobe Illustrator 21.1.0, SVG Export Plug-In . SVG Version: 6.00 Build 0)  -->
<svg version="1.1" id="레이어_1" xmlns="http://www.w3.org/2000/svg" xmlns:xlink="http://www.w3.org/1999/xlink" x="0px"
	 y="0px" width="450px" height="450px" viewBox="0 0 450 450" style="enable-background:new 0 0 450 450;" xml:space="preserve">
<style type="text/css">
	.st0{fill:#33A23D;}
	.st1{fill:#FFFFFF;}
</style>
<path class="st0" d="M450,225c0,124.3-100.7,225-225,225C100.7,450,0,349.3,0,225S100.7,0,225,0C349.3,0,450,100.7,450,225z"/>
<g>
	<path class="st1" d="M315.8,363.4H134.2v-32.8l31.2-29.9c62.6-58.7,93.9-100.7,93.9-125.9c0-29.6-16.1-44.5-48.2-44.5
		c-18.3,0-37.3,7.8-56.9,23.3l-16.2-37.8c24.4-19.4,52.1-29.1,83.1-29.1c26,0,47.4,7.3,64,22c16.6,14.7,24.9,35.1,24.9,61.1
		c0,24.9-9.6,50.3-28.7,76.1c-11.6,16.1-30.2,35.3-55.7,57.8l-17,15h107.2L315.8,363.4L315.8,363.4z"/>
</g>
</svg>
