<?xml version="1.0" encoding="UTF-8" standalone="no"?>
<!-- Generator: Adobe Illustrator 21.1.0, SVG Export Plug-In . SVG Version: 6.00 Build 0)  -->

<svg
   xmlns:dc="http://purl.org/dc/elements/1.1/"
   xmlns:cc="http://creativecommons.org/ns#"
   xmlns:rdf="http://www.w3.org/1999/02/22-rdf-syntax-ns#"
   xmlns:svg="http://www.w3.org/2000/svg"
   xmlns="http://www.w3.org/2000/svg"
   xmlns:sodipodi="http://sodipodi.sourceforge.net/DTD/sodipodi-0.dtd"
   xmlns:inkscape="http://www.inkscape.org/namespaces/inkscape"
   version="1.1"
   id="레이어_1"
   x="0px"
   y="0px"
   width="450px"
   height="450px"
   viewBox="0 0 450 450"
   style="enable-background:new 0 0 450 450;"
   xml:space="preserve"
   sodipodi:docname="Seoul_Metro_Line_Shinbundang.svg"
   inkscape:version="0.92.3 (2405546, 2018-03-11)"><metadata
   id="metadata19"><rdf:RDF><cc:Work
       rdf:about=""><dc:format>image/svg+xml</dc:format><dc:type
         rdf:resource="http://purl.org/dc/dcmitype/StillImage" /></cc:Work></rdf:RDF></metadata><defs
   id="defs17" /><sodipodi:namedview
   pagecolor="#ffffff"
   bordercolor="#666666"
   borderopacity="1"
   objecttolerance="10"
   gridtolerance="10"
   guidetolerance="10"
   inkscape:pageopacity="0"
   inkscape:pageshadow="2"
   inkscape:window-width="716"
   inkscape:window-height="633"
   id="namedview15"
   showgrid="false"
   inkscape:zoom="0.52444444"
   inkscape:cx="225"
   inkscape:cy="225"
   inkscape:window-x="0"
   inkscape:window-y="0"
   inkscape:window-maximized="0"
   inkscape:current-layer="레이어_1" />
<style
   type="text/css"
   id="style2">
	.st0{fill:#DB0029;}
	.st1{fill:#FFFFFF;}
</style>
<circle
   class="st0"
   cx="225"
   cy="225"
   r="225"
   id="circle4" />
<g
   id="g12">
	<path
   class="st1"
   d="M100.8,220.5l-12,12l-29.6-29c-2.3,4.1-4.9,7.7-7.8,10.9c-2.8,3.2-5.7,6.1-8.6,8.6c-2.9,2.5-5.7,4.5-8.5,6.2   c-2.8,1.7-5.2,3-7.4,4l-11.4-12.8c4.1-1.7,8.2-4.1,12.3-7c4.2-3,7.9-6.6,11.2-10.9c3.3-4.3,6-9.2,8.2-14.7   c2.1-5.5,3.2-11.8,3.2-18.7v-14.9h17.6v14.9c0,3.2-0.2,6.3-0.6,9.2c-0.4,2.9-0.9,5.7-1.5,8.2L100.8,220.5z M139.9,295.7H60.2v-53.6   h17.3v37.3h62.4V295.7z M138.6,249.8h-17.1V146.1h17.1V249.8z"
   id="path6" />
	<path
   class="st1"
   d="M289.5,240.2h-57.8v29h-17.1v-29h-62.2v-16h137.1V240.2z M258.1,214.6h-76v-62.7h17v16.5H241v-16.5h17.1V214.6   z M262.9,295.5h-80.3v-45.9h16.8v29.6h63.5V295.5z M241,198.4V184h-41.9v14.4H241z"
   id="path8" />
	<path
   class="st1"
   d="M377.5,224h-75v-67.5H366v16.2h-46.7V208h58.2V224z M410,266.3c0,4.6-1,8.9-2.9,12.9s-4.5,7.5-7.8,10.5   c-3.3,3-7.2,5.3-11.6,7c-4.4,1.7-9.1,2.6-14.2,2.6c-5.3,0-10.2-0.9-14.6-2.6c-4.4-1.7-8.3-4-11.6-6.9c-3.3-3-5.9-6.5-7.7-10.5   c-1.8-4-2.7-8.3-2.7-12.9c0-4.6,1-8.9,2.9-12.9s4.6-7.4,8-10.3c3.3-2.9,7.2-5.1,11.6-6.8c4.4-1.7,9.1-2.5,14-2.5   c4.8,0,9.4,0.8,13.8,2.4c4.4,1.6,8.3,3.8,11.8,6.7c3.3,2.9,6,6.3,8,10.2C408.9,257.3,410,261.6,410,266.3z M392.4,266.6   c0-4.9-1.8-8.9-5.4-12.1c-3.6-3.1-8.2-4.7-13.6-4.7c-5.3,0-9.8,1.6-13.5,4.9c-3.7,3.3-5.5,7.1-5.5,11.6c0,4.7,1.7,8.7,5.2,12   c3.5,3.3,8.1,5,14,5c5.4,0,9.9-1.5,13.5-4.6C390.6,275.6,392.4,271.6,392.4,266.6z M435.6,196.3h-25.1v37.3h-17.3v-87.5h17.3v34.1   h25.1V196.3z"
   id="path10" />
</g>
<text
   xml:space="preserve"
   style="font-style:normal;font-variant:normal;font-weight:normal;font-stretch:normal;font-size:53.33333206px;line-height:1.25;font-family:Arial;-inkscape-font-specification:Arial;letter-spacing:0px;word-spacing:0px;fill:#000000;fill-opacity:1;stroke:none"
   x="68.644073"
   y="368.00845"
   id="text4531"><tspan
     sodipodi:role="line"
     id="tspan4529"
     x="68.644073"
     y="368.00845"
     style="fill:#ffffff;fill-opacity:1">Shinbundang</tspan></text>
</svg>