<?xml version="1.0" encoding="utf-8"?>
<!-- Generator: Adobe Illustrator 15.1.0, SVG Export Plug-In . SVG Version: 6.00 Build 0)  -->
<!DOCTYPE svg PUBLIC "-//W3C//DTD SVG 1.1//EN" "http://www.w3.org/Graphics/SVG/1.1/DTD/svg11.dtd">
<svg version="1.1" id="레이어_1" xmlns="http://www.w3.org/2000/svg" xmlns:xlink="http://www.w3.org/1999/xlink" x="0px"
	 y="0px" width="450px" height="450px" viewBox="0 0 450 450" enable-background="new 0 0 450 450" xml:space="preserve">
<path fill="#72C7A6" d="M449.991,224.997c0,124.26-100.736,224.99-224.995,224.99C100.736,449.986,0,349.257,0,224.997
	C0,100.736,100.736,0,224.997,0C349.255,0,449.991,100.736,449.991,224.997z"/>
<g enable-background="new    ">
	<path fill="#FFFFFF" d="M179.222,56.209c0,7.48-1.309,13.945-3.928,19.388c-2.618,5.445-6.255,9.997-10.91,13.653
		c-4.656,3.659-10.183,6.464-16.583,8.416c-6.402,1.954-13.384,3.139-20.947,3.554V86.133c4.156-0.415,8.374-1.101,12.656-2.058
		c4.28-0.954,8.167-2.409,11.658-4.363c3.491-1.952,6.359-4.551,8.604-7.793c2.244-3.242,3.407-7.313,3.491-12.219v-1.247H128.35
		V44.488h50.872V56.209z M177.601,96.731c4.239,0,8.208,0.686,11.908,2.057c3.698,1.372,6.92,3.367,9.663,5.985
		s4.903,5.798,6.483,9.538c1.578,3.741,2.369,7.98,2.369,12.718c0,4.738-0.791,8.997-2.369,12.78
		c-1.58,3.781-3.74,6.982-6.483,9.601c-2.743,2.619-5.965,4.633-9.663,6.048c-3.7,1.412-7.668,2.119-11.908,2.119
		c-4.157,0-8.063-0.707-11.72-2.119c-3.659-1.415-6.857-3.429-9.601-6.048c-2.743-2.618-4.906-5.819-6.484-9.601
		c-1.58-3.783-2.369-8.042-2.369-12.78c0-4.737,0.789-8.977,2.369-12.718c1.578-3.74,3.741-6.92,6.484-9.538
		s5.942-4.613,9.601-5.985C169.537,97.417,173.443,96.731,177.601,96.731z M177.601,143.363c2.161,0,4.177-0.437,6.047-1.31
		c1.87-0.872,3.511-2.037,4.925-3.491c1.412-1.455,2.513-3.179,3.304-5.174c0.789-1.995,1.184-4.114,1.184-6.359
		c0-2.244-0.396-4.342-1.184-6.296c-0.791-1.952-1.892-3.657-3.304-5.112c-1.415-1.453-3.055-2.597-4.925-3.429
		c-1.87-0.83-3.887-1.247-6.047-1.247c-2.079,0-4.052,0.417-5.922,1.247c-1.87,0.832-3.491,1.976-4.863,3.429
		c-1.372,1.455-2.453,3.16-3.242,5.112c-0.791,1.954-1.185,4.052-1.185,6.296c0,2.245,0.394,4.364,1.185,6.359
		c0.789,1.995,1.87,3.719,3.242,5.174c1.372,1.454,2.993,2.619,4.863,3.491C173.548,142.927,175.522,143.363,177.601,143.363z
		 M198.298,103.215V89.873h-18.079V76.657h18.079v-8.729h-15.585V54.712h15.585V44.488h14.713v58.727H198.298z"/>
	<path fill="#FFFFFF" d="M305.402,152.59v-30.423H231.09v-14.214h74.313V44.488h14.713V152.59H305.402z M264.007,42.992
		c4.071,0,7.937,0.645,11.596,1.933c3.657,1.289,6.814,3.117,9.476,5.486c2.66,2.368,4.779,5.258,6.359,8.665
		c1.578,3.409,2.369,7.274,2.369,11.596c0,4.323-0.791,8.21-2.369,11.658c-1.58,3.45-3.699,6.359-6.359,8.728
		c-2.661,2.369-5.818,4.199-9.476,5.486c-3.659,1.29-7.524,1.933-11.596,1.933c-4.073,0-7.917-0.643-11.534-1.933
		c-3.615-1.287-6.754-3.117-9.413-5.486c-2.661-2.368-4.78-5.277-6.358-8.728c-1.58-3.448-2.369-7.335-2.369-11.658
		c0-4.321,0.789-8.187,2.369-11.596c1.578-3.407,3.697-6.297,6.358-8.665c2.659-2.369,5.798-4.197,9.413-5.486
		C256.09,43.636,259.934,42.992,264.007,42.992z M264.007,84.262c2.077,0,3.989-0.415,5.735-1.247c1.746-0.83,3.221-1.89,4.426-3.18
		c1.205-1.287,2.14-2.742,2.806-4.363c0.665-1.621,0.997-3.221,0.997-4.801c0-1.496-0.332-3.055-0.997-4.676
		c-0.666-1.621-1.601-3.074-2.806-4.363c-1.205-1.288-2.68-2.348-4.426-3.18c-1.746-0.83-3.658-1.247-5.735-1.247
		c-2.079,0-3.971,0.417-5.673,1.247c-1.705,0.832-3.139,1.892-4.303,3.18c-1.164,1.289-2.078,2.742-2.742,4.363
		c-0.666,1.621-0.998,3.18-0.998,4.676c0,1.58,0.332,3.18,0.998,4.801c0.664,1.621,1.578,3.076,2.742,4.363
		c1.164,1.29,2.598,2.35,4.303,3.18C260.036,83.847,261.928,84.262,264.007,84.262z"/>
</g>
<g enable-background="new    ">
	<path fill="#FFFFFF" d="M122.554,230.464v4.488c3.324,0.666,6.441,1.705,9.352,3.117c2.909,1.414,5.402,3.201,7.481,5.361
		c2.077,2.162,3.719,4.676,4.925,7.543c1.204,2.868,1.808,6.091,1.808,9.663c0,4.239-0.832,8-2.494,11.284
		c-1.664,3.283-3.908,6.067-6.733,8.354c-2.827,2.285-6.152,4.03-9.975,5.236c-3.824,1.204-7.898,1.808-12.219,1.808
		c-4.239,0-8.25-0.604-12.032-1.808c-3.783-1.206-7.087-2.951-9.912-5.236c-2.827-2.287-5.071-5.071-6.733-8.354
		c-1.664-3.284-2.494-7.045-2.494-11.284c0-3.572,0.581-6.795,1.746-9.663c1.163-2.867,2.806-5.381,4.925-7.543
		c2.12-2.16,4.592-3.947,7.419-5.361c2.825-1.412,5.942-2.451,9.351-3.117v-4.488H68.566v-14.339h91.893v14.339H122.554z
		 M71.434,197.671c9.726-0.498,17.226-1.64,22.506-3.429c5.277-1.786,8.872-4.302,10.785-7.543H72.681v-13.965h82.915v13.965
		h-32.044c1.911,3.241,5.506,5.757,10.786,7.543c5.277,1.789,12.821,2.931,22.63,3.429v13.841
		c-20.366-0.998-34.621-5.319-42.767-12.968c-8.064,7.648-22.319,11.97-42.767,12.968V197.671z M114.699,247.421
		c-2.163,0-4.198,0.292-6.109,0.872c-1.913,0.583-3.575,1.435-4.987,2.557c-1.415,1.122-2.537,2.515-3.367,4.177
		c-0.832,1.664-1.247,3.534-1.247,5.61c0,2.163,0.415,4.094,1.247,5.798c0.83,1.703,1.952,3.137,3.367,4.302
		c1.412,1.163,3.074,2.036,4.987,2.619c1.911,0.58,3.947,0.872,6.109,0.872c2.245,0,4.321-0.292,6.234-0.872
		c1.911-0.583,3.573-1.456,4.987-2.619c1.413-1.165,2.535-2.599,3.367-4.302c0.83-1.704,1.247-3.635,1.247-5.798
		c0-2.076-0.417-3.946-1.247-5.61c-0.832-1.662-1.954-3.055-3.367-4.177c-1.415-1.122-3.076-1.974-4.987-2.557
		C119.021,247.713,116.944,247.421,114.699,247.421z"/>
	<path fill="#FFFFFF" d="M204.096,169.118c3.906,0,7.584,0.624,11.035,1.87c3.448,1.247,6.441,3.076,8.978,5.486
		c2.534,2.412,4.551,5.361,6.048,8.853c1.496,3.491,2.244,7.481,2.244,11.97c0,4.489-0.748,8.479-2.244,11.97
		c-1.497,3.491-3.514,6.465-6.048,8.915c-2.537,2.453-5.529,4.302-8.978,5.549c-3.45,1.247-7.128,1.87-11.035,1.87
		c-3.99,0-7.73-0.623-11.221-1.87c-3.491-1.247-6.505-3.096-9.04-5.549c-2.537-2.45-4.551-5.424-6.047-8.915
		c-1.497-3.491-2.245-7.48-2.245-11.97c0-4.488,0.748-8.479,2.245-11.97c1.496-3.491,3.51-6.44,6.047-8.853
		c2.535-2.41,5.549-4.239,9.04-5.486C196.366,169.742,200.106,169.118,204.096,169.118z M204.096,211.511
		c1.746,0,3.429-0.374,5.05-1.123c1.621-0.748,3.012-1.765,4.177-3.055c1.163-1.287,2.098-2.805,2.805-4.551
		c0.706-1.745,1.06-3.573,1.06-5.486c0-1.911-0.354-3.719-1.06-5.424c-0.707-1.702-1.642-3.22-2.805-4.551
		c-1.165-1.328-2.556-2.369-4.177-3.117c-1.621-0.748-3.304-1.122-5.05-1.122c-1.913,0-3.678,0.374-5.299,1.122
		c-1.621,0.748-3.014,1.789-4.177,3.117c-1.165,1.331-2.1,2.849-2.805,4.551c-0.707,1.705-1.06,3.513-1.06,5.424
		c0,1.913,0.353,3.741,1.06,5.486c0.705,1.746,1.641,3.264,2.805,4.551c1.163,1.29,2.556,2.307,4.177,3.055
		C200.418,211.137,202.183,211.511,204.096,211.511z M229.906,225.725c4.239,0,8.207,0.686,11.907,2.057
		c3.698,1.372,6.92,3.326,9.663,5.86c2.743,2.537,4.904,5.633,6.484,9.289c1.577,3.659,2.368,7.773,2.368,12.344
		c0,4.656-0.791,8.811-2.368,12.469c-1.58,3.657-3.741,6.774-6.484,9.352c-2.743,2.575-5.965,4.551-9.663,5.923
		c-3.7,1.371-7.668,2.057-11.907,2.057c-4.158,0-8.063-0.686-11.72-2.057c-3.659-1.372-6.858-3.348-9.601-5.923
		c-2.743-2.577-4.905-5.694-6.483-9.352c-1.58-3.658-2.369-7.813-2.369-12.469c0-4.57,0.789-8.685,2.369-12.344
		c1.578-3.656,3.74-6.752,6.483-9.289c2.743-2.534,5.942-4.488,9.601-5.86C221.843,226.411,225.748,225.725,229.906,225.725z
		 M229.906,270.986c2.16,0,4.177-0.437,6.047-1.31c1.871-0.873,3.511-2.017,4.926-3.429c1.412-1.414,2.513-3.076,3.304-4.987
		c0.789-1.911,1.185-3.906,1.185-5.985c0-2.076-0.396-4.052-1.185-5.922c-0.791-1.871-1.892-3.511-3.304-4.926
		c-1.415-1.412-3.055-2.534-4.926-3.366c-1.87-0.83-3.887-1.247-6.047-1.247c-2.078,0-4.053,0.417-5.922,1.247
		c-1.871,0.832-3.491,1.954-4.863,3.366c-1.372,1.415-2.453,3.055-3.242,4.926c-0.791,1.87-1.184,3.846-1.184,5.922
		c0,2.079,0.394,4.074,1.184,5.985c0.789,1.911,1.871,3.573,3.242,4.987c1.372,1.412,2.992,2.556,4.863,3.429
		C225.854,270.55,227.828,270.986,229.906,270.986z M248.11,228.967v-56.232h14.712v17.83h15.337v13.84h-15.337v24.563H248.11z"/>
	<path fill="#FFFFFF" d="M344.116,230.962c-7.481-1.163-13.737-3.241-18.765-6.234c-5.031-2.992-9.083-6.608-12.157-10.848
		c-2.911,4.239-6.839,7.855-11.782,10.848c-4.947,2.993-11.119,5.071-18.516,6.234V216c4.488-0.83,8.207-2.12,11.158-3.865
		c2.95-1.746,5.257-3.844,6.92-6.297c1.662-2.45,2.825-5.131,3.492-8.042c0.664-2.908,0.997-5.942,0.997-9.102v-15.96h14.837v15.96
		c0,3.159,0.395,6.193,1.186,9.102c0.789,2.911,2.098,5.592,3.928,8.042c1.826,2.453,4.279,4.551,7.355,6.297
		c3.074,1.745,6.857,3.035,11.347,3.865V230.962z M293.12,280.836v-40.647h14.713v26.808h67.204v13.84H293.12z M359.078,249.79
		v-46.882h-21.82v-13.84h21.82v-16.334h14.713v77.056H359.078z"/>
</g>
<g enable-background="new    ">
	<path fill="#FFFFFF" d="M146.641,313.516v17.804c-3.602,1.305-7.325,1.955-11.167,1.955c-8.679,0-14.34-3.396-16.981-10.188
		c-0.892-2.229-1.338-4.665-1.338-7.307c0-5.66,1.835-10.137,5.506-13.431c3.465-3.155,8.027-4.733,13.688-4.733
		c3.841,0,6.947,0.601,9.313,1.801l-1.543,5.249c-2.299-0.995-4.923-1.493-7.873-1.493c-3.877,0-6.939,1.106-9.185,3.319
		c-2.248,2.213-3.371,5.206-3.371,8.979c0,3.705,1.055,6.689,3.165,8.953c2.11,2.265,5.051,3.396,8.825,3.396
		c2.195,0,3.808-0.206,4.837-0.617v-8.388h-6.227v-5.3H146.641z"/>
	<path fill="#FFFFFF" d="M149.213,307.496h6.896l4.734,13.79l1.287,4.271l1.338-4.323l4.168-13.738h6.741l-6.535,17.598
		c-1.441,3.809-2.607,6.639-3.5,8.491c-1.613,3.396-3.345,5.883-5.197,7.461c-2.093,1.817-4.254,2.847-6.484,3.087l-1.543-5.506
		c1.612-0.378,3.069-1.115,4.374-2.212c1.303-1.098,2.298-2.333,2.985-3.705c0.206-0.445,0.309-0.737,0.309-0.875
		c0-0.206-0.086-0.548-0.257-1.029L149.213,307.496z"/>
	<path fill="#FFFFFF" d="M198.611,322.057h-16.621c0,1.888,0.721,3.414,2.161,4.58c1.338,1.099,3.139,1.646,5.403,1.646
		c2.367,0,4.665-0.394,6.895-1.184l1.081,4.683c-2.642,1.099-5.575,1.646-8.799,1.646c-3.911,0-7.016-1.14-9.314-3.422
		c-2.299-2.28-3.448-5.429-3.448-9.442c0-3.944,1.063-7.169,3.19-9.674c2.195-2.641,5.18-3.962,8.954-3.962
		c3.43,0,6.106,1.184,8.027,3.551c1.818,2.264,2.727,5.18,2.727,8.747C198.869,320.051,198.783,320.995,198.611,322.057z
		 M181.991,317.22h10.96c0-1.475-0.412-2.727-1.235-3.756c-0.926-1.235-2.264-1.853-4.014-1.853c-1.646,0-2.968,0.584-3.962,1.75
		C182.745,314.528,182.162,315.814,181.991,317.22z"/>
	<path fill="#FFFFFF" d="M214.614,333.481c-3.74,0-6.759-1.209-9.057-3.628c-2.299-2.418-3.448-5.565-3.448-9.442
		c0-4.014,1.158-7.255,3.474-9.725c2.315-2.471,5.429-3.705,9.339-3.705c3.773,0,6.792,1.201,9.057,3.602
		c2.265,2.401,3.396,5.523,3.396,9.365c0,4.014-1.166,7.273-3.499,9.777C221.543,332.229,218.456,333.481,214.614,333.481z
		 M214.614,328.593c2.058,0,3.67-0.926,4.837-2.778c0.96-1.577,1.441-3.447,1.441-5.608c0-2.195-0.463-4.048-1.39-5.558
		c-1.098-1.853-2.693-2.779-4.786-2.779c-2.127,0-3.756,0.927-4.888,2.779c-0.926,1.51-1.389,3.396-1.389,5.66
		c0,2.161,0.463,4.014,1.389,5.558C210.96,327.684,212.556,328.593,214.614,328.593z"/>
	<path fill="#FFFFFF" d="M232.315,332.916v-17.753c0-0.857-0.034-2.084-0.103-3.68c-0.07-1.595-0.104-2.924-0.104-3.987h5.455
		l0.309,3.499c1.646-2.676,4.305-4.014,7.976-4.014c2.95,0,5.197,1.08,6.741,3.241c1.475,1.922,2.213,4.46,2.213,7.616v15.077
		h-6.227v-14.048c0-4.323-1.596-6.484-4.786-6.484c-1.132,0-2.153,0.353-3.062,1.056c-0.909,0.703-1.553,1.587-1.93,2.649
		c-0.172,0.584-0.258,1.235-0.258,1.956v14.871H232.315z"/>
	<path fill="#FFFFFF" d="M283.823,314.957v14.202c0,5.352-1.27,9.159-3.808,11.424c-2.23,1.989-5.403,2.984-9.52,2.984
		c-3.602,0-6.535-0.704-8.799-2.11l1.439-5.042c2.265,1.338,4.684,2.007,7.256,2.007c4.803,0,7.204-2.316,7.204-6.947v-2.007
		c-1.544,2.23-3.979,3.345-7.307,3.345c-3.26,0-5.884-1.234-7.873-3.705c-1.853-2.367-2.778-5.266-2.778-8.696
		c0-3.67,0.978-6.792,2.933-9.365c2.127-2.709,4.957-4.064,8.491-4.064c3.361,0,5.729,1.201,7.101,3.602l0.411-3.087h5.506
		C283.908,309.245,283.823,311.732,283.823,314.957z M277.597,321.801v-3.962c0-0.721-0.086-1.269-0.257-1.646
		c-0.789-2.744-2.521-4.117-5.197-4.117c-2.059,0-3.637,0.909-4.734,2.728c-0.926,1.44-1.389,3.242-1.389,5.403
		c0,2.058,0.463,3.808,1.389,5.248c1.063,1.544,2.642,2.315,4.734,2.315c2.572,0,4.287-1.269,5.146-3.808
		C277.494,323.414,277.597,322.693,277.597,321.801z"/>
	<path fill="#FFFFFF" d="M312.484,307.496v21.869l0.258,3.551h-5.557l-0.258-3.5c-1.887,2.711-4.58,4.065-8.079,4.065
		c-5.832,0-8.747-3.688-8.747-11.063v-14.922h6.277v13.533c0,4.7,1.543,7.049,4.631,7.049c2.299,0,3.928-1.132,4.889-3.396
		c0.24-0.48,0.36-1.132,0.36-1.956v-15.23H312.484z"/>
	<path fill="#FFFFFF" d="M322.107,304.202c-1.064,0-1.93-0.325-2.6-0.978c-0.668-0.651-1.003-1.577-1.003-2.778
		c0-1.166,0.352-2.084,1.055-2.753s1.587-1.004,2.65-1.004s1.946,0.335,2.649,1.004s1.055,1.587,1.055,2.753
		s-0.368,2.084-1.105,2.753C324.07,303.868,323.17,304.202,322.107,304.202z M325.349,332.916h-6.278v-25.42h6.278V332.916z"/>
</g>
<g enable-background="new    ">
	<path fill="#FFFFFF" d="M83.246,365.143v-22.28h6.226v22.847c0,8.438-3.774,12.658-11.32,12.658c-2.127,0-3.911-0.291-5.352-0.875
		l0.771-5.3c1.475,0.378,2.796,0.566,3.962,0.566c2.229,0,3.773-0.721,4.631-2.161C82.885,369.501,83.246,367.682,83.246,365.143z"
		/>
	<path fill="#FFFFFF" d="M118.082,352.383v21.869l0.257,3.551h-5.557l-0.257-3.5c-1.887,2.711-4.58,4.065-8.079,4.065
		c-5.832,0-8.748-3.688-8.748-11.063v-14.922h6.278v13.533c0,4.7,1.543,7.049,4.631,7.049c2.298,0,3.927-1.132,4.888-3.396
		c0.24-0.48,0.36-1.132,0.36-1.956v-15.23H118.082z"/>
	<path fill="#FFFFFF" d="M124.719,377.802V360.05c0-0.857-0.035-2.084-0.103-3.68c-0.069-1.595-0.103-2.924-0.103-3.987h5.455
		l0.309,3.499c1.646-2.676,4.305-4.014,7.976-4.014c2.95,0,5.197,1.08,6.741,3.241c1.475,1.922,2.213,4.46,2.213,7.616v15.077
		h-6.227v-14.048c0-4.323-1.595-6.484-4.786-6.484c-1.132,0-2.153,0.353-3.062,1.056c-0.909,0.703-1.553,1.587-1.93,2.649
		c-0.172,0.584-0.257,1.235-0.257,1.956v14.871H124.719z"/>
	<path fill="#FFFFFF" d="M176.228,359.844v14.202c0,5.352-1.27,9.159-3.808,11.424c-2.23,1.989-5.403,2.984-9.52,2.984
		c-3.602,0-6.535-0.704-8.799-2.11l1.44-5.042c2.264,1.338,4.683,2.007,7.256,2.007c4.802,0,7.204-2.316,7.204-6.947v-2.007
		c-1.543,2.23-3.979,3.345-7.307,3.345c-3.26,0-5.884-1.234-7.873-3.705c-1.853-2.367-2.779-5.266-2.779-8.696
		c0-3.67,0.978-6.792,2.933-9.365c2.127-2.709,4.957-4.064,8.491-4.064c3.361,0,5.729,1.201,7.101,3.602l0.412-3.087h5.506
		C176.313,354.132,176.228,356.619,176.228,359.844z M170.001,366.687v-3.962c0-0.721-0.086-1.269-0.257-1.646
		c-0.79-2.744-2.521-4.117-5.197-4.117c-2.059,0-3.637,0.909-4.734,2.728c-0.926,1.44-1.389,3.242-1.389,5.403
		c0,2.058,0.463,3.808,1.389,5.248c1.063,1.544,2.642,2.315,4.734,2.315c2.573,0,4.288-1.269,5.146-3.808
		C169.898,368.301,170.001,367.58,170.001,366.687z"/>
	<path fill="#FFFFFF" d="M201.905,362.417v9.056c0,2.573,0.154,4.683,0.463,6.33h-5.763l-0.412-2.625
		c-1.75,2.128-4.186,3.19-7.307,3.19c-2.264,0-4.151-0.686-5.661-2.059c-1.51-1.371-2.264-3.207-2.264-5.506
		c0-3.67,1.715-6.329,5.146-7.976c2.504-1.166,5.677-1.749,9.52-1.749v-0.36c0-2.71-1.664-4.065-4.991-4.065
		c-2.47,0-4.7,0.669-6.689,2.007l-1.39-4.477c2.607-1.544,5.661-2.315,9.16-2.315C198.509,351.868,201.905,355.385,201.905,362.417z
		 M195.833,368.951v-3.345c-5.763,0-8.645,1.493-8.645,4.478c0,2.299,1.166,3.447,3.499,3.447c1.338,0,2.529-0.445,3.576-1.338
		C195.31,371.302,195.833,370.221,195.833,368.951z"/>
	<path fill="#FFFFFF" d="M208.285,377.802V360.05c0-0.857-0.035-2.084-0.103-3.68c-0.069-1.595-0.103-2.924-0.103-3.987h5.455
		l0.309,3.499c1.646-2.676,4.305-4.014,7.976-4.014c2.95,0,5.197,1.08,6.74,3.241c1.475,1.922,2.213,4.46,2.213,7.616v15.077h-6.226
		v-14.048c0-4.323-1.595-6.484-4.786-6.484c-1.132,0-2.153,0.353-3.062,1.056c-0.909,0.703-1.553,1.587-1.93,2.649
		c-0.172,0.584-0.257,1.235-0.257,1.956v14.871H208.285z"/>
	<path fill="#FFFFFF" d="M259.793,359.844v14.202c0,5.352-1.27,9.159-3.807,11.424c-2.23,1.989-5.404,2.984-9.521,2.984
		c-3.603,0-6.534-0.704-8.799-2.11l1.44-5.042c2.264,1.338,4.683,2.007,7.256,2.007c4.803,0,7.203-2.316,7.203-6.947v-2.007
		c-1.543,2.23-3.979,3.345-7.307,3.345c-3.26,0-5.883-1.234-7.873-3.705c-1.852-2.367-2.778-5.266-2.778-8.696
		c0-3.67,0.978-6.792,2.933-9.365c2.127-2.709,4.957-4.064,8.491-4.064c3.361,0,5.729,1.201,7.101,3.602l0.412-3.087h5.506
		C259.879,354.132,259.793,356.619,259.793,359.844z M253.566,366.687v-3.962c0-0.721-0.086-1.269-0.256-1.646
		c-0.79-2.744-2.521-4.117-5.197-4.117c-2.059,0-3.637,0.909-4.734,2.728c-0.927,1.44-1.39,3.242-1.39,5.403
		c0,2.058,0.463,3.808,1.39,5.248c1.063,1.544,2.641,2.315,4.734,2.315c2.572,0,4.287-1.269,5.145-3.808
		C253.465,368.301,253.566,367.58,253.566,366.687z"/>
	<path fill="#FFFFFF" d="M281.971,377.802v-34.939h6.227v29.433H302.4v5.507H281.971z"/>
	<path fill="#FFFFFF" d="M309.654,349.089c-1.063,0-1.93-0.325-2.598-0.978c-0.67-0.651-1.004-1.577-1.004-2.778
		c0-1.166,0.352-2.084,1.055-2.753s1.586-1.004,2.65-1.004c1.063,0,1.946,0.335,2.65,1.004c0.702,0.669,1.055,1.587,1.055,2.753
		s-0.369,2.084-1.106,2.753C311.618,348.755,310.718,349.089,309.654,349.089z M312.896,377.802h-6.277v-25.42h6.277V377.802z"/>
	<path fill="#FFFFFF" d="M319.432,377.802V360.05c0-0.857-0.035-2.084-0.104-3.68c-0.069-1.595-0.104-2.924-0.104-3.987h5.455
		l0.309,3.499c1.646-2.676,4.305-4.014,7.977-4.014c2.949,0,5.197,1.08,6.74,3.241c1.475,1.922,2.213,4.46,2.213,7.616v15.077
		h-6.227v-14.048c0-4.323-1.596-6.484-4.785-6.484c-1.133,0-2.153,0.353-3.063,1.056c-0.908,0.703-1.553,1.587-1.93,2.649
		c-0.172,0.584-0.257,1.235-0.257,1.956v14.871H319.432z"/>
	<path fill="#FFFFFF" d="M369.396,366.944h-16.62c0,1.888,0.721,3.414,2.16,4.58c1.338,1.099,3.14,1.646,5.404,1.646
		c2.366,0,4.664-0.394,6.895-1.184l1.08,4.683c-2.641,1.099-5.574,1.646-8.799,1.646c-3.91,0-7.016-1.14-9.313-3.422
		c-2.299-2.28-3.448-5.429-3.448-9.442c0-3.944,1.063-7.169,3.191-9.674c2.194-2.641,5.18-3.962,8.953-3.962
		c3.43,0,6.105,1.184,8.027,3.551c1.818,2.264,2.727,5.18,2.727,8.747C369.652,364.937,369.566,365.882,369.396,366.944z
		 M352.775,362.107h10.96c0-1.475-0.411-2.727-1.235-3.756c-0.926-1.235-2.264-1.853-4.014-1.853c-1.646,0-2.967,0.584-3.962,1.75
		S352.946,360.701,352.775,362.107z"/>
</g>
</svg>
