<?xml version="1.0" encoding="utf-8"?>
<!-- Generator: Adobe Illustrator 21.1.0, SVG Export Plug-In . SVG Version: 6.00 Build 0)  -->
<svg version="1.1" id="레이어_1" xmlns="http://www.w3.org/2000/svg" xmlns:xlink="http://www.w3.org/1999/xlink" x="0px"
	 y="0px" width="450px" height="450px" viewBox="0 0 450 450" style="enable-background:new 0 0 450 450;" xml:space="preserve">
<style type="text/css">
	.st0{fill:#FE5B10;}
	.st1{fill:#FFFFFF;}
</style>
<circle class="st0" cx="225" cy="225" r="225"/>
<g>
	<path class="st1" d="M135,346.2l12.1-40.7c18.8,11.6,39.3,17.5,61.5,17.5c15.2,0,27.6-3.5,37-10.4c11.4-7.8,17-18.4,17-32
		c0-14.7-6.4-26-19.1-34.1c-11.6-7.2-25.9-10.8-42.8-10.8h-22.9v-39.5h22.4c14.1,0,26.3-3,36.6-9.1c11.4-6.4,17-15.5,17-27.4
		c0-10.3-4.3-18.4-12.9-24.5c-7.5-5.3-17.2-7.9-29.1-7.9c-18.8,0-37.4,6-55.7,17.9l-12.1-39.1c20.2-14.4,46-21.6,77.3-21.6
		c22.4,0,41.4,5,56.9,15c18,12.8,27,30.2,27,52.4c0,31.6-13.9,52.2-41.6,61.9c11.1,2.5,22.4,10,33.9,22.7
		c11.5,12.6,17.2,28.1,17.2,46.3c0,27.4-11.2,48.8-33.7,64c-19.1,12.7-42.7,19.1-70.7,19.1C179.3,365.7,154.1,359.2,135,346.2z"/>
</g>
</svg>
