<?xml version="1.0" encoding="utf-8"?>
<!-- Generator: Adobe Illustrator 21.1.0, SVG Export Plug-In . SVG Version: 6.00 Build 0)  -->
<svg version="1.1" id="레이어_1" xmlns="http://www.w3.org/2000/svg" xmlns:xlink="http://www.w3.org/1999/xlink" x="0px"
	 y="0px" width="450px" height="450px" viewBox="0 0 450 450" style="enable-background:new 0 0 450 450;" xml:space="preserve">
<style type="text/css">
	.st0{fill:#F51361;}
	.st1{fill:#FFFFFF;}
</style>
<path class="st0" d="M450,225c0,124.3-100.7,225-225,225C100.7,450,0,349.3,0,225S100.7,0,225,0C349.3,0,450,100.7,450,225z"/>
<g>
	<path class="st1" d="M226.7,84.3c22.7,0,41.8,5.6,57.4,16.6c18.3,12.5,27.4,30.2,27.4,53.2c0,28.3-12.5,48.5-37.4,60.7
		c31.6,13.6,47.4,36.6,47.4,69c0,26.6-10.5,47.4-31.6,62.4c-17.5,13-39.6,19.5-66.5,19.5c-25.2,0-46.5-5.7-64-17
		c-20.5-14.1-30.8-33.5-30.8-58.2c0-33.3,15.4-56.8,46.1-70.7c-24.7-13-37-33.1-37-60.3c0-23.8,9.4-42.7,28.3-56.5
		C182.6,90.5,202.8,84.3,226.7,84.3z M225.4,327c13,0,23.8-3.5,32.2-10.4c8.4-6.9,12.7-16.5,12.7-28.7c0-23.3-16.8-39.6-50.3-49.1
		c-26.3,7.8-39.5,23.1-39.5,46.1c0,12.2,4.2,22.2,12.7,30.1C201.7,323.1,212.4,327,225.4,327z M226.2,122.1
		c-11.9,0-21.5,3.1-28.7,9.4c-7.2,6.2-10.8,15-10.8,26.4c0,18.8,14.5,32.4,43.6,40.7c9.7-3.3,17.7-8.5,23.9-15.6
		c6.2-7.1,9.4-15,9.4-23.9c0-10.8-3.3-19.7-10-26.6C247,125.6,237.9,122.1,226.2,122.1z"/>
</g>
</svg>
