<?xml version="1.0" encoding="utf-8"?>
<!-- Generator: Adobe Illustrator 21.1.0, SVG Export Plug-In . SVG Version: 6.00 Build 0)  -->
<svg version="1.1" id="레이어_1" xmlns="http://www.w3.org/2000/svg" xmlns:xlink="http://www.w3.org/1999/xlink" x="0px"
	 y="0px" width="450px" height="450px" viewBox="0 0 450 450" style="enable-background:new 0 0 450 450;" xml:space="preserve">
<style type="text/css">
	.st0{fill:#AA9872;}
	.st1{fill:#FFFFFF;}
</style>
<circle class="st0" cx="225" cy="225" r="225"/>
<g>
	<path class="st1" d="M151.6,365.1v-42.4H162c5.3,0,11.8-0.4,19.5-1.2c19.4,0,37.8-7.3,55.3-21.8c17.5-14.5,28-32.2,31.6-53
		c-13.3,14.1-32.6,21.2-57.8,21.2c-24.4,0-44.1-8-59.2-24.1c-15.1-16.1-22.7-36.4-22.7-61.1c0-28,9.3-51.3,27.8-70
		c18.6-18.7,41.6-28.1,69-28.1c31.3,0,55.4,11.6,72.3,34.9c15.5,21.3,23.3,48.5,23.3,81.5c0,54.6-15.8,96.8-47.4,126.8
		c-22.4,21.1-52.1,33.4-88.9,37c-5,0-9.7,0.1-14.1,0.4l-12.5,0.4C156.1,365.2,153.9,365.1,151.6,365.1z M222.7,125.2
		c-14.1,0-25.4,5.8-33.7,17.5c-6.7,10-10,22.3-10,37c0,13.9,3.5,24.9,10.4,33.3c8,9.4,19.1,14.1,33.2,14.1
		c19.7,0,34.4-7.5,44.1-22.4c1.9-2.8,2.9-6.9,2.9-12.5C269.7,147.6,254,125.2,222.7,125.2z"/>
</g>
</svg>
