<svg xmlns="http://www.w3.org/2000/svg" xml:space="preserve" width="450px" height="450px" x="0px" y="0px" viewBox="0 0 450 450"><circle cx="225" cy="225.003" r="225" fill="#BB8C00"/><path d="M142.25 151.423c0-29.5 6.554-48.346 19.665-59.818 13.11-11.062 33.597-15.16 62.276-15.16 53.262 0 78.255 21.716 78.255 76.207 0 27.041-7.786 59-38.923 63.507v.819c37.284 6.965 43.428 36.462 43.428 69.648 0 59.003-31.547 83.175-89.316 83.175-56.539 0-78.664-20.081-78.664-81.126h57.769c0 18.85-.819 39.336 24.174 39.336 26.22 0 28.269-24.174 28.269-44.252 0-41.379-13.52-43.839-53.67-43.839v-45.478c37.691 1.64 49.166-2.458 49.166-42.199 0-15.57-2.46-34.006-22.125-34.006-20.895 0-22.534 16.797-22.534 33.187h-57.77z"/></svg>