<?xml version="1.0" encoding="utf-8"?>
<!-- Generator: Adobe Illustrator 15.1.0, SVG Export Plug-In . SVG Version: 6.00 Build 0)  -->
<!DOCTYPE svg PUBLIC "-//W3C//DTD SVG 1.1//EN" "http://www.w3.org/Graphics/SVG/1.1/DTD/svg11.dtd">
<svg version="1.1" id="레이어_1" xmlns="http://www.w3.org/2000/svg" xmlns:xlink="http://www.w3.org/1999/xlink" x="0px"
	 y="0px" width="450px" height="450px" viewBox="0 0 450 450" enable-background="new 0 0 450 450" xml:space="preserve">
<ellipse fill="#E0A134" cx="224.793" cy="224.793" rx="224.793" ry="224.787"/>
<g enable-background="new    ">
	<path d="M50.532,194.135v-16.372h104.925v16.372h-43.28v22.494H94.382v-22.494H50.532z M55.088,240.405v-38.013h16.799v22.209
		h79.584v15.804H55.088z M55.23,167.511v-51.964H72.03v10.25h61.076v-10.25h16.799v51.964H55.23z M72.03,151.709h61.076v-10.678
		H72.03V151.709z"/>
	<path d="M255.541,181.179v-9.254h-78.445v-54.954h59.652v15.803H194.18v23.349h61.361v-39.151h16.799v17.511h17.512v15.803H272.34
		v30.895H255.541z M233.332,177.762c4.84,0,9.371,0.761,13.596,2.278c4.223,1.519,7.901,3.726,11.033,6.62
		c3.133,2.896,5.6,6.406,7.403,10.535c1.802,4.128,2.705,8.805,2.705,14.023c0,5.221-0.903,9.916-2.705,14.094
		c-1.804,4.176-4.271,7.71-7.403,10.606c-3.132,2.895-6.811,5.126-11.033,6.691c-4.225,1.566-8.756,2.35-13.596,2.35
		c-4.748,0-9.208-0.783-13.383-2.35c-4.178-1.565-7.83-3.797-10.962-6.691c-3.132-2.896-5.601-6.431-7.403-10.606
		c-1.804-4.178-2.705-8.873-2.705-14.094c0-5.219,0.901-9.896,2.705-14.023c1.802-4.129,4.271-7.64,7.403-10.535
		c3.132-2.895,6.785-5.102,10.962-6.62C224.124,178.523,228.584,177.762,233.332,177.762z M233.332,229.3
		c2.467,0,4.769-0.498,6.904-1.494c2.135-0.997,4.008-2.303,5.623-3.916c1.613-1.614,2.87-3.512,3.773-5.694
		c0.9-2.183,1.353-4.507,1.353-6.976c0-2.372-0.452-4.628-1.353-6.763c-0.903-2.136-2.16-4.033-3.773-5.695
		c-1.615-1.659-3.488-2.965-5.623-3.915c-2.136-0.947-4.438-1.424-6.904-1.424c-2.374,0-4.627,0.477-6.764,1.424
		c-2.135,0.95-3.986,2.256-5.552,3.915c-1.566,1.662-2.801,3.56-3.702,5.695c-0.903,2.135-1.353,4.391-1.353,6.763
		c0,2.469,0.449,4.793,1.353,6.976c0.901,2.183,2.136,4.08,3.702,5.694c1.566,1.613,3.417,2.919,5.552,3.916
		C228.705,228.802,230.958,229.3,233.332,229.3z"/>
	<path d="M365.162,183.457c-8.541-1.328-15.686-3.701-21.426-7.118c-5.744-3.417-10.371-7.546-13.881-12.386
		c-3.324,4.84-7.809,8.969-13.455,12.386c-5.647,3.417-12.695,5.79-21.141,7.118v-17.084c5.125-0.947,9.371-2.42,12.742-4.413
		c3.367-1.993,6.001-4.39,7.9-7.189c1.898-2.799,3.227-5.859,3.986-9.184c0.759-3.32,1.139-6.784,1.139-10.393v-18.223h16.942
		v18.223c0,3.608,0.45,7.072,1.353,10.393c0.9,3.324,2.396,6.385,4.484,9.184c2.088,2.8,4.887,5.196,8.4,7.189
		c3.51,1.993,7.83,3.466,12.955,4.413V183.457z M306.934,240.405v-46.413h16.799v30.609h76.738v15.804H306.934z M382.246,204.955
		v-53.53h-24.914v-15.804h24.914v-18.649h16.801v87.983H382.246z"/>
</g>
<g enable-background="new    ">
	<path d="M40.708,319.687v-42.33c3.037-0.633,6.749-0.949,11.136-0.949c5.272,0,9.322,0.96,12.149,2.879
		c2.826,1.92,4.239,4.63,4.239,8.131c0,4.556-2.004,7.572-6.011,9.048c5.02,1.435,7.53,4.999,7.53,10.693
		c0,8.648-6.517,12.972-19.552,12.972C46.824,320.131,43.66,319.983,40.708,319.687z M48.238,282.862v11.199h3.986
		c2.278,0,4.154-0.442,5.631-1.329c1.729-1.012,2.594-2.53,2.594-4.556c0-3.711-2.658-5.568-7.973-5.568
		C50.452,282.608,49.039,282.694,48.238,282.862z M48.238,300.135v13.541c0.59,0.127,1.876,0.189,3.86,0.189
		c6.454,0,9.681-2.298,9.681-6.896c0-2.404-1.034-4.176-3.1-5.315c-1.73-1.012-3.923-1.519-6.581-1.519H48.238z"/>
	<path d="M103.35,288.429v26.893l0.316,4.365h-6.833l-0.316-4.303c-2.32,3.333-5.631,4.999-9.934,4.999
		c-7.172,0-10.757-4.534-10.757-13.604v-18.351h7.72v16.642c0,5.78,1.898,8.669,5.695,8.669c2.826,0,4.83-1.393,6.011-4.177
		c0.295-0.59,0.443-1.392,0.443-2.404v-18.729H103.35z"/>
	<path d="M111.512,319.687v-21.829c0-1.055-0.043-2.563-0.127-4.524c-0.085-1.962-0.126-3.596-0.126-4.904h6.707l0.38,4.303
		c2.025-3.29,5.293-4.935,9.808-4.935c3.627,0,6.391,1.328,8.289,3.986c1.813,2.362,2.721,5.483,2.721,9.364v18.539h-7.656v-17.273
		c0-5.315-1.961-7.973-5.885-7.973c-1.392,0-2.647,0.433-3.765,1.297c-1.118,0.865-1.909,1.952-2.373,3.259
		c-0.212,0.718-0.316,1.519-0.316,2.404v18.286H111.512z"/>
	<path d="M167.572,274.446h7.72v36.446c0,3.417,0.104,6.35,0.316,8.795h-6.96l-0.253-4.365c-1.941,3.375-5.273,5.062-9.998,5.062
		c-4.135,0-7.425-1.603-9.871-4.809c-2.278-3.037-3.417-6.728-3.417-11.073c0-4.556,1.18-8.416,3.543-11.579
		c2.615-3.417,6.095-5.125,10.44-5.125c4.133,0,6.96,1.181,8.479,3.543V274.446z M167.572,306.21v-4.618
		c0-0.844-0.085-1.497-0.253-1.962c-0.844-3.585-3.059-5.379-6.644-5.379c-2.616,0-4.619,1.076-6.011,3.228
		c-1.139,1.771-1.708,4.028-1.708,6.771c0,2.657,0.569,4.852,1.708,6.58c1.307,1.983,3.269,2.975,5.885,2.975
		c1.729,0,3.195-0.496,4.397-1.487c1.202-0.99,1.993-2.31,2.373-3.955C167.487,307.728,167.572,307.011,167.572,306.21z"/>
	<path d="M206.929,300.768v11.137c0,3.164,0.189,5.758,0.569,7.782h-7.087l-0.506-3.227c-2.151,2.616-5.147,3.923-8.985,3.923
		c-2.784,0-5.104-0.843-6.96-2.531c-1.856-1.687-2.784-3.943-2.784-6.77c0-4.514,2.109-7.783,6.327-9.808
		c3.079-1.434,6.981-2.151,11.706-2.151v-0.443c0-3.332-2.046-4.999-6.138-4.999c-3.037,0-5.78,0.823-8.226,2.468l-1.708-5.505
		c3.205-1.898,6.96-2.847,11.263-2.847C202.753,287.798,206.929,292.122,206.929,300.768z M199.462,308.804v-4.113
		c-7.086,0-10.63,1.835-10.63,5.505c0,2.827,1.434,4.24,4.303,4.24c1.645,0,3.11-0.548,4.397-1.646
		C198.819,311.694,199.462,310.366,199.462,308.804z"/>
	<path d="M214.775,319.687v-21.829c0-1.055-0.042-2.563-0.127-4.524c-0.085-1.962-0.126-3.596-0.126-4.904h6.707l0.38,4.303
		c2.025-3.29,5.294-4.935,9.808-4.935c3.627,0,6.391,1.328,8.289,3.986c1.813,2.362,2.721,5.483,2.721,9.364v18.539h-7.656v-17.273
		c0-5.315-1.961-7.973-5.885-7.973c-1.392,0-2.647,0.433-3.765,1.297c-1.118,0.865-1.909,1.952-2.373,3.259
		c-0.212,0.718-0.316,1.519-0.316,2.404v18.286H214.775z"/>
	<path d="M278.112,297.605v17.464c0,6.58-1.562,11.263-4.683,14.047c-2.742,2.445-6.644,3.67-11.705,3.67
		c-4.43,0-8.037-0.865-10.82-2.595l1.771-6.201c2.784,1.646,5.758,2.468,8.922,2.468c5.905,0,8.858-2.847,8.858-8.542v-2.468
		c-1.898,2.743-4.894,4.113-8.985,4.113c-4.008,0-7.234-1.519-9.682-4.556c-2.277-2.911-3.416-6.475-3.416-10.693
		c0-4.514,1.202-8.353,3.606-11.517c2.615-3.332,6.095-4.998,10.44-4.998c4.134,0,7.045,1.477,8.732,4.429l0.506-3.797h6.771
		C278.217,290.581,278.112,293.64,278.112,297.605z M270.456,306.02v-4.872c0-0.886-0.106-1.561-0.316-2.024
		c-0.972-3.375-3.101-5.063-6.392-5.063c-2.53,0-4.471,1.118-5.82,3.354c-1.139,1.771-1.709,3.986-1.709,6.644
		c0,2.531,0.57,4.683,1.709,6.454c1.307,1.898,3.248,2.848,5.82,2.848c3.164,0,5.273-1.56,6.328-4.683
		C270.329,308.004,270.456,307.118,270.456,306.02z"/>
	<path d="M305.384,319.687v-42.963h7.656v36.193h17.464v6.77H305.384z"/>
	<path d="M339.425,284.381c-1.309,0-2.373-0.4-3.195-1.202c-0.823-0.801-1.234-1.94-1.234-3.417c0-1.434,0.433-2.563,1.298-3.386
		c0.863-0.822,1.95-1.233,3.258-1.233s2.394,0.411,3.259,1.233c0.864,0.823,1.298,1.952,1.298,3.386
		c0,1.435-0.454,2.563-1.361,3.385C341.839,283.969,340.731,284.381,339.425,284.381z M343.411,319.687h-7.72v-31.258h7.72V319.687z
		"/>
	<path d="M351.446,319.687v-21.829c0-1.055-0.043-2.563-0.127-4.524c-0.085-1.962-0.126-3.596-0.126-4.904h6.707l0.379,4.303
		c2.025-3.29,5.294-4.935,9.808-4.935c3.628,0,6.392,1.328,8.289,3.986c1.813,2.362,2.722,5.483,2.722,9.364v18.539h-7.656v-17.273
		c0-5.315-1.962-7.973-5.885-7.973c-1.393,0-2.647,0.433-3.765,1.297c-1.119,0.865-1.909,1.952-2.373,3.259
		c-0.212,0.718-0.316,1.519-0.316,2.404v18.286H351.446z"/>
	<path d="M412.887,306.337h-20.438c0,2.32,0.886,4.198,2.658,5.632c1.645,1.351,3.859,2.024,6.644,2.024
		c2.91,0,5.736-0.484,8.479-1.455l1.329,5.758c-3.249,1.351-6.855,2.024-10.82,2.024c-4.809,0-8.627-1.401-11.452-4.207
		c-2.827-2.806-4.24-6.676-4.24-11.611c0-4.851,1.308-8.816,3.924-11.896c2.698-3.248,6.368-4.872,11.01-4.872
		c4.218,0,7.508,1.455,9.87,4.365c2.235,2.784,3.354,6.37,3.354,10.757C413.202,303.869,413.097,305.03,412.887,306.337z
		 M392.448,300.388h13.478c0-1.813-0.506-3.354-1.519-4.618c-1.139-1.52-2.784-2.278-4.936-2.278c-2.024,0-3.648,0.718-4.872,2.151
		C393.376,297.078,392.659,298.66,392.448,300.388z"/>
</g>
</svg>
