<?xml version="1.0" encoding="UTF-8"?>
<svg id="_레이어_1" xmlns="http://www.w3.org/2000/svg" version="1.1" viewBox="0 0 32 32">
  <!-- Generator: Adobe Illustrator 29.0.0, SVG Export Plug-In . SVG Version: 2.1.0 Build 186)  -->
  <defs>
    <style>
      .st0 {
        fill: #643691;
      }

      .st1 {
        font-family: BMJUAOTF-KSCpc-EUC-H, 'BM Jua';
        font-size: 5.59px;
      }

      .st2 {
        fill: #623490;
      }
    </style>
  </defs>
  <g>
    <path class="st2" d="M27.4,12.28c0,.48-.08.95-.2,1.41-.03.14-.07.17-.22.11-1.32-.6-2.65-1.19-3.97-1.79-.5-.23-.92.02-1.11.37-.12.21-.09.43-.03.65.36,1.18.72,2.35,1.09,3.53.09.28.17.56.26.84.03.1.03.14-.1.17-1.61.33-3.1.03-4.42-.96-1.27-.95-1.97-2.23-2.15-3.8-.3-2.72,1.54-5.25,4.22-5.84,3.17-.7,6.23,1.48,6.58,4.7.02.21.03.42.05.63,0,0,0-.02,0-.02Z"/>
    <path class="st2" d="M5.8,10.14v7.53c0,.5-.25.89-.67,1-.69.18-1.26-.19-1.26-.91-.02-3.37,0-6.75,0-10.12,0-.47.27-.73.67-.89.51-.21,1.02-.15,1.52.07.2.09.32.25.41.44.88,1.72,1.77,3.44,2.65,5.16.02.05.05.09.09.16.05-.09.09-.16.13-.23.86-1.66,1.72-3.32,2.59-4.98.33-.64.83-.89,1.55-.74.36.07.69.21.95.5.13.15.2.32.2.51v10.03c0,.28-.08.52-.25.73-.24.3-.69.39-1.11.25-.35-.12-.61-.49-.61-.9v-2.06c.02-1.82.04-3.65.06-5.47,0-.04,0-.08-.03-.13-.03.05-.06.1-.09.16-.85,1.62-1.69,3.24-2.54,4.86-.13.26-.28.5-.61.56-.51.08-.82-.06-1.05-.53-.83-1.62-1.65-3.24-2.47-4.86-.03-.05-.05-.1-.08-.15h-.05Z"/>
    <path class="st0" d="M28.43,12.42c0,.48-.09,1.11-.27,1.73-.03.12-.08.15-.19.09-.14-.08-.36-.11-.42-.23-.05-.1.06-.29.09-.45.39-1.85.03-3.54-1.18-5.01-1.33-1.62-3.09-2.34-5.16-2.09-2.26.27-3.89,1.5-4.73,3.61-.86,2.14-.5,4.17.97,5.95.93,1.13,2.15,1.76,3.59,1.98.72.11,1.42.07,2.13-.08.1-.02.14-.01.16.09.02.11.05.23.1.33.09.17.02.2-.13.23-.48.1-.97.14-1.47.14-2.96.01-5.67-2.12-6.28-5.15-.69-3.46,1.38-6.57,4.47-7.5,3.77-1.14,7.67,1.33,8.26,5.22.05.33.07.65.07,1.14h0Z"/>
    <path class="st2" d="M28.33,16.4c-.16-.01-.36-.09-.54-.21-.37-.23-.4-.23-.73.04-.56.48-1.11.96-1.67,1.44-.07.06-.06.13-.04.21.05.16.12.31.17.47.1.3.13.6-.09.87-.2.25-.47.34-.79.27-.3-.06-.46-.28-.54-.55-.41-1.33-.81-2.66-1.21-3.99-.14-.45-.27-.9-.41-1.34-.11-.33-.06-.63.21-.86.28-.23.58-.27.91-.11,1.62.73,3.23,1.46,4.85,2.18.15.07.31.13.44.24.26.22.33.54.21.86-.12.3-.4.49-.79.48,0,0,.02,0,.02,0ZM24.24,14.45s-.02.04-.01.04c.21.62.41,1.23.62,1.85.03.08.06.07.11.02.35-.31.7-.62,1.06-.93.08-.07.07-.1-.02-.15-.2-.09-.4-.19-.6-.29-.38-.18-.77-.37-1.15-.55h-.01Z"/>
  </g>
  <text class="st1" transform="translate(2.24 24.41)"><tspan x="0" y="0">MOA GUIDE</tspan></text>
</svg>