<svg width="44" height="48" viewBox="0 0 44 48" fill="none" xmlns="http://www.w3.org/2000/svg">
<g id="BookmarkSimple">
<g id="Vector" filter="url(#filter0_d_110_2832)">
<path d="M33 38.5L21.9987 31.625L11 38.5V8.25C11 7.88533 11.1449 7.53559 11.4027 7.27773C11.6606 7.01987 12.0103 6.875 12.375 6.875H31.625C31.9897 6.875 32.3394 7.01987 32.5973 7.27773C32.8551 7.53559 33 7.88533 33 8.25V38.5Z" fill="#6F36E8"/>
<path d="M33 38.5L21.9987 31.625L11 38.5V8.25C11 7.88533 11.1449 7.53559 11.4027 7.27773C11.6606 7.01987 12.0103 6.875 12.375 6.875H31.625C31.9897 6.875 32.3394 7.01987 32.5973 7.27773C32.8551 7.53559 33 7.88533 33 8.25V38.5Z" stroke="#6F36E8" stroke-width="2" stroke-linecap="round" stroke-linejoin="round"/>
</g>
</g>
<defs>
<filter id="filter0_d_110_2832" x="6" y="5.875" width="32" height="41.625" filterUnits="userSpaceOnUse" color-interpolation-filters="sRGB">
<feFlood flood-opacity="0" result="BackgroundImageFix"/>
<feColorMatrix in="SourceAlpha" type="matrix" values="0 0 0 0 0 0 0 0 0 0 0 0 0 0 0 0 0 0 127 0" result="hardAlpha"/>
<feOffset dy="4"/>
<feGaussianBlur stdDeviation="2"/>
<feComposite in2="hardAlpha" operator="out"/>
<feColorMatrix type="matrix" values="0 0 0 0 0 0 0 0 0 0 0 0 0 0 0 0 0 0 0.2 0"/>
<feBlend mode="normal" in2="BackgroundImageFix" result="effect1_dropShadow_110_2832"/>
<feBlend mode="normal" in="SourceGraphic" in2="effect1_dropShadow_110_2832" result="shape"/>
</filter>
</defs>
</svg>
