<svg width="32" height="32" viewBox="0 0 32 32" fill="none" xmlns="http://www.w3.org/2000/svg">
<g id="Clapper board">
<g id="Rectangle 858">
<path d="M4.14453 16.9688C4.14453 16.8307 4.25646 16.7188 4.39453 16.7188H25.1735C25.3116 16.7188 25.4235 16.8307 25.4235 16.9688V27.9726C25.4235 29.0219 24.5729 29.8726 23.5235 29.8726H6.04453C4.99519 29.8726 4.14453 29.0219 4.14453 27.9726V16.9688Z" fill="url(#paint0_linear_59_41396)"/>
<path d="M4.14453 16.9688C4.14453 16.8307 4.25646 16.7188 4.39453 16.7188H25.1735C25.3116 16.7188 25.4235 16.8307 25.4235 16.9688V27.9726C25.4235 29.0219 24.5729 29.8726 23.5235 29.8726H6.04453C4.99519 29.8726 4.14453 29.0219 4.14453 27.9726V16.9688Z" fill="url(#paint1_linear_59_41396)"/>
<path d="M4.14453 16.9688C4.14453 16.8307 4.25646 16.7188 4.39453 16.7188H25.1735C25.3116 16.7188 25.4235 16.8307 25.4235 16.9688V27.9726C25.4235 29.0219 24.5729 29.8726 23.5235 29.8726H6.04453C4.99519 29.8726 4.14453 29.0219 4.14453 27.9726V16.9688Z" fill="url(#paint2_linear_59_41396)"/>
</g>
<g id="Rectangle 857">
<path d="M6.64453 16.9688C6.64453 16.8307 6.75646 16.7188 6.89453 16.7188H27.6735C27.8116 16.7188 27.9235 16.8307 27.9235 16.9688V27.9726C27.9235 29.0219 27.0729 29.8726 26.0235 29.8726H8.54453C7.49519 29.8726 6.64453 29.0219 6.64453 27.9726V16.9688Z" fill="url(#paint3_linear_59_41396)"/>
<path d="M6.64453 16.9688C6.64453 16.8307 6.75646 16.7188 6.89453 16.7188H27.6735C27.8116 16.7188 27.9235 16.8307 27.9235 16.9688V27.9726C27.9235 29.0219 27.0729 29.8726 26.0235 29.8726H8.54453C7.49519 29.8726 6.64453 29.0219 6.64453 27.9726V16.9688Z" fill="url(#paint4_linear_59_41396)"/>
<path d="M6.64453 16.9688C6.64453 16.8307 6.75646 16.7188 6.89453 16.7188H27.6735C27.8116 16.7188 27.9235 16.8307 27.9235 16.9688V27.9726C27.9235 29.0219 27.0729 29.8726 26.0235 29.8726H8.54453C7.49519 29.8726 6.64453 29.0219 6.64453 27.9726V16.9688Z" fill="url(#paint5_radial_59_41396)"/>
<path d="M6.64453 16.9688C6.64453 16.8307 6.75646 16.7188 6.89453 16.7188H27.6735C27.8116 16.7188 27.9235 16.8307 27.9235 16.9688V27.9726C27.9235 29.0219 27.0729 29.8726 26.0235 29.8726H8.54453C7.49519 29.8726 6.64453 29.0219 6.64453 27.9726V16.9688Z" fill="url(#paint6_linear_59_41396)"/>
<path d="M6.64453 16.9688C6.64453 16.8307 6.75646 16.7188 6.89453 16.7188H27.6735C27.8116 16.7188 27.9235 16.8307 27.9235 16.9688V27.9726C27.9235 29.0219 27.0729 29.8726 26.0235 29.8726H8.54453C7.49519 29.8726 6.64453 29.0219 6.64453 27.9726V16.9688Z" fill="url(#paint7_radial_59_41396)"/>
<path d="M6.64453 16.9688C6.64453 16.8307 6.75646 16.7188 6.89453 16.7188H27.6735C27.8116 16.7188 27.9235 16.8307 27.9235 16.9688V27.9726C27.9235 29.0219 27.0729 29.8726 26.0235 29.8726H8.54453C7.49519 29.8726 6.64453 29.0219 6.64453 27.9726V16.9688Z" fill="url(#paint8_linear_59_41396)"/>
<path d="M6.64453 16.9688C6.64453 16.8307 6.75646 16.7188 6.89453 16.7188H27.6735C27.8116 16.7188 27.9235 16.8307 27.9235 16.9688V27.9726C27.9235 29.0219 27.0729 29.8726 26.0235 29.8726H8.54453C7.49519 29.8726 6.64453 29.0219 6.64453 27.9726V16.9688Z" fill="url(#paint9_radial_59_41396)"/>
<path d="M6.64453 16.9688C6.64453 16.8307 6.75646 16.7188 6.89453 16.7188H27.6735C27.8116 16.7188 27.9235 16.8307 27.9235 16.9688V27.9726C27.9235 29.0219 27.0729 29.8726 26.0235 29.8726H8.54453C7.49519 29.8726 6.64453 29.0219 6.64453 27.9726V16.9688Z" fill="url(#paint10_radial_59_41396)"/>
<path d="M6.64453 16.9688C6.64453 16.8307 6.75646 16.7188 6.89453 16.7188H27.6735C27.8116 16.7188 27.9235 16.8307 27.9235 16.9688V27.9726C27.9235 29.0219 27.0729 29.8726 26.0235 29.8726H8.54453C7.49519 29.8726 6.64453 29.0219 6.64453 27.9726V16.9688Z" fill="url(#paint11_linear_59_41396)"/>
</g>
<g id="Rectangle 860">
<path d="M4.14453 13.1328C4.14453 12.9947 4.25646 12.8828 4.39453 12.8828H25.1735C25.3116 12.8828 25.4235 12.9947 25.4235 13.1328V16.4693C25.4235 16.6074 25.3116 16.7193 25.1735 16.7193H4.39453C4.25646 16.7193 4.14453 16.6074 4.14453 16.4693V13.1328Z" fill="url(#paint12_linear_59_41396)"/>
<path d="M4.14453 13.1328C4.14453 12.9947 4.25646 12.8828 4.39453 12.8828H25.1735C25.3116 12.8828 25.4235 12.9947 25.4235 13.1328V16.4693C25.4235 16.6074 25.3116 16.7193 25.1735 16.7193H4.39453C4.25646 16.7193 4.14453 16.6074 4.14453 16.4693V13.1328Z" fill="url(#paint13_linear_59_41396)"/>
</g>
<g id="Rectangle 859">
<path d="M6.64453 13.1328C6.64453 12.9947 6.75646 12.8828 6.89453 12.8828H27.6735C27.8116 12.8828 27.9235 12.9947 27.9235 13.1328V16.4693C27.9235 16.6074 27.8116 16.7193 27.6735 16.7193H6.89453C6.75646 16.7193 6.64453 16.6074 6.64453 16.4693V13.1328Z" fill="url(#paint14_linear_59_41396)"/>
<path d="M6.64453 13.1328C6.64453 12.9947 6.75646 12.8828 6.89453 12.8828H27.6735C27.8116 12.8828 27.9235 12.9947 27.9235 13.1328V16.4693C27.9235 16.6074 27.8116 16.7193 27.6735 16.7193H6.89453C6.75646 16.7193 6.64453 16.6074 6.64453 16.4693V13.1328Z" fill="url(#paint15_linear_59_41396)"/>
<path d="M6.64453 13.1328C6.64453 12.9947 6.75646 12.8828 6.89453 12.8828H27.6735C27.8116 12.8828 27.9235 12.9947 27.9235 13.1328V16.4693C27.9235 16.6074 27.8116 16.7193 27.6735 16.7193H6.89453C6.75646 16.7193 6.64453 16.6074 6.64453 16.4693V13.1328Z" fill="url(#paint16_linear_59_41396)"/>
<path d="M6.64453 13.1328C6.64453 12.9947 6.75646 12.8828 6.89453 12.8828H27.6735C27.8116 12.8828 27.9235 12.9947 27.9235 13.1328V16.4693C27.9235 16.6074 27.8116 16.7193 27.6735 16.7193H6.89453C6.75646 16.7193 6.64453 16.6074 6.64453 16.4693V13.1328Z" fill="url(#paint17_linear_59_41396)"/>
<path d="M6.64453 13.1328C6.64453 12.9947 6.75646 12.8828 6.89453 12.8828H27.6735C27.8116 12.8828 27.9235 12.9947 27.9235 13.1328V16.4693C27.9235 16.6074 27.8116 16.7193 27.6735 16.7193H6.89453C6.75646 16.7193 6.64453 16.6074 6.64453 16.4693V13.1328Z" fill="url(#paint18_linear_59_41396)"/>
</g>
<g id="Rectangle 862">
<path d="M3.66604 9.82791C3.38886 8.75869 4.03094 7.66721 5.10016 7.39002L22.4185 2.90042C23.4878 2.62323 24.5793 3.26531 24.8564 4.33454L25.3336 6.17532C25.3683 6.30897 25.288 6.44541 25.1544 6.48006L4.44799 11.848C4.31433 11.8826 4.1779 11.8024 4.14325 11.6687L3.66604 9.82791Z" fill="url(#paint19_linear_59_41396)"/>
<path d="M3.66604 9.82791C3.38886 8.75869 4.03094 7.66721 5.10016 7.39002L22.4185 2.90042C23.4878 2.62323 24.5793 3.26531 24.8564 4.33454L25.3336 6.17532C25.3683 6.30897 25.288 6.44541 25.1544 6.48006L4.44799 11.848C4.31433 11.8826 4.1779 11.8024 4.14325 11.6687L3.66604 9.82791Z" fill="url(#paint20_linear_59_41396)"/>
</g>
<g id="Rectangle 861">
<path d="M5.75979 9.28495C5.48261 8.21572 6.12469 7.12424 7.19391 6.84705L24.5123 2.35745C25.5815 2.08027 26.673 2.72234 26.9502 3.79157L27.4274 5.63235C27.462 5.766 27.3818 5.90244 27.2481 5.93709L6.54174 11.305C6.40808 11.3396 6.27165 11.2594 6.237 11.1257L5.75979 9.28495Z" fill="url(#paint21_linear_59_41396)"/>
<path d="M5.75979 9.28495C5.48261 8.21572 6.12469 7.12424 7.19391 6.84705L24.5123 2.35745C25.5815 2.08027 26.673 2.72234 26.9502 3.79157L27.4274 5.63235C27.462 5.766 27.3818 5.90244 27.2481 5.93709L6.54174 11.305C6.40808 11.3396 6.27165 11.2594 6.237 11.1257L5.75979 9.28495Z" fill="url(#paint22_linear_59_41396)"/>
<path d="M5.75979 9.28495C5.48261 8.21572 6.12469 7.12424 7.19391 6.84705L24.5123 2.35745C25.5815 2.08027 26.673 2.72234 26.9502 3.79157L27.4274 5.63235C27.462 5.766 27.3818 5.90244 27.2481 5.93709L6.54174 11.305C6.40808 11.3396 6.27165 11.2594 6.237 11.1257L5.75979 9.28495Z" fill="url(#paint23_radial_59_41396)"/>
<path d="M5.75979 9.28495C5.48261 8.21572 6.12469 7.12424 7.19391 6.84705L24.5123 2.35745C25.5815 2.08027 26.673 2.72234 26.9502 3.79157L27.4274 5.63235C27.462 5.766 27.3818 5.90244 27.2481 5.93709L6.54174 11.305C6.40808 11.3396 6.27165 11.2594 6.237 11.1257L5.75979 9.28495Z" fill="url(#paint24_linear_59_41396)"/>
<path d="M5.75979 9.28495C5.48261 8.21572 6.12469 7.12424 7.19391 6.84705L24.5123 2.35745C25.5815 2.08027 26.673 2.72234 26.9502 3.79157L27.4274 5.63235C27.462 5.766 27.3818 5.90244 27.2481 5.93709L6.54174 11.305C6.40808 11.3396 6.27165 11.2594 6.237 11.1257L5.75979 9.28495Z" fill="url(#paint25_linear_59_41396)"/>
<path d="M5.75979 9.28495C5.48261 8.21572 6.12469 7.12424 7.19391 6.84705L24.5123 2.35745C25.5815 2.08027 26.673 2.72234 26.9502 3.79157L27.4274 5.63235C27.462 5.766 27.3818 5.90244 27.2481 5.93709L6.54174 11.305C6.40808 11.3396 6.27165 11.2594 6.237 11.1257L5.75979 9.28495Z" fill="url(#paint26_radial_59_41396)"/>
<path d="M5.75979 9.28495C5.48261 8.21572 6.12469 7.12424 7.19391 6.84705L24.5123 2.35745C25.5815 2.08027 26.673 2.72234 26.9502 3.79157L27.4274 5.63235C27.462 5.766 27.3818 5.90244 27.2481 5.93709L6.54174 11.305C6.40808 11.3396 6.27165 11.2594 6.237 11.1257L5.75979 9.28495Z" fill="url(#paint27_radial_59_41396)"/>
<path d="M5.75979 9.28495C5.48261 8.21572 6.12469 7.12424 7.19391 6.84705L24.5123 2.35745C25.5815 2.08027 26.673 2.72234 26.9502 3.79157L27.4274 5.63235C27.462 5.766 27.3818 5.90244 27.2481 5.93709L6.54174 11.305C6.40808 11.3396 6.27165 11.2594 6.237 11.1257L5.75979 9.28495Z" fill="url(#paint28_linear_59_41396)"/>
<path d="M5.75979 9.28495C5.48261 8.21572 6.12469 7.12424 7.19391 6.84705L24.5123 2.35745C25.5815 2.08027 26.673 2.72234 26.9502 3.79157L27.4274 5.63235C27.462 5.766 27.3818 5.90244 27.2481 5.93709L6.54174 11.305C6.40808 11.3396 6.27165 11.2594 6.237 11.1257L5.75979 9.28495Z" fill="url(#paint29_linear_59_41396)"/>
</g>
<g id="Intersect">
<path d="M15.7517 8.91815L11.0471 10.1378C10.962 9.98608 10.8426 9.89359 10.77 9.83737L10.7575 9.82767C9.68457 8.99173 7.47937 7.27768 7.24187 7.10892C7.09119 7.00186 6.98073 6.95834 6.91016 6.94479C7.00182 6.90561 7.09758 6.87277 7.19702 6.84698L11.6093 5.70312C11.7308 5.74963 11.8246 5.81586 11.8903 5.86673C12.3167 6.19666 12.9424 6.67612 13.5445 7.13754C14.3729 7.7724 15.1568 8.37314 15.3161 8.50345C15.5828 8.70093 15.6963 8.83105 15.7517 8.91815Z" fill="#CDCDFF"/>
<path d="M15.7517 8.91815L11.0471 10.1378C10.962 9.98608 10.8426 9.89359 10.77 9.83737L10.7575 9.82767C9.68457 8.99173 7.47937 7.27768 7.24187 7.10892C7.09119 7.00186 6.98073 6.95834 6.91016 6.94479C7.00182 6.90561 7.09758 6.87277 7.19702 6.84698L11.6093 5.70312C11.7308 5.74963 11.8246 5.81586 11.8903 5.86673C12.3167 6.19666 12.9424 6.67612 13.5445 7.13754C14.3729 7.7724 15.1568 8.37314 15.3161 8.50345C15.5828 8.70093 15.6963 8.83105 15.7517 8.91815Z" fill="url(#paint30_linear_59_41396)"/>
<path d="M15.7517 8.91815L11.0471 10.1378C10.962 9.98608 10.8426 9.89359 10.77 9.83737L10.7575 9.82767C9.68457 8.99173 7.47937 7.27768 7.24187 7.10892C7.09119 7.00186 6.98073 6.95834 6.91016 6.94479C7.00182 6.90561 7.09758 6.87277 7.19702 6.84698L11.6093 5.70312C11.7308 5.74963 11.8246 5.81586 11.8903 5.86673C12.3167 6.19666 12.9424 6.67612 13.5445 7.13754C14.3729 7.7724 15.1568 8.37314 15.3161 8.50345C15.5828 8.70093 15.6963 8.83105 15.7517 8.91815Z" fill="url(#paint31_linear_59_41396)"/>
<path d="M15.7517 8.91815L11.0471 10.1378C10.962 9.98608 10.8426 9.89359 10.77 9.83737L10.7575 9.82767C9.68457 8.99173 7.47937 7.27768 7.24187 7.10892C7.09119 7.00186 6.98073 6.95834 6.91016 6.94479C7.00182 6.90561 7.09758 6.87277 7.19702 6.84698L11.6093 5.70312C11.7308 5.74963 11.8246 5.81586 11.8903 5.86673C12.3167 6.19666 12.9424 6.67612 13.5445 7.13754C14.3729 7.7724 15.1568 8.37314 15.3161 8.50345C15.5828 8.70093 15.6963 8.83105 15.7517 8.91815Z" fill="url(#paint32_linear_59_41396)"/>
</g>
<g id="Intersect_2">
<path d="M25.1304 6.48938L20.4119 7.71259C20.3184 7.54248 20.184 7.41263 20.1076 7.35577C19.0764 6.56149 16.9482 4.92139 16.6857 4.71515C16.5344 4.59622 16.3878 4.53046 16.2734 4.49658L20.9954 3.27246C21.1733 3.35965 21.3258 3.47839 21.4538 3.57812L21.4592 3.58234C22.4957 4.38962 24.6311 6.04794 24.8811 6.22296C25.0229 6.32227 25.0961 6.41623 25.1304 6.48938Z" fill="#CDCDFF"/>
<path d="M25.1304 6.48938L20.4119 7.71259C20.3184 7.54248 20.184 7.41263 20.1076 7.35577C19.0764 6.56149 16.9482 4.92139 16.6857 4.71515C16.5344 4.59622 16.3878 4.53046 16.2734 4.49658L20.9954 3.27246C21.1733 3.35965 21.3258 3.47839 21.4538 3.57812L21.4592 3.58234C22.4957 4.38962 24.6311 6.04794 24.8811 6.22296C25.0229 6.32227 25.0961 6.41623 25.1304 6.48938Z" fill="url(#paint33_linear_59_41396)"/>
<path d="M25.1304 6.48938L20.4119 7.71259C20.3184 7.54248 20.184 7.41263 20.1076 7.35577C19.0764 6.56149 16.9482 4.92139 16.6857 4.71515C16.5344 4.59622 16.3878 4.53046 16.2734 4.49658L20.9954 3.27246C21.1733 3.35965 21.3258 3.47839 21.4538 3.57812L21.4592 3.58234C22.4957 4.38962 24.6311 6.04794 24.8811 6.22296C25.0229 6.32227 25.0961 6.41623 25.1304 6.48938Z" fill="url(#paint34_linear_59_41396)"/>
<path d="M25.1304 6.48938L20.4119 7.71259C20.3184 7.54248 20.184 7.41263 20.1076 7.35577C19.0764 6.56149 16.9482 4.92139 16.6857 4.71515C16.5344 4.59622 16.3878 4.53046 16.2734 4.49658L20.9954 3.27246C21.1733 3.35965 21.3258 3.47839 21.4538 3.57812L21.4592 3.58234C22.4957 4.38962 24.6311 6.04794 24.8811 6.22296C25.0229 6.32227 25.0961 6.41623 25.1304 6.48938Z" fill="url(#paint35_linear_59_41396)"/>
</g>
<g id="Intersect_3">
<path d="M7.98047 16.7193C8.05826 16.6768 8.15375 16.6061 8.25632 16.4932C8.4623 16.2666 10.1617 14.2589 10.9856 13.2833C11.0436 13.2067 11.1486 13.0388 11.1863 12.8828H16.1086C16.057 12.9983 15.9697 13.1635 15.8177 13.3519C15.6461 13.5648 13.9724 15.5348 13.1571 16.4932C13.1096 16.5491 13.0139 16.6349 12.8997 16.7193H7.98047Z" fill="#CDCDFF"/>
<path d="M7.98047 16.7193C8.05826 16.6768 8.15375 16.6061 8.25632 16.4932C8.4623 16.2666 10.1617 14.2589 10.9856 13.2833C11.0436 13.2067 11.1486 13.0388 11.1863 12.8828H16.1086C16.057 12.9983 15.9697 13.1635 15.8177 13.3519C15.6461 13.5648 13.9724 15.5348 13.1571 16.4932C13.1096 16.5491 13.0139 16.6349 12.8997 16.7193H7.98047Z" fill="url(#paint36_linear_59_41396)"/>
<path d="M7.98047 16.7193C8.05826 16.6768 8.15375 16.6061 8.25632 16.4932C8.4623 16.2666 10.1617 14.2589 10.9856 13.2833C11.0436 13.2067 11.1486 13.0388 11.1863 12.8828H16.1086C16.057 12.9983 15.9697 13.1635 15.8177 13.3519C15.6461 13.5648 13.9724 15.5348 13.1571 16.4932C13.1096 16.5491 13.0139 16.6349 12.8997 16.7193H7.98047Z" fill="url(#paint37_linear_59_41396)"/>
<path d="M7.98047 16.7193C8.05826 16.6768 8.15375 16.6061 8.25632 16.4932C8.4623 16.2666 10.1617 14.2589 10.9856 13.2833C11.0436 13.2067 11.1486 13.0388 11.1863 12.8828H16.1086C16.057 12.9983 15.9697 13.1635 15.8177 13.3519C15.6461 13.5648 13.9724 15.5348 13.1571 16.4932C13.1096 16.5491 13.0139 16.6349 12.8997 16.7193H7.98047Z" fill="url(#paint38_linear_59_41396)"/>
</g>
<g id="Intersect_4">
<path d="M17.7812 16.7193C17.859 16.6768 17.9545 16.6061 18.0571 16.4932C18.2631 16.2666 19.9625 14.2589 20.7864 13.2833C20.8444 13.2067 20.9494 13.0388 20.9871 12.8828H25.9093C25.8577 12.9983 25.7705 13.1635 25.6185 13.3519C25.4469 13.5648 23.7732 15.5348 22.9578 16.4932C22.9104 16.5491 22.8147 16.6349 22.7005 16.7193H17.7812Z" fill="#CDCDFF"/>
<path d="M17.7812 16.7193C17.859 16.6768 17.9545 16.6061 18.0571 16.4932C18.2631 16.2666 19.9625 14.2589 20.7864 13.2833C20.8444 13.2067 20.9494 13.0388 20.9871 12.8828H25.9093C25.8577 12.9983 25.7705 13.1635 25.6185 13.3519C25.4469 13.5648 23.7732 15.5348 22.9578 16.4932C22.9104 16.5491 22.8147 16.6349 22.7005 16.7193H17.7812Z" fill="url(#paint39_linear_59_41396)"/>
<path d="M17.7812 16.7193C17.859 16.6768 17.9545 16.6061 18.0571 16.4932C18.2631 16.2666 19.9625 14.2589 20.7864 13.2833C20.8444 13.2067 20.9494 13.0388 20.9871 12.8828H25.9093C25.8577 12.9983 25.7705 13.1635 25.6185 13.3519C25.4469 13.5648 23.7732 15.5348 22.9578 16.4932C22.9104 16.5491 22.8147 16.6349 22.7005 16.7193H17.7812Z" fill="url(#paint40_linear_59_41396)"/>
<path d="M17.7812 16.7193C17.859 16.6768 17.9545 16.6061 18.0571 16.4932C18.2631 16.2666 19.9625 14.2589 20.7864 13.2833C20.8444 13.2067 20.9494 13.0388 20.9871 12.8828H25.9093C25.8577 12.9983 25.7705 13.1635 25.6185 13.3519C25.4469 13.5648 23.7732 15.5348 22.9578 16.4932C22.9104 16.5491 22.8147 16.6349 22.7005 16.7193H17.7812Z" fill="url(#paint41_linear_59_41396)"/>
</g>
</g>
<defs>
<linearGradient id="paint0_linear_59_41396" x1="4.50699" y1="22.2182" x2="6.85074" y2="22.2182" gradientUnits="userSpaceOnUse">
<stop stop-color="#473850"/>
<stop offset="1" stop-color="#3F314A"/>
</linearGradient>
<linearGradient id="paint1_linear_59_41396" x1="5.78824" y1="30.0932" x2="5.78824" y2="28.0619" gradientUnits="userSpaceOnUse">
<stop stop-color="#5F75A6"/>
<stop offset="1" stop-color="#443C61" stop-opacity="0"/>
</linearGradient>
<linearGradient id="paint2_linear_59_41396" x1="6.05386" y1="16.7187" x2="6.05386" y2="17.3432" gradientUnits="userSpaceOnUse">
<stop stop-color="#1E0F2A"/>
<stop offset="1" stop-color="#45374F" stop-opacity="0"/>
</linearGradient>
<linearGradient id="paint3_linear_59_41396" x1="17.284" y1="17.8917" x2="17.284" y2="29.8726" gradientUnits="userSpaceOnUse">
<stop stop-color="#7B638E"/>
<stop offset="0.875651" stop-color="#8180C8"/>
</linearGradient>
<linearGradient id="paint4_linear_59_41396" x1="6.63723" y1="22.8559" x2="7.46691" y2="22.8559" gradientUnits="userSpaceOnUse">
<stop stop-color="#553766"/>
<stop offset="0.494568" stop-color="#553766" stop-opacity="0.418487"/>
<stop offset="0.9" stop-color="#553766" stop-opacity="0.0622717"/>
<stop offset="1" stop-color="#553766" stop-opacity="0"/>
</linearGradient>
<radialGradient id="paint5_radial_59_41396" cx="0" cy="0" r="1" gradientUnits="userSpaceOnUse" gradientTransform="translate(6.61581 29.7608) rotate(-40.914) scale(1.70841 7.35724)">
<stop stop-color="#553766"/>
<stop offset="0.821184" stop-color="#553766" stop-opacity="0.125046"/>
<stop offset="0.901564" stop-color="#553766" stop-opacity="0.04"/>
<stop offset="1" stop-color="#553766" stop-opacity="0"/>
</radialGradient>
<linearGradient id="paint6_linear_59_41396" x1="6.64453" y1="26.6557" x2="7.20384" y2="26.6557" gradientUnits="userSpaceOnUse">
<stop offset="0.16742" stop-color="#5F5691"/>
<stop offset="1" stop-color="#5F5691" stop-opacity="0"/>
</linearGradient>
<radialGradient id="paint7_radial_59_41396" cx="0" cy="0" r="1" gradientUnits="userSpaceOnUse" gradientTransform="translate(25.3549 17.0891) rotate(90) scale(0.378907 23.3293)">
<stop stop-color="#857498"/>
<stop offset="0.346439" stop-color="#857498" stop-opacity="0.749642"/>
<stop offset="0.692334" stop-color="#857498" stop-opacity="0.231668"/>
<stop offset="1" stop-color="#857498" stop-opacity="0"/>
</radialGradient>
<linearGradient id="paint8_linear_59_41396" x1="17.284" y1="16.7188" x2="17.284" y2="29.8726" gradientUnits="userSpaceOnUse">
<stop offset="0.919029" stop-color="#667AC9" stop-opacity="0"/>
<stop offset="0.955878" stop-color="#667AC9" stop-opacity="0.151377"/>
<stop offset="0.984461" stop-color="#667AC9"/>
</linearGradient>
<radialGradient id="paint9_radial_59_41396" cx="0" cy="0" r="1" gradientUnits="userSpaceOnUse" gradientTransform="translate(27.3894 29.2742) rotate(-137.022) scale(1.3848 8.29073)">
<stop stop-color="#667AC9"/>
<stop offset="0.301776" stop-color="#667AC9" stop-opacity="0.151377"/>
<stop offset="0.919029" stop-color="#667AC9" stop-opacity="0"/>
</radialGradient>
<radialGradient id="paint10_radial_59_41396" cx="0" cy="0" r="1" gradientUnits="userSpaceOnUse" gradientTransform="translate(7.52922 29.6167) rotate(-39.5424) scale(1.27418 7.62843)">
<stop stop-color="#667AC9"/>
<stop offset="0.169116" stop-color="#667AC9" stop-opacity="0.366344"/>
<stop offset="0.251118" stop-color="#667AC9" stop-opacity="0.151377"/>
<stop offset="0.919029" stop-color="#667AC9" stop-opacity="0"/>
</radialGradient>
<linearGradient id="paint11_linear_59_41396" x1="17.284" y1="16.7188" x2="17.284" y2="17.04" gradientUnits="userSpaceOnUse">
<stop stop-color="#59386F"/>
<stop offset="0.802083" stop-color="#59386F" stop-opacity="0.0833333"/>
<stop offset="1" stop-color="#59386F" stop-opacity="0"/>
</linearGradient>
<linearGradient id="paint12_linear_59_41396" x1="4.47574" y1="16.4375" x2="6.60074" y2="14.3437" gradientUnits="userSpaceOnUse">
<stop stop-color="#45374F"/>
<stop offset="1" stop-color="#3F3148"/>
</linearGradient>
<linearGradient id="paint13_linear_59_41396" x1="6.38199" y1="16.7193" x2="6.38199" y2="16.2812" gradientUnits="userSpaceOnUse">
<stop stop-color="#22112E"/>
<stop offset="1" stop-color="#3D2E49" stop-opacity="0"/>
</linearGradient>
<linearGradient id="paint14_linear_59_41396" x1="17.284" y1="14.3438" x2="17.284" y2="16.7193" gradientUnits="userSpaceOnUse">
<stop stop-color="#8F6DBD"/>
<stop offset="1" stop-color="#8661B9"/>
</linearGradient>
<linearGradient id="paint15_linear_59_41396" x1="17.284" y1="13.0362" x2="17.284" y2="13.4663" gradientUnits="userSpaceOnUse">
<stop offset="0.00875693" stop-color="#9C81C5" stop-opacity="0"/>
<stop offset="0.219562" stop-color="#9C81C5" stop-opacity="0.455546"/>
<stop offset="0.417996" stop-color="#9C81C5"/>
<stop offset="0.586067" stop-color="#9C81C5"/>
<stop offset="0.734452" stop-color="#9C81C5" stop-opacity="0.65"/>
<stop offset="0.869792" stop-color="#9C81C5" stop-opacity="0.21673"/>
<stop offset="1" stop-color="#9C81C5" stop-opacity="0"/>
</linearGradient>
<linearGradient id="paint16_linear_59_41396" x1="17.284" y1="12.8828" x2="17.284" y2="13.4277" gradientUnits="userSpaceOnUse">
<stop stop-color="#6E4D9A"/>
<stop offset="1" stop-color="#6E4D9A" stop-opacity="0"/>
</linearGradient>
<linearGradient id="paint17_linear_59_41396" x1="17.284" y1="16.1712" x2="17.284" y2="16.7193" gradientUnits="userSpaceOnUse">
<stop stop-color="#7450AE" stop-opacity="0"/>
<stop offset="0.707618" stop-color="#7450AE"/>
</linearGradient>
<linearGradient id="paint18_linear_59_41396" x1="7.11005" y1="14.9463" x2="6.76593" y2="14.9463" gradientUnits="userSpaceOnUse">
<stop stop-color="#7450AE" stop-opacity="0"/>
<stop offset="0.332928" stop-color="#7450AE" stop-opacity="0.253469"/>
<stop offset="1" stop-color="#7450AE"/>
</linearGradient>
<linearGradient id="paint19_linear_59_41396" x1="5.66217" y1="11.6871" x2="4.78717" y2="7.59335" gradientUnits="userSpaceOnUse">
<stop stop-color="#483751"/>
<stop offset="1" stop-color="#514257"/>
</linearGradient>
<linearGradient id="paint20_linear_59_41396" x1="5.56842" y1="6.96835" x2="5.97467" y2="8.78085" gradientUnits="userSpaceOnUse">
<stop stop-color="#947397"/>
<stop offset="1" stop-color="#5B4860" stop-opacity="0"/>
</linearGradient>
<linearGradient id="paint21_linear_59_41396" x1="19.6933" y1="3.8121" x2="18.5995" y2="8.03085" gradientUnits="userSpaceOnUse">
<stop stop-color="#8D74BA"/>
<stop offset="1" stop-color="#8A6EB8"/>
</linearGradient>
<linearGradient id="paint22_linear_59_41396" x1="27.1082" y1="4.45616" x2="26.6373" y2="4.58725" gradientUnits="userSpaceOnUse">
<stop offset="0.138153" stop-color="#9F8AC9"/>
<stop offset="0.681916" stop-color="#9F8AC9" stop-opacity="0.208692"/>
<stop offset="1" stop-color="#9F8AC9" stop-opacity="0"/>
</linearGradient>
<radialGradient id="paint23_radial_59_41396" cx="0" cy="0" r="1" gradientUnits="userSpaceOnUse" gradientTransform="translate(26.4857 2.90385) rotate(114.444) scale(0.607549 2.54625)">
<stop offset="0.138153" stop-color="#9F8AC9"/>
<stop offset="0.681916" stop-color="#9F8AC9" stop-opacity="0.208692"/>
<stop offset="1" stop-color="#9F8AC9" stop-opacity="0"/>
</radialGradient>
<linearGradient id="paint24_linear_59_41396" x1="17.3357" y1="8.58745" x2="17.1689" y2="7.94795" gradientUnits="userSpaceOnUse">
<stop offset="0.260018" stop-color="#7450AE"/>
<stop offset="0.799126" stop-color="#7450AE" stop-opacity="0.224434"/>
<stop offset="1" stop-color="#7450AE" stop-opacity="0"/>
</linearGradient>
<linearGradient id="paint25_linear_59_41396" x1="5.90981" y1="10.0281" x2="6.40442" y2="9.89026" gradientUnits="userSpaceOnUse">
<stop offset="0.394223" stop-color="#7450AE"/>
<stop offset="0.774759" stop-color="#7450AE" stop-opacity="0.224434"/>
<stop offset="0.916667" stop-color="#7450AE" stop-opacity="0.0830346"/>
<stop offset="1" stop-color="#7450AE" stop-opacity="0"/>
</linearGradient>
<radialGradient id="paint26_radial_59_41396" cx="0" cy="0" r="1" gradientUnits="userSpaceOnUse" gradientTransform="translate(5.70482 8.07215) rotate(10.2222) scale(0.529427 4.13962)">
<stop offset="0.09266" stop-color="#7450AE"/>
<stop offset="0.737637" stop-color="#7450AE" stop-opacity="0.224434"/>
<stop offset="0.859375" stop-color="#7450AE" stop-opacity="0.0801967"/>
<stop offset="1" stop-color="#7450AE" stop-opacity="0"/>
</radialGradient>
<radialGradient id="paint27_radial_59_41396" cx="0" cy="0" r="1" gradientUnits="userSpaceOnUse" gradientTransform="translate(5.99217 7.32131) rotate(38.88) scale(0.755905 5.91046)">
<stop offset="0.09266" stop-color="#7450AE"/>
<stop offset="0.737637" stop-color="#7450AE" stop-opacity="0.224434"/>
<stop offset="0.859375" stop-color="#7450AE" stop-opacity="0.0801967"/>
<stop offset="1" stop-color="#7450AE" stop-opacity="0"/>
</radialGradient>
<linearGradient id="paint28_linear_59_41396" x1="15.6353" y1="4.69827" x2="15.7401" y2="5.09827" gradientUnits="userSpaceOnUse">
<stop offset="0.204119" stop-color="#765EA2"/>
<stop offset="0.753349" stop-color="#765EA2" stop-opacity="0.255507"/>
<stop offset="1" stop-color="#765EA2" stop-opacity="0"/>
</linearGradient>
<linearGradient id="paint29_linear_59_41396" x1="5.7626" y1="10.4322" x2="6.36643" y2="10.2828" gradientUnits="userSpaceOnUse">
<stop offset="0.138153" stop-color="#9F8AC9"/>
<stop offset="0.681916" stop-color="#9F8AC9" stop-opacity="0.208692"/>
<stop offset="1" stop-color="#9F8AC9" stop-opacity="0"/>
</linearGradient>
<linearGradient id="paint30_linear_59_41396" x1="11.2897" y1="5.66948" x2="11.4343" y2="6.22341" gradientUnits="userSpaceOnUse">
<stop offset="0.28396" stop-color="#B2B9FF"/>
<stop offset="0.628009" stop-color="#B2B9FF" stop-opacity="0.622034"/>
<stop offset="1" stop-color="#B2B9FF" stop-opacity="0"/>
</linearGradient>
<linearGradient id="paint31_linear_59_41396" x1="11.6151" y1="10.0704" x2="11.4624" y2="9.46548" gradientUnits="userSpaceOnUse">
<stop offset="0.384" stop-color="#B6BDFF"/>
<stop offset="0.776809" stop-color="#B6BDFF" stop-opacity="0.180449"/>
<stop offset="1" stop-color="#B6BDFF" stop-opacity="0"/>
</linearGradient>
<linearGradient id="paint32_linear_59_41396" x1="11.2037" y1="5.92925" x2="11.3348" y2="6.42383" gradientUnits="userSpaceOnUse">
<stop offset="0.00875693" stop-color="#D3D4FF" stop-opacity="0"/>
<stop offset="0.250757" stop-color="#D3D4FF" stop-opacity="0.455546"/>
<stop offset="0.417996" stop-color="#D3D4FF" stop-opacity="0.59"/>
<stop offset="0.562276" stop-color="#D3D4FF" stop-opacity="0.65"/>
<stop offset="0.730349" stop-color="#D3D4FF" stop-opacity="0.46"/>
<stop offset="1" stop-color="#D3D4FF" stop-opacity="0"/>
</linearGradient>
<linearGradient id="paint33_linear_59_41396" x1="20.6606" y1="3.23877" x2="20.8054" y2="3.79342" gradientUnits="userSpaceOnUse">
<stop offset="0.28396" stop-color="#B2B9FF"/>
<stop offset="0.628009" stop-color="#B2B9FF" stop-opacity="0.622034"/>
<stop offset="1" stop-color="#B2B9FF" stop-opacity="0"/>
</linearGradient>
<linearGradient id="paint34_linear_59_41396" x1="20.9866" y1="7.64508" x2="20.8338" y2="7.03941" gradientUnits="userSpaceOnUse">
<stop offset="0.384" stop-color="#B6BDFF"/>
<stop offset="0.776809" stop-color="#B6BDFF" stop-opacity="0.180449"/>
<stop offset="1" stop-color="#B6BDFF" stop-opacity="0"/>
</linearGradient>
<linearGradient id="paint35_linear_59_41396" x1="20.5745" y1="3.49887" x2="20.7056" y2="3.99408" gradientUnits="userSpaceOnUse">
<stop offset="0.00875693" stop-color="#D3D4FF" stop-opacity="0"/>
<stop offset="0.250757" stop-color="#D3D4FF" stop-opacity="0.455546"/>
<stop offset="0.417996" stop-color="#D3D4FF" stop-opacity="0.59"/>
<stop offset="0.562276" stop-color="#D3D4FF" stop-opacity="0.65"/>
<stop offset="0.730349" stop-color="#D3D4FF" stop-opacity="0.46"/>
<stop offset="1" stop-color="#D3D4FF" stop-opacity="0"/>
</linearGradient>
<linearGradient id="paint36_linear_59_41396" x1="12.1655" y1="12.8828" x2="12.1655" y2="13.2652" gradientUnits="userSpaceOnUse">
<stop offset="0.28396" stop-color="#B2B9FF"/>
<stop offset="0.628009" stop-color="#B2B9FF" stop-opacity="0.622034"/>
<stop offset="1" stop-color="#B2B9FF" stop-opacity="0"/>
</linearGradient>
<linearGradient id="paint37_linear_59_41396" x1="12.1655" y1="16.711" x2="12.1655" y2="16.1376" gradientUnits="userSpaceOnUse">
<stop offset="0.384" stop-color="#B6ADFF"/>
<stop offset="0.776809" stop-color="#B6ADFF" stop-opacity="0.180449"/>
<stop offset="1" stop-color="#B6ADFF" stop-opacity="0"/>
</linearGradient>
<linearGradient id="paint38_linear_59_41396" x1="12.0445" y1="13.049" x2="12.0445" y2="13.4663" gradientUnits="userSpaceOnUse">
<stop offset="0.00875693" stop-color="#D3D4FF" stop-opacity="0"/>
<stop offset="0.204664" stop-color="#D3D4FF" stop-opacity="0.455546"/>
<stop offset="0.417996" stop-color="#D3D4FF"/>
<stop offset="0.586067" stop-color="#D3D4FF"/>
<stop offset="0.705101" stop-color="#D3D4FF" stop-opacity="0.639677"/>
<stop offset="1" stop-color="#D3D4FF" stop-opacity="0"/>
</linearGradient>
<linearGradient id="paint39_linear_59_41396" x1="21.9663" y1="12.8828" x2="21.9663" y2="13.2652" gradientUnits="userSpaceOnUse">
<stop offset="0.28396" stop-color="#B2B9FF"/>
<stop offset="0.628009" stop-color="#B2B9FF" stop-opacity="0.622034"/>
<stop offset="1" stop-color="#B2B9FF" stop-opacity="0"/>
</linearGradient>
<linearGradient id="paint40_linear_59_41396" x1="21.9663" y1="16.711" x2="21.9663" y2="16.1376" gradientUnits="userSpaceOnUse">
<stop offset="0.384" stop-color="#B6ADFF"/>
<stop offset="0.776809" stop-color="#B6ADFF" stop-opacity="0.180449"/>
<stop offset="1" stop-color="#B6ADFF" stop-opacity="0"/>
</linearGradient>
<linearGradient id="paint41_linear_59_41396" x1="21.8453" y1="13.049" x2="21.8453" y2="13.4663" gradientUnits="userSpaceOnUse">
<stop offset="0.00875693" stop-color="#D3D4FF" stop-opacity="0"/>
<stop offset="0.204664" stop-color="#D3D4FF" stop-opacity="0.455546"/>
<stop offset="0.417996" stop-color="#D3D4FF"/>
<stop offset="0.586067" stop-color="#D3D4FF"/>
<stop offset="0.705101" stop-color="#D3D4FF" stop-opacity="0.639677"/>
<stop offset="1" stop-color="#D3D4FF" stop-opacity="0"/>
</linearGradient>
</defs>
</svg>
