<svg width="32" height="32" viewBox="0 0 32 32" fill="none" xmlns="http://www.w3.org/2000/svg">
<g id="Musical note">
<g id="Union">
<path d="M29.4766 3.09959C29.4766 2.3774 28.8433 1.81881 28.1267 1.90898L11.4916 4.00238C10.8915 4.07789 10.4414 4.58818 10.4414 5.19299V24.4911H14.5859V10.0216C14.5859 9.51764 14.961 9.0924 15.4611 9.02947L24.2072 7.92883C24.8043 7.85369 25.332 8.31918 25.332 8.92101V20.8036H29.4766V3.09959Z" fill="#634FC9"/>
<path d="M29.4766 3.09959C29.4766 2.3774 28.8433 1.81881 28.1267 1.90898L11.4916 4.00238C10.8915 4.07789 10.4414 4.58818 10.4414 5.19299V24.4911H14.5859V10.0216C14.5859 9.51764 14.961 9.0924 15.4611 9.02947L24.2072 7.92883C24.8043 7.85369 25.332 8.31918 25.332 8.92101V20.8036H29.4766V3.09959Z" fill="url(#paint0_linear_59_41346)"/>
<path d="M29.4766 3.09959C29.4766 2.3774 28.8433 1.81881 28.1267 1.90898L11.4916 4.00238C10.8915 4.07789 10.4414 4.58818 10.4414 5.19299V24.4911H14.5859V10.0216C14.5859 9.51764 14.961 9.0924 15.4611 9.02947L24.2072 7.92883C24.8043 7.85369 25.332 8.31918 25.332 8.92101V20.8036H29.4766V3.09959Z" fill="url(#paint1_radial_59_41346)"/>
<path d="M29.4766 3.09959C29.4766 2.3774 28.8433 1.81881 28.1267 1.90898L11.4916 4.00238C10.8915 4.07789 10.4414 4.58818 10.4414 5.19299V24.4911H14.5859V10.0216C14.5859 9.51764 14.961 9.0924 15.4611 9.02947L24.2072 7.92883C24.8043 7.85369 25.332 8.31918 25.332 8.92101V20.8036H29.4766V3.09959Z" fill="url(#paint2_radial_59_41346)"/>
<path d="M29.4766 3.09959C29.4766 2.3774 28.8433 1.81881 28.1267 1.90898L11.4916 4.00238C10.8915 4.07789 10.4414 4.58818 10.4414 5.19299V24.4911H14.5859V10.0216C14.5859 9.51764 14.961 9.0924 15.4611 9.02947L24.2072 7.92883C24.8043 7.85369 25.332 8.31918 25.332 8.92101V20.8036H29.4766V3.09959Z" fill="url(#paint3_radial_59_41346)"/>
<path d="M29.4766 3.09959C29.4766 2.3774 28.8433 1.81881 28.1267 1.90898L11.4916 4.00238C10.8915 4.07789 10.4414 4.58818 10.4414 5.19299V24.4911H14.5859V10.0216C14.5859 9.51764 14.961 9.0924 15.4611 9.02947L24.2072 7.92883C24.8043 7.85369 25.332 8.31918 25.332 8.92101V20.8036H29.4766V3.09959Z" fill="url(#paint4_radial_59_41346)" fill-opacity="0.4"/>
<path d="M29.4766 3.09959C29.4766 2.3774 28.8433 1.81881 28.1267 1.90898L11.4916 4.00238C10.8915 4.07789 10.4414 4.58818 10.4414 5.19299V24.4911H14.5859V10.0216C14.5859 9.51764 14.961 9.0924 15.4611 9.02947L24.2072 7.92883C24.8043 7.85369 25.332 8.31918 25.332 8.92101V20.8036H29.4766V3.09959Z" fill="url(#paint5_radial_59_41346)"/>
<path d="M29.4766 3.09959C29.4766 2.3774 28.8433 1.81881 28.1267 1.90898L11.4916 4.00238C10.8915 4.07789 10.4414 4.58818 10.4414 5.19299V24.4911H14.5859V10.0216C14.5859 9.51764 14.961 9.0924 15.4611 9.02947L24.2072 7.92883C24.8043 7.85369 25.332 8.31918 25.332 8.92101V20.8036H29.4766V3.09959Z" fill="url(#paint6_radial_59_41346)" fill-opacity="0.8"/>
<path d="M29.4766 3.09959C29.4766 2.3774 28.8433 1.81881 28.1267 1.90898L11.4916 4.00238C10.8915 4.07789 10.4414 4.58818 10.4414 5.19299V24.4911H14.5859V10.0216C14.5859 9.51764 14.961 9.0924 15.4611 9.02947L24.2072 7.92883C24.8043 7.85369 25.332 8.31918 25.332 8.92101V20.8036H29.4766V3.09959Z" fill="url(#paint7_linear_59_41346)"/>
<path d="M29.4766 3.09959C29.4766 2.3774 28.8433 1.81881 28.1267 1.90898L11.4916 4.00238C10.8915 4.07789 10.4414 4.58818 10.4414 5.19299V24.4911H14.5859V10.0216C14.5859 9.51764 14.961 9.0924 15.4611 9.02947L24.2072 7.92883C24.8043 7.85369 25.332 8.31918 25.332 8.92101V20.8036H29.4766V3.09959Z" fill="url(#paint8_linear_59_41346)"/>
<path d="M29.4766 3.09959C29.4766 2.3774 28.8433 1.81881 28.1267 1.90898L11.4916 4.00238C10.8915 4.07789 10.4414 4.58818 10.4414 5.19299V24.4911H14.5859V10.0216C14.5859 9.51764 14.961 9.0924 15.4611 9.02947L24.2072 7.92883C24.8043 7.85369 25.332 8.31918 25.332 8.92101V20.8036H29.4766V3.09959Z" fill="url(#paint9_radial_59_41346)"/>
</g>
<g id="Ellipse 116">
<circle cx="8.64453" cy="24.1592" r="5.94141" fill="url(#paint10_linear_59_41346)"/>
<circle cx="8.64453" cy="24.1592" r="5.94141" fill="url(#paint11_radial_59_41346)"/>
<circle cx="8.64453" cy="24.1592" r="5.94141" fill="url(#paint12_radial_59_41346)"/>
<circle cx="8.64453" cy="24.1592" r="5.94141" fill="url(#paint13_radial_59_41346)"/>
</g>
<g id="Ellipse 117">
<circle cx="23.5352" cy="20.7686" r="5.94141" fill="url(#paint14_linear_59_41346)"/>
<circle cx="23.5352" cy="20.7686" r="5.94141" fill="url(#paint15_radial_59_41346)"/>
<circle cx="23.5352" cy="20.7686" r="5.94141" fill="url(#paint16_radial_59_41346)"/>
<circle cx="23.5352" cy="20.7686" r="5.94141" fill="url(#paint17_radial_59_41346)"/>
</g>
</g>
<defs>
<linearGradient id="paint0_linear_59_41346" x1="10.3092" y1="17.3205" x2="11.5351" y2="17.3205" gradientUnits="userSpaceOnUse">
<stop stop-color="#544B83"/>
<stop offset="1" stop-color="#544B83" stop-opacity="0"/>
</linearGradient>
<radialGradient id="paint1_radial_59_41346" cx="0" cy="0" r="1" gradientUnits="userSpaceOnUse" gradientTransform="translate(27.3164 17.2656) rotate(-51.1467) scale(1.44461 4.28044)">
<stop offset="0.582086" stop-color="#796DB7"/>
<stop offset="1" stop-color="#796DB7" stop-opacity="0"/>
</radialGradient>
<radialGradient id="paint2_radial_59_41346" cx="0" cy="0" r="1" gradientUnits="userSpaceOnUse" gradientTransform="translate(12.4727 20.3906) rotate(-47.1211) scale(1.49258 4.0639)">
<stop offset="0.381918" stop-color="#796DB7"/>
<stop offset="1" stop-color="#796DB7" stop-opacity="0"/>
</radialGradient>
<radialGradient id="paint3_radial_59_41346" cx="0" cy="0" r="1" gradientUnits="userSpaceOnUse" gradientTransform="translate(14.6043 17.1298) rotate(-0.279522) scale(2.22578 14.2144)">
<stop offset="0.116071" stop-color="#796DB7"/>
<stop offset="0.553571" stop-color="#796DB7" stop-opacity="0"/>
</radialGradient>
<radialGradient id="paint4_radial_59_41346" cx="0" cy="0" r="1" gradientUnits="userSpaceOnUse" gradientTransform="translate(19.6486 8.42697) rotate(84.6373) scale(3.32105 15.6933)">
<stop offset="0.116071" stop-color="#544B83"/>
<stop offset="0.35185" stop-color="#544B83" stop-opacity="0"/>
</radialGradient>
<radialGradient id="paint5_radial_59_41346" cx="0" cy="0" r="1" gradientUnits="userSpaceOnUse" gradientTransform="translate(14.9075 12.7973) rotate(-2.8864) scale(2.42866 5.06616)">
<stop offset="0.153652" stop-color="#796DB7"/>
<stop offset="0.557338" stop-color="#796DB7" stop-opacity="0"/>
</radialGradient>
<radialGradient id="paint6_radial_59_41346" cx="0" cy="0" r="1" gradientUnits="userSpaceOnUse" gradientTransform="translate(14.8469 10.0928) rotate(31.8095) scale(1.79653 2.75469)">
<stop offset="0.239763" stop-color="#796DB7"/>
<stop offset="0.618253" stop-color="#796DB7" stop-opacity="0"/>
</radialGradient>
<linearGradient id="paint7_linear_59_41346" x1="31.3897" y1="14.6013" x2="27.7135" y2="14.6183" gradientUnits="userSpaceOnUse">
<stop offset="0.480286" stop-color="#796DB7"/>
<stop offset="0.90049" stop-color="#796DB7" stop-opacity="0"/>
</linearGradient>
<linearGradient id="paint8_linear_59_41346" x1="17.6454" y1="0.939506" x2="18.5459" y2="6.76279" gradientUnits="userSpaceOnUse">
<stop offset="0.304546" stop-color="#544B83"/>
<stop offset="0.678742" stop-color="#544B83" stop-opacity="0"/>
</linearGradient>
<radialGradient id="paint9_radial_59_41346" cx="0" cy="0" r="1" gradientUnits="userSpaceOnUse" gradientTransform="translate(29.2032 2.22084) rotate(137.021) scale(2.3405 0.716969)">
<stop stop-color="#796DB7"/>
<stop offset="1" stop-color="#796DB7" stop-opacity="0"/>
</radialGradient>
<linearGradient id="paint10_linear_59_41346" x1="8.64453" y1="18.2178" x2="8.64453" y2="29.1672" gradientUnits="userSpaceOnUse">
<stop stop-color="#7961F4"/>
<stop offset="1" stop-color="#503DAC"/>
</linearGradient>
<radialGradient id="paint11_radial_59_41346" cx="0" cy="0" r="1" gradientUnits="userSpaceOnUse" gradientTransform="translate(11.543 22.8695) rotate(131.406) scale(5.169 4.49706)">
<stop stop-color="#897CCC"/>
<stop offset="1" stop-color="#796DB7" stop-opacity="0"/>
</radialGradient>
<radialGradient id="paint12_radial_59_41346" cx="0" cy="0" r="1" gradientUnits="userSpaceOnUse" gradientTransform="translate(7.296 24.1592) scale(8.19062 10.8866)">
<stop offset="0.796178" stop-color="#796DB7" stop-opacity="0"/>
<stop offset="0.955414" stop-color="#796DB7"/>
</radialGradient>
<radialGradient id="paint13_radial_59_41346" cx="0" cy="0" r="1" gradientUnits="userSpaceOnUse" gradientTransform="translate(8.64453 22.9375) rotate(90) scale(7.40421 7.50615)">
<stop offset="0.71875" stop-color="#544B83" stop-opacity="0"/>
<stop offset="1" stop-color="#544B83"/>
</radialGradient>
<linearGradient id="paint14_linear_59_41346" x1="23.5352" y1="14.8271" x2="23.5352" y2="25.7766" gradientUnits="userSpaceOnUse">
<stop stop-color="#7961F4"/>
<stop offset="1" stop-color="#503DAC"/>
</linearGradient>
<radialGradient id="paint15_radial_59_41346" cx="0" cy="0" r="1" gradientUnits="userSpaceOnUse" gradientTransform="translate(26.4336 19.4789) rotate(131.406) scale(5.169 4.49706)">
<stop stop-color="#897CCC"/>
<stop offset="1" stop-color="#796DB7" stop-opacity="0"/>
</radialGradient>
<radialGradient id="paint16_radial_59_41346" cx="0" cy="0" r="1" gradientUnits="userSpaceOnUse" gradientTransform="translate(22.1866 20.7686) scale(8.19062 10.8866)">
<stop offset="0.796178" stop-color="#796DB7" stop-opacity="0"/>
<stop offset="0.955414" stop-color="#796DB7"/>
</radialGradient>
<radialGradient id="paint17_radial_59_41346" cx="0" cy="0" r="1" gradientUnits="userSpaceOnUse" gradientTransform="translate(23.5352 19.5469) rotate(90) scale(7.40421 7.50615)">
<stop offset="0.71875" stop-color="#544B83" stop-opacity="0"/>
<stop offset="1" stop-color="#544B83"/>
</radialGradient>
</defs>
</svg>
