<svg width="32" height="32" viewBox="0 0 32 32" fill="none" xmlns="http://www.w3.org/2000/svg">
<g id="Office building">
<g id="L-Building">
<path d="M19.9961 30.0352H1.99609V9.33515C1.99609 8.06515 3.02609 7.03516 4.29609 7.03516H17.0761C18.6861 7.03516 19.9961 8.34515 19.9961 9.95515V30.0352Z" fill="#99919F"/>
<path d="M19.9961 30.0352H1.99609V9.33515C1.99609 8.06515 3.02609 7.03516 4.29609 7.03516H17.0761C18.6861 7.03516 19.9961 8.34515 19.9961 9.95515V30.0352Z" fill="url(#paint0_linear_59_41323)"/>
<path d="M19.9961 30.0352H1.99609V9.33515C1.99609 8.06515 3.02609 7.03516 4.29609 7.03516H17.0761C18.6861 7.03516 19.9961 8.34515 19.9961 9.95515V30.0352Z" fill="url(#paint1_linear_59_41323)"/>
<path d="M19.9961 30.0352H1.99609V9.33515C1.99609 8.06515 3.02609 7.03516 4.29609 7.03516H17.0761C18.6861 7.03516 19.9961 8.34515 19.9961 9.95515V30.0352Z" fill="url(#paint2_linear_59_41323)"/>
</g>
<g id="R-Building">
<path d="M29.9961 30.0352H11.9961V9.33515C11.9961 8.06515 13.0261 7.03516 14.2961 7.03516H27.6961C28.9661 7.03516 29.9961 8.06515 29.9961 9.33515V30.0352V30.0352Z" fill="#B5AEBA"/>
<path d="M29.9961 30.0352H11.9961V9.33515C11.9961 8.06515 13.0261 7.03516 14.2961 7.03516H27.6961C28.9661 7.03516 29.9961 8.06515 29.9961 9.33515V30.0352V30.0352Z" fill="url(#paint3_linear_59_41323)"/>
<path d="M29.9961 30.0352H11.9961V9.33515C11.9961 8.06515 13.0261 7.03516 14.2961 7.03516H27.6961C28.9661 7.03516 29.9961 8.06515 29.9961 9.33515V30.0352V30.0352Z" fill="url(#paint4_linear_59_41323)"/>
<path d="M29.9961 30.0352H11.9961V9.33515C11.9961 8.06515 13.0261 7.03516 14.2961 7.03516H27.6961C28.9661 7.03516 29.9961 8.06515 29.9961 9.33515V30.0352V30.0352Z" fill="url(#paint5_linear_59_41323)"/>
<path d="M29.9961 30.0352H11.9961V9.33515C11.9961 8.06515 13.0261 7.03516 14.2961 7.03516H27.6961C28.9661 7.03516 29.9961 8.06515 29.9961 9.33515V30.0352V30.0352Z" fill="url(#paint6_radial_59_41323)"/>
</g>
<g id="R-Window 5">
<rect x="24.0273" y="11.0566" width="3.9841" height="2.99216" rx="0.5" fill="url(#paint7_linear_59_41323)"/>
<rect x="24.0273" y="11.0566" width="3.9841" height="2.99216" rx="0.5" fill="url(#paint8_linear_59_41323)"/>
<rect x="24.0273" y="11.0566" width="3.9841" height="2.99216" rx="0.5" fill="url(#paint9_linear_59_41323)"/>
<rect x="24.0273" y="11.0566" width="3.9841" height="2.99216" rx="0.5" fill="url(#paint10_linear_59_41323)"/>
</g>
<g id="R-Window 8">
<rect x="3.97656" y="11.0566" width="3.9841" height="2.99216" rx="0.5" fill="url(#paint11_linear_59_41323)"/>
<rect x="3.97656" y="11.0566" width="3.9841" height="2.99216" rx="0.5" fill="url(#paint12_linear_59_41323)"/>
<rect x="3.97656" y="11.0566" width="3.9841" height="2.99216" rx="0.5" fill="url(#paint13_linear_59_41323)"/>
<rect x="3.97656" y="11.0566" width="3.9841" height="2.99216" rx="0.5" fill="url(#paint14_linear_59_41323)"/>
<rect x="3.97656" y="11.0566" width="3.9841" height="2.99216" rx="0.5" fill="url(#paint15_linear_59_41323)"/>
</g>
<g id="R-Window 6">
<rect x="24.0273" y="16" width="3.9841" height="2.99216" rx="0.5" fill="url(#paint16_linear_59_41323)"/>
<rect x="24.0273" y="16" width="3.9841" height="2.99216" rx="0.5" fill="url(#paint17_linear_59_41323)"/>
<rect x="24.0273" y="16" width="3.9841" height="2.99216" rx="0.5" fill="url(#paint18_linear_59_41323)"/>
<rect x="24.0273" y="16" width="3.9841" height="2.99216" rx="0.5" fill="url(#paint19_linear_59_41323)"/>
</g>
<g id="R-Window 9">
<rect x="3.97656" y="16" width="3.9841" height="2.99216" rx="0.5" fill="url(#paint20_linear_59_41323)"/>
<rect x="3.97656" y="16" width="3.9841" height="2.99216" rx="0.5" fill="url(#paint21_linear_59_41323)"/>
<rect x="3.97656" y="16" width="3.9841" height="2.99216" rx="0.5" fill="url(#paint22_linear_59_41323)"/>
<rect x="3.97656" y="16" width="3.9841" height="2.99216" rx="0.5" fill="url(#paint23_linear_59_41323)"/>
<rect x="3.97656" y="16" width="3.9841" height="2.99216" rx="0.5" fill="url(#paint24_linear_59_41323)"/>
</g>
<g id="R-Window 7">
<rect x="24.0273" y="20.9541" width="3.9841" height="2.99216" rx="0.5" fill="url(#paint25_linear_59_41323)"/>
<rect x="24.0273" y="20.9541" width="3.9841" height="2.99216" rx="0.5" fill="url(#paint26_linear_59_41323)"/>
<rect x="24.0273" y="20.9541" width="3.9841" height="2.99216" rx="0.5" fill="url(#paint27_linear_59_41323)"/>
<rect x="24.0273" y="20.9541" width="3.9841" height="2.99216" rx="0.5" fill="url(#paint28_linear_59_41323)"/>
</g>
<g id="R-Window 10">
<rect x="3.97656" y="20.9541" width="3.9841" height="2.99216" rx="0.5" fill="url(#paint29_linear_59_41323)"/>
<rect x="3.97656" y="20.9541" width="3.9841" height="2.99216" rx="0.5" fill="url(#paint30_linear_59_41323)"/>
<rect x="3.97656" y="20.9541" width="3.9841" height="2.99216" rx="0.5" fill="url(#paint31_linear_59_41323)"/>
<rect x="3.97656" y="20.9541" width="3.9841" height="2.99216" rx="0.5" fill="url(#paint32_linear_59_41323)"/>
<rect x="3.97656" y="20.9541" width="3.9841" height="2.99216" rx="0.5" fill="url(#paint33_linear_59_41323)"/>
</g>
<g id="Center building">
<path d="M25.9961 30.0352H5.99609V4.49516C5.99609 3.13516 7.09609 2.03516 8.45609 2.03516H23.5361C24.8961 2.03516 25.9961 3.13516 25.9961 4.49516V30.0352Z" fill="url(#paint34_linear_59_41323)"/>
<path d="M25.9961 30.0352H5.99609V4.49516C5.99609 3.13516 7.09609 2.03516 8.45609 2.03516H23.5361C24.8961 2.03516 25.9961 3.13516 25.9961 4.49516V30.0352Z" fill="url(#paint35_linear_59_41323)"/>
<path d="M25.9961 30.0352H5.99609V4.49516C5.99609 3.13516 7.09609 2.03516 8.45609 2.03516H23.5361C24.8961 2.03516 25.9961 3.13516 25.9961 4.49516V30.0352Z" fill="url(#paint36_linear_59_41323)"/>
<path d="M25.9961 30.0352H5.99609V4.49516C5.99609 3.13516 7.09609 2.03516 8.45609 2.03516H23.5361C24.8961 2.03516 25.9961 3.13516 25.9961 4.49516V30.0352Z" fill="url(#paint37_radial_59_41323)"/>
</g>
<g id="Center building_2">
<path d="M25.9961 30.0352H5.99609V4.49516C5.99609 3.13516 7.09609 2.03516 8.45609 2.03516H23.5361C24.8961 2.03516 25.9961 3.13516 25.9961 4.49516V30.0352Z" fill="url(#paint38_radial_59_41323)"/>
<path d="M25.9961 30.0352H5.99609V4.49516C5.99609 3.13516 7.09609 2.03516 8.45609 2.03516H23.5361C24.8961 2.03516 25.9961 3.13516 25.9961 4.49516V30.0352Z" fill="url(#paint39_linear_59_41323)" fill-opacity="0.2"/>
<path d="M25.9961 30.0352H5.99609V4.49516C5.99609 3.13516 7.09609 2.03516 8.45609 2.03516H23.5361C24.8961 2.03516 25.9961 3.13516 25.9961 4.49516V30.0352Z" fill="url(#paint40_linear_59_41323)" fill-opacity="0.4"/>
<path d="M25.9961 30.0352H5.99609V4.49516C5.99609 3.13516 7.09609 2.03516 8.45609 2.03516H23.5361C24.8961 2.03516 25.9961 3.13516 25.9961 4.49516V30.0352Z" fill="url(#paint41_radial_59_41323)"/>
</g>
<g id="Door">
<path d="M18.9961 30.0352H12.9961V26.2852C12.9961 25.5952 13.5561 25.0352 14.2461 25.0352H17.7461C18.4361 25.0352 19.0061 25.5952 19.0061 26.2952V30.0352H18.9961Z" fill="url(#paint42_linear_59_41323)"/>
<path d="M18.9961 30.0352H12.9961V26.2852C12.9961 25.5952 13.5561 25.0352 14.2461 25.0352H17.7461C18.4361 25.0352 19.0061 25.5952 19.0061 26.2952V30.0352H18.9961Z" fill="url(#paint43_linear_59_41323)"/>
<path d="M18.9961 30.0352H12.9961V26.2852C12.9961 25.5952 13.5561 25.0352 14.2461 25.0352H17.7461C18.4361 25.0352 19.0061 25.5952 19.0061 26.2952V30.0352H18.9961Z" fill="url(#paint44_linear_59_41323)"/>
<path d="M18.9961 30.0352H12.9961V26.2852C12.9961 25.5952 13.5561 25.0352 14.2461 25.0352H17.7461C18.4361 25.0352 19.0061 25.5952 19.0061 26.2952V30.0352H18.9961Z" fill="url(#paint45_linear_59_41323)"/>
</g>
<g id="L-Window 1">
<path d="M10.9961 5.57227C10.9961 5.29612 11.22 5.07227 11.4961 5.07227H14.4802C14.7563 5.07227 14.9802 5.29612 14.9802 5.57227V7.56443C14.9802 7.84057 14.7563 8.06443 14.4802 8.06443H11.4961C11.22 8.06443 10.9961 7.84057 10.9961 7.56443V5.57227Z" fill="url(#paint46_linear_59_41323)"/>
<path d="M10.9961 5.57227C10.9961 5.29612 11.22 5.07227 11.4961 5.07227H14.4802C14.7563 5.07227 14.9802 5.29612 14.9802 5.57227V7.56443C14.9802 7.84057 14.7563 8.06443 14.4802 8.06443H11.4961C11.22 8.06443 10.9961 7.84057 10.9961 7.56443V5.57227Z" fill="url(#paint47_linear_59_41323)"/>
<path d="M10.9961 5.57227C10.9961 5.29612 11.22 5.07227 11.4961 5.07227H14.4802C14.7563 5.07227 14.9802 5.29612 14.9802 5.57227V7.56443C14.9802 7.84057 14.7563 8.06443 14.4802 8.06443H11.4961C11.22 8.06443 10.9961 7.84057 10.9961 7.56443V5.57227Z" fill="url(#paint48_linear_59_41323)"/>
<path d="M10.9961 5.57227C10.9961 5.29612 11.22 5.07227 11.4961 5.07227H14.4802C14.7563 5.07227 14.9802 5.29612 14.9802 5.57227V7.56443C14.9802 7.84057 14.7563 8.06443 14.4802 8.06443H11.4961C11.22 8.06443 10.9961 7.84057 10.9961 7.56443V5.57227Z" fill="url(#paint49_linear_59_41323)"/>
<path d="M10.9961 5.57227C10.9961 5.29612 11.22 5.07227 11.4961 5.07227H14.4802C14.7563 5.07227 14.9802 5.29612 14.9802 5.57227V7.56443C14.9802 7.84057 14.7563 8.06443 14.4802 8.06443H11.4961C11.22 8.06443 10.9961 7.84057 10.9961 7.56443V5.57227Z" fill="url(#paint50_linear_59_41323)"/>
</g>
<g id="L-Window 2">
<rect x="10.9961" y="10.0205" width="3.9841" height="2.99216" rx="0.5" fill="url(#paint51_linear_59_41323)"/>
<rect x="10.9961" y="10.0205" width="3.9841" height="2.99216" rx="0.5" fill="url(#paint52_linear_59_41323)"/>
<rect x="10.9961" y="10.0205" width="3.9841" height="2.99216" rx="0.5" fill="url(#paint53_linear_59_41323)"/>
<rect x="10.9961" y="10.0205" width="3.9841" height="2.99216" rx="0.5" fill="url(#paint54_linear_59_41323)"/>
<rect x="10.9961" y="10.0205" width="3.9841" height="2.99216" rx="0.5" fill="url(#paint55_linear_59_41323)"/>
</g>
<g id="L-Window 3">
<rect x="10.9961" y="14.9697" width="3.9841" height="2.99216" rx="0.5" fill="url(#paint56_linear_59_41323)"/>
<rect x="10.9961" y="14.9697" width="3.9841" height="2.99216" rx="0.5" fill="url(#paint57_linear_59_41323)"/>
<rect x="10.9961" y="14.9697" width="3.9841" height="2.99216" rx="0.5" fill="url(#paint58_linear_59_41323)"/>
<rect x="10.9961" y="14.9697" width="3.9841" height="2.99216" rx="0.5" fill="url(#paint59_linear_59_41323)"/>
<rect x="10.9961" y="14.9697" width="3.9841" height="2.99216" rx="0.5" fill="url(#paint60_linear_59_41323)"/>
</g>
<g id="L-Window 4">
<rect x="10.9961" y="20.0713" width="3.9841" height="2.99216" rx="0.5" fill="url(#paint61_linear_59_41323)"/>
<rect x="10.9961" y="20.0713" width="3.9841" height="2.99216" rx="0.5" fill="url(#paint62_linear_59_41323)"/>
<rect x="10.9961" y="20.0713" width="3.9841" height="2.99216" rx="0.5" fill="url(#paint63_linear_59_41323)"/>
<rect x="10.9961" y="20.0713" width="3.9841" height="2.99216" rx="0.5" fill="url(#paint64_linear_59_41323)"/>
<rect x="10.9961" y="20.0713" width="3.9841" height="2.99216" rx="0.5" fill="url(#paint65_linear_59_41323)"/>
</g>
<g id="R-Window 1">
<rect x="16.9805" y="5.07227" width="3.9841" height="2.99216" rx="0.5" fill="url(#paint66_linear_59_41323)"/>
<rect x="16.9805" y="5.07227" width="3.9841" height="2.99216" rx="0.5" fill="url(#paint67_linear_59_41323)"/>
<rect x="16.9805" y="5.07227" width="3.9841" height="2.99216" rx="0.5" fill="url(#paint68_linear_59_41323)"/>
<rect x="16.9805" y="5.07227" width="3.9841" height="2.99216" rx="0.5" fill="url(#paint69_linear_59_41323)"/>
<rect x="16.9805" y="5.07227" width="3.9841" height="2.99216" rx="0.5" fill="url(#paint70_linear_59_41323)"/>
</g>
<g id="R-Window 11">
<rect x="16.9805" y="10.0205" width="3.9841" height="2.99216" rx="0.5" fill="url(#paint71_linear_59_41323)"/>
<rect x="16.9805" y="10.0205" width="3.9841" height="2.99216" rx="0.5" fill="url(#paint72_linear_59_41323)"/>
<rect x="16.9805" y="10.0205" width="3.9841" height="2.99216" rx="0.5" fill="url(#paint73_linear_59_41323)"/>
<rect x="16.9805" y="10.0205" width="3.9841" height="2.99216" rx="0.5" fill="url(#paint74_linear_59_41323)"/>
<rect x="16.9805" y="10.0205" width="3.9841" height="2.99216" rx="0.5" fill="url(#paint75_linear_59_41323)"/>
</g>
<g id="R-Window 3">
<rect x="16.9805" y="14.9697" width="3.9841" height="2.99216" rx="0.5" fill="url(#paint76_linear_59_41323)"/>
<rect x="16.9805" y="14.9697" width="3.9841" height="2.99216" rx="0.5" fill="url(#paint77_linear_59_41323)"/>
<rect x="16.9805" y="14.9697" width="3.9841" height="2.99216" rx="0.5" fill="url(#paint78_linear_59_41323)"/>
<rect x="16.9805" y="14.9697" width="3.9841" height="2.99216" rx="0.5" fill="url(#paint79_linear_59_41323)"/>
<rect x="16.9805" y="14.9697" width="3.9841" height="2.99216" rx="0.5" fill="url(#paint80_linear_59_41323)"/>
</g>
<g id="R-Window 4">
<rect x="16.9805" y="20.0713" width="3.9841" height="2.99216" rx="0.5" fill="url(#paint81_linear_59_41323)"/>
<rect x="16.9805" y="20.0713" width="3.9841" height="2.99216" rx="0.5" fill="url(#paint82_linear_59_41323)"/>
<rect x="16.9805" y="20.0713" width="3.9841" height="2.99216" rx="0.5" fill="url(#paint83_linear_59_41323)"/>
<rect x="16.9805" y="20.0713" width="3.9841" height="2.99216" rx="0.5" fill="url(#paint84_linear_59_41323)"/>
<rect x="16.9805" y="20.0713" width="3.9841" height="2.99216" rx="0.5" fill="url(#paint85_linear_59_41323)"/>
</g>
</g>
<defs>
<linearGradient id="paint0_linear_59_41323" x1="6.56679" y1="22.2209" x2="4.64686" y2="22.2209" gradientUnits="userSpaceOnUse">
<stop stop-color="#605965"/>
<stop offset="1" stop-color="#605965" stop-opacity="0"/>
</linearGradient>
<linearGradient id="paint1_linear_59_41323" x1="6.8839" y1="6.46768" x2="6.8839" y2="9.67354" gradientUnits="userSpaceOnUse">
<stop stop-color="#959595"/>
<stop offset="1" stop-color="#959595" stop-opacity="0"/>
</linearGradient>
<linearGradient id="paint2_linear_59_41323" x1="1.99609" y1="23.2572" x2="3.17498" y2="23.2572" gradientUnits="userSpaceOnUse">
<stop stop-color="#7B777E"/>
<stop offset="1" stop-color="#7B777E" stop-opacity="0"/>
</linearGradient>
<linearGradient id="paint3_linear_59_41323" x1="25.8332" y1="24.4101" x2="26.4894" y2="24.4101" gradientUnits="userSpaceOnUse">
<stop stop-color="#A59FA9"/>
<stop offset="1" stop-color="#A59FA9" stop-opacity="0"/>
</linearGradient>
<linearGradient id="paint4_linear_59_41323" x1="26.0207" y1="6.91014" x2="26.0207" y2="8.22264" gradientUnits="userSpaceOnUse">
<stop stop-color="#B3B3B3"/>
<stop offset="1" stop-color="#B3B3B3" stop-opacity="0"/>
</linearGradient>
<linearGradient id="paint5_linear_59_41323" x1="30.3332" y1="23.0351" x2="28.3332" y2="23.0351" gradientUnits="userSpaceOnUse">
<stop stop-color="#D2CFD4"/>
<stop offset="1" stop-color="#D2CFD4" stop-opacity="0"/>
</linearGradient>
<radialGradient id="paint6_radial_59_41323" cx="0" cy="0" r="1" gradientUnits="userSpaceOnUse" gradientTransform="translate(29.8019 7.34764) rotate(138.18) scale(2.39017 2.18697)">
<stop offset="0.214067" stop-color="#D7D6D8"/>
<stop offset="1" stop-color="#D7D6D8" stop-opacity="0"/>
</radialGradient>
<linearGradient id="paint7_linear_59_41323" x1="24.3359" y1="12.5527" x2="28.0114" y2="12.5527" gradientUnits="userSpaceOnUse">
<stop stop-color="#58E6FF"/>
<stop offset="1" stop-color="#44B8FF"/>
</linearGradient>
<linearGradient id="paint8_linear_59_41323" x1="29.1986" y1="12.061" x2="26.4781" y2="12.061" gradientUnits="userSpaceOnUse">
<stop offset="0.43825" stop-color="#1E8DDC"/>
<stop offset="0.598779" stop-color="#2EB4FF"/>
<stop offset="0.701518" stop-color="#41B8FB" stop-opacity="0"/>
</linearGradient>
<linearGradient id="paint9_linear_59_41323" x1="26.0194" y1="10.1404" x2="26.0194" y2="12.0525" gradientUnits="userSpaceOnUse">
<stop offset="0.466484" stop-color="#2CA5EB"/>
<stop offset="0.46875" stop-color="#36AEF1"/>
<stop offset="0.604167" stop-color="#36AEF1" stop-opacity="0.7"/>
<stop offset="0.807292" stop-color="#36AEF1" stop-opacity="0.15"/>
<stop offset="0.95701" stop-color="#36AEF1" stop-opacity="0"/>
</linearGradient>
<linearGradient id="paint10_linear_59_41323" x1="25.1559" y1="12.7004" x2="22.7382" y2="12.6872" gradientUnits="userSpaceOnUse">
<stop offset="0.19012" stop-color="#BAF7FB" stop-opacity="0"/>
<stop offset="0.594617" stop-color="#80FFFF"/>
</linearGradient>
<linearGradient id="paint11_linear_59_41323" x1="4.28513" y1="12.5527" x2="7.96066" y2="12.5527" gradientUnits="userSpaceOnUse">
<stop stop-color="#47ABE5"/>
<stop offset="1" stop-color="#44B8FF"/>
</linearGradient>
<linearGradient id="paint12_linear_59_41323" x1="9.14785" y1="12.061" x2="6.42731" y2="12.061" gradientUnits="userSpaceOnUse">
<stop offset="0.43825" stop-color="#1E8DDC"/>
<stop offset="0.598779" stop-color="#2EB4FF"/>
<stop offset="0.701518" stop-color="#41B8FB" stop-opacity="0"/>
</linearGradient>
<linearGradient id="paint13_linear_59_41323" x1="5.96861" y1="10.1404" x2="5.96861" y2="12.0525" gradientUnits="userSpaceOnUse">
<stop offset="0.264268" stop-color="#228EE3"/>
<stop offset="0.46875" stop-color="#228EE3"/>
<stop offset="0.604167" stop-color="#228EE3" stop-opacity="0.7"/>
<stop offset="0.807292" stop-color="#228EE3" stop-opacity="0.15"/>
<stop offset="0.95701" stop-color="#228EE3" stop-opacity="0"/>
</linearGradient>
<linearGradient id="paint14_linear_59_41323" x1="6.19066" y1="13.4481" x2="6.19025" y2="15.4133" gradientUnits="userSpaceOnUse">
<stop stop-color="#228EE3" stop-opacity="0"/>
<stop offset="0.185088" stop-color="#228EE3" stop-opacity="0.2"/>
<stop offset="0.466383" stop-color="#228EE3"/>
</linearGradient>
<linearGradient id="paint15_linear_59_41323" x1="5.10509" y1="12.7004" x2="2.68737" y2="12.6872" gradientUnits="userSpaceOnUse">
<stop offset="0.289255" stop-color="#228EE3" stop-opacity="0"/>
<stop offset="0.774692" stop-color="#228EE3"/>
</linearGradient>
<linearGradient id="paint16_linear_59_41323" x1="24.3359" y1="17.4961" x2="28.0114" y2="17.4961" gradientUnits="userSpaceOnUse">
<stop stop-color="#58E6FF"/>
<stop offset="1" stop-color="#44B8FF"/>
</linearGradient>
<linearGradient id="paint17_linear_59_41323" x1="29.1986" y1="17.0043" x2="26.4781" y2="17.0043" gradientUnits="userSpaceOnUse">
<stop offset="0.43825" stop-color="#1E8DDC"/>
<stop offset="0.598779" stop-color="#2EB4FF"/>
<stop offset="0.701518" stop-color="#41B8FB" stop-opacity="0"/>
</linearGradient>
<linearGradient id="paint18_linear_59_41323" x1="26.0194" y1="15.0838" x2="26.0194" y2="16.9958" gradientUnits="userSpaceOnUse">
<stop offset="0.466484" stop-color="#2CA5EB"/>
<stop offset="0.46875" stop-color="#36AEF1"/>
<stop offset="0.604167" stop-color="#36AEF1" stop-opacity="0.7"/>
<stop offset="0.807292" stop-color="#36AEF1" stop-opacity="0.15"/>
<stop offset="0.95701" stop-color="#36AEF1" stop-opacity="0"/>
</linearGradient>
<linearGradient id="paint19_linear_59_41323" x1="25.1559" y1="17.6437" x2="22.7382" y2="17.6306" gradientUnits="userSpaceOnUse">
<stop offset="0.19012" stop-color="#BAF7FB" stop-opacity="0"/>
<stop offset="0.594617" stop-color="#80FFFF"/>
</linearGradient>
<linearGradient id="paint20_linear_59_41323" x1="4.28513" y1="17.4961" x2="7.96066" y2="17.4961" gradientUnits="userSpaceOnUse">
<stop stop-color="#47ABE5"/>
<stop offset="1" stop-color="#44B8FF"/>
</linearGradient>
<linearGradient id="paint21_linear_59_41323" x1="9.14785" y1="17.0043" x2="6.42731" y2="17.0043" gradientUnits="userSpaceOnUse">
<stop offset="0.43825" stop-color="#1E8DDC"/>
<stop offset="0.598779" stop-color="#2EB4FF"/>
<stop offset="0.701518" stop-color="#41B8FB" stop-opacity="0"/>
</linearGradient>
<linearGradient id="paint22_linear_59_41323" x1="5.96861" y1="15.0838" x2="5.96861" y2="16.9958" gradientUnits="userSpaceOnUse">
<stop offset="0.264268" stop-color="#228EE3"/>
<stop offset="0.46875" stop-color="#228EE3"/>
<stop offset="0.604167" stop-color="#228EE3" stop-opacity="0.7"/>
<stop offset="0.807292" stop-color="#228EE3" stop-opacity="0.15"/>
<stop offset="0.95701" stop-color="#228EE3" stop-opacity="0"/>
</linearGradient>
<linearGradient id="paint23_linear_59_41323" x1="6.19066" y1="18.3915" x2="6.19025" y2="20.3566" gradientUnits="userSpaceOnUse">
<stop stop-color="#228EE3" stop-opacity="0"/>
<stop offset="0.185088" stop-color="#228EE3" stop-opacity="0.2"/>
<stop offset="0.466383" stop-color="#228EE3"/>
</linearGradient>
<linearGradient id="paint24_linear_59_41323" x1="5.10509" y1="17.6437" x2="2.68737" y2="17.6306" gradientUnits="userSpaceOnUse">
<stop offset="0.289255" stop-color="#228EE3" stop-opacity="0"/>
<stop offset="0.774692" stop-color="#228EE3"/>
</linearGradient>
<linearGradient id="paint25_linear_59_41323" x1="24.3359" y1="22.4502" x2="28.0114" y2="22.4502" gradientUnits="userSpaceOnUse">
<stop stop-color="#58E6FF"/>
<stop offset="1" stop-color="#44B8FF"/>
</linearGradient>
<linearGradient id="paint26_linear_59_41323" x1="29.1986" y1="21.9584" x2="26.4781" y2="21.9584" gradientUnits="userSpaceOnUse">
<stop offset="0.43825" stop-color="#1E8DDC"/>
<stop offset="0.598779" stop-color="#2EB4FF"/>
<stop offset="0.701518" stop-color="#41B8FB" stop-opacity="0"/>
</linearGradient>
<linearGradient id="paint27_linear_59_41323" x1="26.0194" y1="20.0379" x2="26.0194" y2="21.9499" gradientUnits="userSpaceOnUse">
<stop offset="0.466484" stop-color="#2CA5EB"/>
<stop offset="0.46875" stop-color="#36AEF1"/>
<stop offset="0.604167" stop-color="#36AEF1" stop-opacity="0.7"/>
<stop offset="0.807292" stop-color="#36AEF1" stop-opacity="0.15"/>
<stop offset="0.95701" stop-color="#36AEF1" stop-opacity="0"/>
</linearGradient>
<linearGradient id="paint28_linear_59_41323" x1="25.1559" y1="22.5978" x2="22.7382" y2="22.5847" gradientUnits="userSpaceOnUse">
<stop offset="0.19012" stop-color="#BAF7FB" stop-opacity="0"/>
<stop offset="0.594617" stop-color="#80FFFF"/>
</linearGradient>
<linearGradient id="paint29_linear_59_41323" x1="4.28513" y1="22.4502" x2="7.96066" y2="22.4502" gradientUnits="userSpaceOnUse">
<stop stop-color="#47ABE5"/>
<stop offset="1" stop-color="#44B8FF"/>
</linearGradient>
<linearGradient id="paint30_linear_59_41323" x1="9.14785" y1="21.9584" x2="6.42731" y2="21.9584" gradientUnits="userSpaceOnUse">
<stop offset="0.43825" stop-color="#1E8DDC"/>
<stop offset="0.598779" stop-color="#2EB4FF"/>
<stop offset="0.701518" stop-color="#41B8FB" stop-opacity="0"/>
</linearGradient>
<linearGradient id="paint31_linear_59_41323" x1="5.96861" y1="20.0379" x2="5.96861" y2="21.9499" gradientUnits="userSpaceOnUse">
<stop offset="0.264268" stop-color="#228EE3"/>
<stop offset="0.46875" stop-color="#228EE3"/>
<stop offset="0.604167" stop-color="#228EE3" stop-opacity="0.7"/>
<stop offset="0.807292" stop-color="#228EE3" stop-opacity="0.15"/>
<stop offset="0.95701" stop-color="#228EE3" stop-opacity="0"/>
</linearGradient>
<linearGradient id="paint32_linear_59_41323" x1="6.19066" y1="23.3456" x2="6.19025" y2="25.3107" gradientUnits="userSpaceOnUse">
<stop stop-color="#228EE3" stop-opacity="0"/>
<stop offset="0.185088" stop-color="#228EE3" stop-opacity="0.2"/>
<stop offset="0.466383" stop-color="#228EE3"/>
</linearGradient>
<linearGradient id="paint33_linear_59_41323" x1="5.10509" y1="22.5978" x2="2.68737" y2="22.5847" gradientUnits="userSpaceOnUse">
<stop offset="0.289255" stop-color="#228EE3" stop-opacity="0"/>
<stop offset="0.774692" stop-color="#228EE3"/>
</linearGradient>
<linearGradient id="paint34_linear_59_41323" x1="7.77397" y1="27.4891" x2="23.0253" y2="27.4891" gradientUnits="userSpaceOnUse">
<stop stop-color="#ACA3B3"/>
<stop offset="1" stop-color="#BEB3C4"/>
</linearGradient>
<linearGradient id="paint35_linear_59_41323" x1="15.9961" y1="1.7838" x2="15.9961" y2="4.43309" gradientUnits="userSpaceOnUse">
<stop stop-color="#B8B7B8"/>
<stop offset="1" stop-color="#B8B7B8" stop-opacity="0"/>
</linearGradient>
<linearGradient id="paint36_linear_59_41323" x1="25.9961" y1="17.8228" x2="23.8129" y2="17.8228" gradientUnits="userSpaceOnUse">
<stop stop-color="#E0DDE2"/>
<stop offset="1" stop-color="#E0DDE2" stop-opacity="0"/>
</linearGradient>
<radialGradient id="paint37_radial_59_41323" cx="0" cy="0" r="1" gradientUnits="userSpaceOnUse" gradientTransform="translate(26.3906 2.03516) rotate(136.93) scale(3.77359 2.7774)">
<stop stop-color="#E8E7E9"/>
<stop offset="1" stop-color="#E8E7E9" stop-opacity="0"/>
</radialGradient>
<radialGradient id="paint38_radial_59_41323" cx="0" cy="0" r="1" gradientUnits="userSpaceOnUse" gradientTransform="translate(15.9961 30.0352) rotate(-90) scale(3.65588 8.85508)">
<stop offset="0.216577" stop-color="#AFA5B7"/>
<stop offset="1" stop-color="#AFA5B7" stop-opacity="0"/>
</radialGradient>
<linearGradient id="paint39_linear_59_41323" x1="15.9961" y1="1.29908" x2="15.9961" y2="3.32516" gradientUnits="userSpaceOnUse">
<stop offset="0.34375"/>
<stop offset="0.5625" stop-opacity="0.3"/>
<stop offset="0.765625" stop-opacity="0.167857"/>
<stop offset="1" stop-opacity="0"/>
</linearGradient>
<linearGradient id="paint40_linear_59_41323" x1="4.69378" y1="3.32508" x2="12.6864" y2="3.32508" gradientUnits="userSpaceOnUse">
<stop offset="0.0807326"/>
<stop offset="0.364583" stop-opacity="0.6"/>
<stop offset="0.494792" stop-opacity="0.3"/>
<stop offset="0.567708" stop-opacity="0.167857"/>
<stop offset="1" stop-opacity="0"/>
</linearGradient>
<radialGradient id="paint41_radial_59_41323" cx="0" cy="0" r="1" gradientUnits="userSpaceOnUse" gradientTransform="translate(2.19482 -0.415499) rotate(32.8481) scale(8.25659 6.83276)">
<stop offset="0.128801" stop-opacity="0.25"/>
<stop offset="0.456546" stop-opacity="0.25"/>
<stop offset="0.857943" stop-opacity="0"/>
</radialGradient>
<linearGradient id="paint42_linear_59_41323" x1="12.9961" y1="27.5382" x2="19.4847" y2="27.5382" gradientUnits="userSpaceOnUse">
<stop stop-color="#4E405B"/>
<stop offset="1" stop-color="#3F324C"/>
</linearGradient>
<linearGradient id="paint43_linear_59_41323" x1="12.3409" y1="30.0352" x2="14.7085" y2="30.0352" gradientUnits="userSpaceOnUse">
<stop offset="0.244792" stop-color="#574C64"/>
<stop offset="0.90625" stop-color="#574C64" stop-opacity="0"/>
</linearGradient>
<linearGradient id="paint44_linear_59_41323" x1="17.486" y1="30.0352" x2="22.1074" y2="30.0352" gradientUnits="userSpaceOnUse">
<stop stop-color="#2D1E3C" stop-opacity="0"/>
<stop offset="0.0989583" stop-color="#2D1E3C" stop-opacity="0.15"/>
<stop offset="0.280788" stop-color="#2D1E3C" stop-opacity="0.75"/>
<stop offset="0.399015" stop-color="#2D1E3C"/>
</linearGradient>
<linearGradient id="paint45_linear_59_41323" x1="17.486" y1="25.9805" x2="17.486" y2="23.2981" gradientUnits="userSpaceOnUse">
<stop stop-color="#2D1E3C" stop-opacity="0"/>
<stop offset="0.0989583" stop-color="#2D1E3C" stop-opacity="0.15"/>
<stop offset="0.280788" stop-color="#2D1E3C" stop-opacity="0.75"/>
<stop offset="0.399015" stop-color="#2D1E3C"/>
</linearGradient>
<linearGradient id="paint46_linear_59_41323" x1="11.3047" y1="6.56835" x2="14.9802" y2="6.56835" gradientUnits="userSpaceOnUse">
<stop stop-color="#58E6FF"/>
<stop offset="1" stop-color="#44B8FF"/>
</linearGradient>
<linearGradient id="paint47_linear_59_41323" x1="16.1674" y1="6.07658" x2="13.4468" y2="6.07658" gradientUnits="userSpaceOnUse">
<stop offset="0.43825" stop-color="#1E8DDC"/>
<stop offset="0.598779" stop-color="#2EB4FF"/>
<stop offset="0.701518" stop-color="#41B8FB" stop-opacity="0"/>
</linearGradient>
<linearGradient id="paint48_linear_59_41323" x1="12.9881" y1="4.15603" x2="12.9881" y2="6.06808" gradientUnits="userSpaceOnUse">
<stop offset="0.466484" stop-color="#2CA5EB"/>
<stop offset="0.46875" stop-color="#36AEF1"/>
<stop offset="0.604167" stop-color="#36AEF1" stop-opacity="0.7"/>
<stop offset="0.807292" stop-color="#36AEF1" stop-opacity="0.15"/>
<stop offset="0.95701" stop-color="#36AEF1" stop-opacity="0"/>
</linearGradient>
<linearGradient id="paint49_linear_59_41323" x1="13.2102" y1="7.46377" x2="13.2098" y2="9.4289" gradientUnits="userSpaceOnUse">
<stop stop-color="#FAFAFA" stop-opacity="0"/>
<stop offset="0.161013" stop-color="#80FFFF" stop-opacity="0.2"/>
<stop offset="0.564552" stop-color="#80FFFF"/>
</linearGradient>
<linearGradient id="paint50_linear_59_41323" x1="12.1246" y1="6.71599" x2="9.7069" y2="6.70283" gradientUnits="userSpaceOnUse">
<stop offset="0.19012" stop-color="#BAF7FB" stop-opacity="0"/>
<stop offset="0.594617" stop-color="#80FFFF"/>
</linearGradient>
<linearGradient id="paint51_linear_59_41323" x1="11.3047" y1="11.5166" x2="14.9802" y2="11.5166" gradientUnits="userSpaceOnUse">
<stop stop-color="#58E6FF"/>
<stop offset="1" stop-color="#44B8FF"/>
</linearGradient>
<linearGradient id="paint52_linear_59_41323" x1="16.1674" y1="11.0248" x2="13.4468" y2="11.0248" gradientUnits="userSpaceOnUse">
<stop offset="0.43825" stop-color="#1E8DDC"/>
<stop offset="0.598779" stop-color="#2EB4FF"/>
<stop offset="0.701518" stop-color="#41B8FB" stop-opacity="0"/>
</linearGradient>
<linearGradient id="paint53_linear_59_41323" x1="12.9881" y1="9.10427" x2="12.9881" y2="11.0163" gradientUnits="userSpaceOnUse">
<stop offset="0.466484" stop-color="#2CA5EB"/>
<stop offset="0.46875" stop-color="#36AEF1"/>
<stop offset="0.604167" stop-color="#36AEF1" stop-opacity="0.7"/>
<stop offset="0.807292" stop-color="#36AEF1" stop-opacity="0.15"/>
<stop offset="0.95701" stop-color="#36AEF1" stop-opacity="0"/>
</linearGradient>
<linearGradient id="paint54_linear_59_41323" x1="13.2102" y1="12.412" x2="13.2098" y2="14.3771" gradientUnits="userSpaceOnUse">
<stop stop-color="#FAFAFA" stop-opacity="0"/>
<stop offset="0.161013" stop-color="#80FFFF" stop-opacity="0.2"/>
<stop offset="0.564552" stop-color="#80FFFF"/>
</linearGradient>
<linearGradient id="paint55_linear_59_41323" x1="12.1246" y1="11.6642" x2="9.7069" y2="11.6511" gradientUnits="userSpaceOnUse">
<stop offset="0.19012" stop-color="#BAF7FB" stop-opacity="0"/>
<stop offset="0.594617" stop-color="#80FFFF"/>
</linearGradient>
<linearGradient id="paint56_linear_59_41323" x1="11.3047" y1="16.4658" x2="14.9802" y2="16.4658" gradientUnits="userSpaceOnUse">
<stop stop-color="#58E6FF"/>
<stop offset="1" stop-color="#44B8FF"/>
</linearGradient>
<linearGradient id="paint57_linear_59_41323" x1="16.1674" y1="15.974" x2="13.4468" y2="15.974" gradientUnits="userSpaceOnUse">
<stop offset="0.43825" stop-color="#1E8DDC"/>
<stop offset="0.598779" stop-color="#2EB4FF"/>
<stop offset="0.701518" stop-color="#41B8FB" stop-opacity="0"/>
</linearGradient>
<linearGradient id="paint58_linear_59_41323" x1="12.9881" y1="14.0535" x2="12.9881" y2="15.9655" gradientUnits="userSpaceOnUse">
<stop offset="0.466484" stop-color="#2CA5EB"/>
<stop offset="0.46875" stop-color="#36AEF1"/>
<stop offset="0.604167" stop-color="#36AEF1" stop-opacity="0.7"/>
<stop offset="0.807292" stop-color="#36AEF1" stop-opacity="0.15"/>
<stop offset="0.95701" stop-color="#36AEF1" stop-opacity="0"/>
</linearGradient>
<linearGradient id="paint59_linear_59_41323" x1="13.2102" y1="17.3612" x2="13.2098" y2="19.3264" gradientUnits="userSpaceOnUse">
<stop stop-color="#FAFAFA" stop-opacity="0"/>
<stop offset="0.161013" stop-color="#80FFFF" stop-opacity="0.2"/>
<stop offset="0.564552" stop-color="#80FFFF"/>
</linearGradient>
<linearGradient id="paint60_linear_59_41323" x1="12.1246" y1="16.6135" x2="9.7069" y2="16.6003" gradientUnits="userSpaceOnUse">
<stop offset="0.19012" stop-color="#BAF7FB" stop-opacity="0"/>
<stop offset="0.594617" stop-color="#80FFFF"/>
</linearGradient>
<linearGradient id="paint61_linear_59_41323" x1="11.3047" y1="21.5674" x2="14.9802" y2="21.5674" gradientUnits="userSpaceOnUse">
<stop stop-color="#58E6FF"/>
<stop offset="1" stop-color="#44B8FF"/>
</linearGradient>
<linearGradient id="paint62_linear_59_41323" x1="16.1674" y1="21.0756" x2="13.4468" y2="21.0756" gradientUnits="userSpaceOnUse">
<stop offset="0.43825" stop-color="#1E8DDC"/>
<stop offset="0.598779" stop-color="#2EB4FF"/>
<stop offset="0.701518" stop-color="#41B8FB" stop-opacity="0"/>
</linearGradient>
<linearGradient id="paint63_linear_59_41323" x1="12.9881" y1="19.1551" x2="12.9881" y2="21.0671" gradientUnits="userSpaceOnUse">
<stop offset="0.466484" stop-color="#2CA5EB"/>
<stop offset="0.46875" stop-color="#36AEF1"/>
<stop offset="0.604167" stop-color="#36AEF1" stop-opacity="0.7"/>
<stop offset="0.807292" stop-color="#36AEF1" stop-opacity="0.15"/>
<stop offset="0.95701" stop-color="#36AEF1" stop-opacity="0"/>
</linearGradient>
<linearGradient id="paint64_linear_59_41323" x1="13.2102" y1="22.4628" x2="13.2098" y2="24.4279" gradientUnits="userSpaceOnUse">
<stop stop-color="#FAFAFA" stop-opacity="0"/>
<stop offset="0.161013" stop-color="#80FFFF" stop-opacity="0.2"/>
<stop offset="0.564552" stop-color="#80FFFF"/>
</linearGradient>
<linearGradient id="paint65_linear_59_41323" x1="12.1246" y1="21.715" x2="9.7069" y2="21.7019" gradientUnits="userSpaceOnUse">
<stop offset="0.19012" stop-color="#BAF7FB" stop-opacity="0"/>
<stop offset="0.594617" stop-color="#80FFFF"/>
</linearGradient>
<linearGradient id="paint66_linear_59_41323" x1="17.289" y1="6.56835" x2="20.9646" y2="6.56835" gradientUnits="userSpaceOnUse">
<stop stop-color="#58E6FF"/>
<stop offset="1" stop-color="#44B8FF"/>
</linearGradient>
<linearGradient id="paint67_linear_59_41323" x1="22.1518" y1="6.07658" x2="19.4312" y2="6.07658" gradientUnits="userSpaceOnUse">
<stop offset="0.43825" stop-color="#1E8DDC"/>
<stop offset="0.598779" stop-color="#2EB4FF"/>
<stop offset="0.701518" stop-color="#41B8FB" stop-opacity="0"/>
</linearGradient>
<linearGradient id="paint68_linear_59_41323" x1="18.9725" y1="4.15603" x2="18.9725" y2="6.06808" gradientUnits="userSpaceOnUse">
<stop offset="0.466484" stop-color="#2CA5EB"/>
<stop offset="0.46875" stop-color="#36AEF1"/>
<stop offset="0.604167" stop-color="#36AEF1" stop-opacity="0.7"/>
<stop offset="0.807292" stop-color="#36AEF1" stop-opacity="0.15"/>
<stop offset="0.95701" stop-color="#36AEF1" stop-opacity="0"/>
</linearGradient>
<linearGradient id="paint69_linear_59_41323" x1="19.1946" y1="7.46377" x2="19.1942" y2="9.4289" gradientUnits="userSpaceOnUse">
<stop stop-color="#FAFAFA" stop-opacity="0"/>
<stop offset="0.161013" stop-color="#80FFFF" stop-opacity="0.2"/>
<stop offset="0.564552" stop-color="#80FFFF"/>
</linearGradient>
<linearGradient id="paint70_linear_59_41323" x1="18.109" y1="6.71599" x2="15.6913" y2="6.70283" gradientUnits="userSpaceOnUse">
<stop offset="0.19012" stop-color="#BAF7FB" stop-opacity="0"/>
<stop offset="0.594617" stop-color="#80FFFF"/>
</linearGradient>
<linearGradient id="paint71_linear_59_41323" x1="17.289" y1="11.5166" x2="20.9646" y2="11.5166" gradientUnits="userSpaceOnUse">
<stop stop-color="#58E6FF"/>
<stop offset="1" stop-color="#44B8FF"/>
</linearGradient>
<linearGradient id="paint72_linear_59_41323" x1="22.1518" y1="11.0248" x2="19.4312" y2="11.0248" gradientUnits="userSpaceOnUse">
<stop offset="0.43825" stop-color="#1E8DDC"/>
<stop offset="0.598779" stop-color="#2EB4FF"/>
<stop offset="0.701518" stop-color="#41B8FB" stop-opacity="0"/>
</linearGradient>
<linearGradient id="paint73_linear_59_41323" x1="18.9725" y1="9.10427" x2="18.9725" y2="11.0163" gradientUnits="userSpaceOnUse">
<stop offset="0.466484" stop-color="#2CA5EB"/>
<stop offset="0.46875" stop-color="#36AEF1"/>
<stop offset="0.604167" stop-color="#36AEF1" stop-opacity="0.7"/>
<stop offset="0.807292" stop-color="#36AEF1" stop-opacity="0.15"/>
<stop offset="0.95701" stop-color="#36AEF1" stop-opacity="0"/>
</linearGradient>
<linearGradient id="paint74_linear_59_41323" x1="19.1946" y1="12.412" x2="19.1942" y2="14.3771" gradientUnits="userSpaceOnUse">
<stop stop-color="#FAFAFA" stop-opacity="0"/>
<stop offset="0.161013" stop-color="#80FFFF" stop-opacity="0.2"/>
<stop offset="0.564552" stop-color="#80FFFF"/>
</linearGradient>
<linearGradient id="paint75_linear_59_41323" x1="18.109" y1="11.6642" x2="15.6913" y2="11.6511" gradientUnits="userSpaceOnUse">
<stop offset="0.19012" stop-color="#BAF7FB" stop-opacity="0"/>
<stop offset="0.594617" stop-color="#80FFFF"/>
</linearGradient>
<linearGradient id="paint76_linear_59_41323" x1="17.289" y1="16.4658" x2="20.9646" y2="16.4658" gradientUnits="userSpaceOnUse">
<stop stop-color="#58E6FF"/>
<stop offset="1" stop-color="#44B8FF"/>
</linearGradient>
<linearGradient id="paint77_linear_59_41323" x1="22.1518" y1="15.974" x2="19.4312" y2="15.974" gradientUnits="userSpaceOnUse">
<stop offset="0.43825" stop-color="#1E8DDC"/>
<stop offset="0.598779" stop-color="#2EB4FF"/>
<stop offset="0.701518" stop-color="#41B8FB" stop-opacity="0"/>
</linearGradient>
<linearGradient id="paint78_linear_59_41323" x1="18.9725" y1="14.0535" x2="18.9725" y2="15.9655" gradientUnits="userSpaceOnUse">
<stop offset="0.466484" stop-color="#2CA5EB"/>
<stop offset="0.46875" stop-color="#36AEF1"/>
<stop offset="0.604167" stop-color="#36AEF1" stop-opacity="0.7"/>
<stop offset="0.807292" stop-color="#36AEF1" stop-opacity="0.15"/>
<stop offset="0.95701" stop-color="#36AEF1" stop-opacity="0"/>
</linearGradient>
<linearGradient id="paint79_linear_59_41323" x1="19.1946" y1="17.3612" x2="19.1942" y2="19.3264" gradientUnits="userSpaceOnUse">
<stop stop-color="#FAFAFA" stop-opacity="0"/>
<stop offset="0.161013" stop-color="#80FFFF" stop-opacity="0.2"/>
<stop offset="0.564552" stop-color="#80FFFF"/>
</linearGradient>
<linearGradient id="paint80_linear_59_41323" x1="18.109" y1="16.6135" x2="15.6913" y2="16.6003" gradientUnits="userSpaceOnUse">
<stop offset="0.19012" stop-color="#BAF7FB" stop-opacity="0"/>
<stop offset="0.594617" stop-color="#80FFFF"/>
</linearGradient>
<linearGradient id="paint81_linear_59_41323" x1="17.289" y1="21.5674" x2="20.9646" y2="21.5674" gradientUnits="userSpaceOnUse">
<stop stop-color="#58E6FF"/>
<stop offset="1" stop-color="#44B8FF"/>
</linearGradient>
<linearGradient id="paint82_linear_59_41323" x1="22.1518" y1="21.0756" x2="19.4312" y2="21.0756" gradientUnits="userSpaceOnUse">
<stop offset="0.43825" stop-color="#1E8DDC"/>
<stop offset="0.598779" stop-color="#2EB4FF"/>
<stop offset="0.701518" stop-color="#41B8FB" stop-opacity="0"/>
</linearGradient>
<linearGradient id="paint83_linear_59_41323" x1="18.9725" y1="19.1551" x2="18.9725" y2="21.0671" gradientUnits="userSpaceOnUse">
<stop offset="0.466484" stop-color="#2CA5EB"/>
<stop offset="0.46875" stop-color="#36AEF1"/>
<stop offset="0.604167" stop-color="#36AEF1" stop-opacity="0.7"/>
<stop offset="0.807292" stop-color="#36AEF1" stop-opacity="0.15"/>
<stop offset="0.95701" stop-color="#36AEF1" stop-opacity="0"/>
</linearGradient>
<linearGradient id="paint84_linear_59_41323" x1="19.1946" y1="22.4628" x2="19.1942" y2="24.4279" gradientUnits="userSpaceOnUse">
<stop stop-color="#FAFAFA" stop-opacity="0"/>
<stop offset="0.161013" stop-color="#80FFFF" stop-opacity="0.2"/>
<stop offset="0.564552" stop-color="#80FFFF"/>
</linearGradient>
<linearGradient id="paint85_linear_59_41323" x1="18.109" y1="21.715" x2="15.6913" y2="21.7019" gradientUnits="userSpaceOnUse">
<stop offset="0.19012" stop-color="#BAF7FB" stop-opacity="0"/>
<stop offset="0.594617" stop-color="#80FFFF"/>
</linearGradient>
</defs>
</svg>
