<svg width="144" height="20" viewBox="0 0 144 20" fill="none" xmlns="http://www.w3.org/2000/svg">
<g id="LOGO" clip-path="url(#clip0_4018_7730)">
<path id="Vector" d="M13.1912 10.6374C12.6937 12.0135 12.1994 13.3912 11.6969 14.7658C11.3005 15.853 10.4767 16.3798 9.1683 16.3958C7.95784 16.4101 7.26777 15.944 6.85504 14.8041C6.30364 13.2779 5.76366 11.7469 5.05402 10.243C5.05402 12.5771 5.05402 14.9111 5.05402 17.2451C5.05402 18.7234 4.69023 19.1273 3.18938 19.3173C2.93488 19.3492 2.67713 19.3731 2.42101 19.3779C0.434013 19.4163 0.053906 19.0523 0.0473806 17.1317C0.0326984 12.3504 0.0163848 7.56898 7.12065e-05 2.7876C-0.00645423 1.07142 0.434013 0.475941 1.94302 0.156651C3.70652 -0.216919 5.05565 0.324278 5.64946 1.71958C6.78326 4.38565 7.8779 7.06769 8.99212 9.75133C9.31839 9.69226 9.29881 9.39692 9.39017 9.19098C10.4571 6.77554 11.5175 4.35692 12.5795 1.93989C13.4441 -0.0301344 16.5959 -0.663926 18.2011 0.8096C18.6269 1.20073 18.7982 1.67807 18.7884 2.24321C18.7085 7.40135 18.6367 12.5595 18.5568 17.7176C18.5437 18.5414 18.1343 19.0842 17.2827 19.2486C16.9368 19.3157 16.5877 19.3795 16.237 19.3939C13.8242 19.4929 13.3707 19.065 13.3707 16.7182C13.3707 14.7051 13.3707 12.692 13.3707 10.6789L13.1912 10.639V10.6374Z" fill="#6E6F73"/>
<path id="Vector_2" d="M75.5252 7.67864C76.4893 7.67864 77.4551 7.65469 78.4192 7.68343C79.9103 7.72973 80.7455 8.54072 80.7521 9.98871C80.7586 11.2116 80.801 12.4361 80.5449 13.6542C79.9641 16.4224 78.3719 18.2743 75.579 19.0997C73.6345 19.6744 71.6556 19.8005 69.6768 19.3822C67.3162 18.8841 65.5233 17.5878 64.4711 15.4294C63.1987 12.8208 62.8528 10.0637 63.4629 7.25398C64.4499 2.70569 67.8627 0.0954921 72.6295 0.121035C74.6133 0.132211 76.5203 0.512166 78.2626 1.47962C79.801 2.33372 80.1517 3.36982 79.3328 4.5464C78.3882 5.90498 76.3066 6.51962 75.3343 5.56973C74.8025 5.04928 74.1059 4.78268 73.3588 4.68529C70.9655 4.37239 69.5756 5.34622 69.1107 7.71217C68.773 9.42835 68.7371 11.1573 69.326 12.8336C70.0536 14.9026 72.3212 15.637 74.1989 14.4524C74.4991 14.2624 74.7617 14.0261 74.9281 13.7132C75.1679 13.2598 75.4159 12.717 75.1826 12.2812C74.982 11.906 74.4175 12.1758 74.0146 12.1583C73.7274 12.1455 73.4371 12.1774 73.1467 12.1918C72.2723 12.2381 71.4337 12.1615 71.0096 11.2675C70.5626 10.3272 70.5626 9.37088 71.1385 8.46888C71.4533 7.97398 71.946 7.77443 72.5366 7.77762C73.592 7.70738 74.5301 7.68024 75.5268 7.68024C75.5268 7.64831 75.5268 7.71217 75.5268 7.68024L75.5252 7.67864Z" fill="#6E6F73"/>
<path id="Vector_3" d="M38.2628 9.70017C38.2709 10.9518 38.1453 12.1316 37.8859 13.3066C36.8517 17.9969 33.3018 19.852 28.8613 19.5024C24.5496 19.1623 21.8415 16.509 21.0993 12.1619C20.7322 10.0211 20.8725 7.89139 21.4859 5.81121C22.4092 2.68216 24.486 0.728105 27.827 0.27152C32.6215 -0.383026 36.2888 1.13999 37.7848 5.84314C38.1877 7.11072 38.3199 8.4262 38.2628 9.70017ZM26.8906 9.80713C26.8824 11.0731 26.9689 12.3295 27.5105 13.4997C27.9216 14.3905 28.579 14.9701 29.6655 14.9349C30.7455 14.8998 31.4062 14.3075 31.7129 13.3736C32.4878 11.0109 32.5171 8.61298 31.783 6.23906C31.4355 5.11516 30.7275 4.65059 29.6818 4.63303C28.5774 4.61387 27.8661 5.0944 27.424 6.18957C26.9542 7.35178 26.9004 8.57786 26.8906 9.80713Z" fill="#6E6F73"/>
<path id="Vector_4" d="M111.998 9.79418C111.998 7.33883 111.993 4.88508 111.999 2.42974C112.003 1.02007 112.59 0.292091 114.039 0.205882C116.673 0.0494299 119.313 0.0749732 121.886 0.764641C124.796 1.54531 126.649 3.36526 127.331 6.2708C127.802 8.28393 127.949 10.3162 127.537 12.3501C126.78 16.0906 124.21 18.0877 120.626 19.0137C118.693 19.5134 116.704 19.6794 114.703 19.598C112.678 19.515 111.999 18.8269 111.998 16.8744C111.996 14.5149 111.998 12.1537 111.998 9.79418ZM117.804 9.78939C117.791 9.78939 117.817 9.78939 117.804 9.78939C117.804 11.2645 117.812 12.7396 117.745 14.2116C117.711 14.9587 118.019 15.0258 118.623 14.9076C120.164 14.6027 121.241 13.7885 121.669 12.2687C122.094 10.7552 122.011 9.21147 121.786 7.69165C121.484 5.66415 120.613 4.95054 118.523 4.6089C117.828 4.49555 117.788 4.7414 117.796 5.27302" fill="#6E6F73"/>
<path id="Vector_5" d="M83.0595 7.68349C83.0595 5.79489 83.0497 3.90788 83.0628 2.01928C83.0709 0.837902 83.4788 0.408456 84.6452 0.138656C85.6142 -0.086444 86.5669 0.00615023 87.5148 0.189742C88.5034 0.381317 88.8623 0.90176 88.8574 2.05759C88.8427 5.58096 88.7986 9.10593 88.8003 12.6293C88.8003 14.569 90.1967 15.5524 92.1103 15.0208C93.1593 14.7302 93.6421 14.0278 93.6634 12.7059C93.7188 9.24482 93.7612 5.78371 93.8151 2.3242C93.8412 0.63196 94.3289 0.173778 96.0826 0.168988C96.851 0.167392 97.6275 0.108323 98.3698 0.381317C99.1235 0.659099 99.639 1.13484 99.6178 1.97777C99.5199 5.8779 99.515 9.78283 99.272 13.6734C99.0697 16.9078 97.36 18.6559 94.0924 19.3392C91.8917 19.799 89.6828 19.7239 87.5164 19.1109C84.6501 18.2999 83.1101 16.2995 83.0285 13.2519C82.9796 11.3968 83.0187 9.53857 83.0187 7.68349H83.0579H83.0595Z" fill="#6E6F73"/>
<path id="Vector_6" d="M130.107 9.61553C130.107 7.25598 130.097 4.89802 130.11 2.53846C130.118 1.16551 130.784 0.384848 132.194 0.354515C135.598 0.282675 139.006 0.305025 142.412 0.292254C143.177 0.289061 143.61 0.728085 143.763 1.40179C143.91 2.04675 143.915 2.71407 143.74 3.36383C143.527 4.15886 143.027 4.57873 142.145 4.56915C140.313 4.5484 138.481 4.58352 136.649 4.55159C136.091 4.54201 135.879 4.64259 135.872 5.25722C135.846 7.48906 135.818 7.48906 138.062 7.48906C139.283 7.48906 140.504 7.48108 141.726 7.49225C142.82 7.50343 143.212 7.88658 143.27 8.96897C143.272 9.0009 143.27 9.03123 143.272 9.06316C143.368 11.4419 143.14 11.6782 140.74 11.6782C139.358 11.6782 137.975 11.6957 136.595 11.6686C136.094 11.659 135.827 11.7356 135.866 12.3167C135.926 13.2219 135.564 14.4049 136.024 14.9636C136.508 15.5511 137.763 15.0977 138.68 15.1201C139.867 15.1488 141.058 15.1009 142.248 15.1137C143.496 15.1265 143.903 15.5208 143.983 16.7517C144.005 17.0646 144.011 17.3823 143.987 17.6936C143.879 19.0809 143.489 19.4273 142.05 19.4289C139.254 19.4321 136.458 19.4337 133.662 19.4257C133.182 19.4257 132.693 19.4146 132.225 19.3268C130.701 19.0426 130.133 18.396 130.12 16.8826C130.097 14.4608 130.114 12.0389 130.114 9.61713H130.109L130.107 9.61553Z" fill="#6E6F73"/>
<path id="Vector_7" d="M48.1089 0.560496C48.5266 0.560496 48.9475 0.520585 49.3602 0.568479C50.4728 0.694598 51.2509 1.0969 51.6702 2.30382C53.3391 7.11393 55.1368 11.8809 56.8857 16.6655C57.3196 17.8517 57.0798 18.3673 55.8742 18.8638C55.1597 19.1592 54.4044 19.314 53.6409 19.3938C52.2085 19.5439 51.6066 19.1017 51.1547 17.7607C50.8757 16.9353 50.9328 15.7779 50.2477 15.3692C49.6212 14.9956 48.5706 15.2926 47.706 15.3085C46.1714 15.3373 45.1654 16.0487 44.688 17.443C44.1529 19.0043 43.6765 19.3364 42.0077 19.2406C41.5003 19.2119 40.9848 19.1368 40.4954 19.0043C38.9717 18.594 38.6144 17.8644 39.1887 16.4037C41.006 11.7804 42.8935 7.18098 44.6064 2.51934C45.1546 1.02666 46.06 0.498235 47.5298 0.530164C47.7223 0.534953 47.9148 0.530164 48.1073 0.530164C48.1073 0.539743 48.1073 0.549321 48.1073 0.5589L48.1089 0.560496ZM48.0518 7.50506C47.8218 8.19633 47.6668 8.66888 47.507 9.14143C47.1002 10.343 47.5537 10.8853 48.8675 10.7682C48.9197 10.7634 48.9654 10.6996 49.016 10.6613C48.7174 9.68263 48.4189 8.7056 48.0518 7.50506Z" fill="#6E6F73"/>
<path id="Vector_8" d="M102.697 9.88995C102.697 7.37234 102.76 4.85474 102.77 2.33713C102.775 0.917887 103.271 0.379883 104.698 0.0941177C105.577 -0.0814921 106.434 0.0605922 107.269 0.261745C108.217 0.490038 108.719 1.13181 108.703 2.12161C108.622 7.31328 108.543 12.5033 108.462 17.695C108.449 18.5715 108.011 19.0887 107.111 19.2547C106.086 19.4431 105.073 19.4575 104.049 19.2659C103.108 19.0919 102.682 18.5731 102.69 17.6296C102.711 15.0497 102.697 12.4682 102.697 9.88835C102.672 9.88835 102.721 9.88835 102.697 9.88835V9.88995Z" fill="#6E6F73"/>
</g>
<defs>
<clipPath id="clip0_4018_7730">
<rect width="144" height="19.6364" fill="white"/>
</clipPath>
</defs>
</svg>
