<svg width="36" height="41" viewBox="0 0 36 41" fill="none" xmlns="http://www.w3.org/2000/svg">
<g filter="url(#filter0_d_4027_21507)">
<path d="M27 31.5L17.999 25.875L9 31.5V6.75C9 6.45163 9.11853 6.16548 9.32951 5.95451C9.54048 5.74353 9.82663 5.625 10.125 5.625H25.875C26.1734 5.625 26.4595 5.74353 26.6705 5.95451C26.8815 6.16548 27 6.45163 27 6.75V31.5Z" fill="#6F36E8"/>
<path d="M27 31.5L17.999 25.875L9 31.5V6.75C9 6.45163 9.11853 6.16548 9.32951 5.95451C9.54048 5.74353 9.82663 5.625 10.125 5.625H25.875C26.1734 5.625 26.4595 5.74353 26.6705 5.95451C26.8815 6.16548 27 6.45163 27 6.75V31.5Z" stroke="#6F36E8" stroke-width="2" stroke-linecap="round" stroke-linejoin="round"/>
</g>
<path d="M14.5068 21L14.4932 19.5098L18.0479 16.2422C18.9775 15.3535 19.4697 14.8066 19.4697 14.0273C19.4697 13.1523 18.7998 12.6055 17.8975 12.6055C16.9678 12.6055 16.3662 13.1934 16.3662 14.1367H14.4111C14.3975 12.1953 15.833 10.9648 17.9248 10.9648C20.0439 10.9648 21.4521 12.168 21.4521 13.8906C21.4521 15.0117 20.9053 15.9414 18.8682 17.7871L17.3643 19.25V19.3047H21.5889V21H14.5068Z" fill="white"/>
<defs>
<filter id="filter0_d_4027_21507" x="4" y="4.625" width="28" height="35.875" filterUnits="userSpaceOnUse" color-interpolation-filters="sRGB">
<feFlood flood-opacity="0" result="BackgroundImageFix"/>
<feColorMatrix in="SourceAlpha" type="matrix" values="0 0 0 0 0 0 0 0 0 0 0 0 0 0 0 0 0 0 127 0" result="hardAlpha"/>
<feOffset dy="4"/>
<feGaussianBlur stdDeviation="2"/>
<feComposite in2="hardAlpha" operator="out"/>
<feColorMatrix type="matrix" values="0 0 0 0 0 0 0 0 0 0 0 0 0 0 0 0 0 0 0.2 0"/>
<feBlend mode="normal" in2="BackgroundImageFix" result="effect1_dropShadow_4027_21507"/>
<feBlend mode="normal" in="SourceGraphic" in2="effect1_dropShadow_4027_21507" result="shape"/>
</filter>
</defs>
</svg>
