<svg width="36" height="41" viewBox="0 0 36 41" fill="none" xmlns="http://www.w3.org/2000/svg">
<g filter="url(#filter0_d_4027_21535)">
<path d="M27 31.5L17.999 25.875L9 31.5V6.75C9 6.45163 9.11853 6.16548 9.32951 5.95451C9.54048 5.74353 9.82663 5.625 10.125 5.625H25.875C26.1734 5.625 26.4595 5.74353 26.6705 5.95451C26.8815 6.16548 27 6.45163 27 6.75V31.5Z" fill="#6F36E8"/>
<path d="M27 31.5L17.999 25.875L9 31.5V6.75C9 6.45163 9.11853 6.16548 9.32951 5.95451C9.54048 5.74353 9.82663 5.625 10.125 5.625H25.875C26.1734 5.625 26.4595 5.74353 26.6705 5.95451C26.8815 6.16548 27 6.45163 27 6.75V31.5Z" stroke="#6F36E8" stroke-width="2" stroke-linecap="round" stroke-linejoin="round"/>
</g>
<path d="M19.7637 11.1016V21H17.6992V13.0566H17.6445L15.375 14.4785V12.6602L17.8223 11.1016H19.7637Z" fill="white"/>
<defs>
<filter id="filter0_d_4027_21535" x="4" y="4.625" width="28" height="35.875" filterUnits="userSpaceOnUse" color-interpolation-filters="sRGB">
<feFlood flood-opacity="0" result="BackgroundImageFix"/>
<feColorMatrix in="SourceAlpha" type="matrix" values="0 0 0 0 0 0 0 0 0 0 0 0 0 0 0 0 0 0 127 0" result="hardAlpha"/>
<feOffset dy="4"/>
<feGaussianBlur stdDeviation="2"/>
<feComposite in2="hardAlpha" operator="out"/>
<feColorMatrix type="matrix" values="0 0 0 0 0 0 0 0 0 0 0 0 0 0 0 0 0 0 0.2 0"/>
<feBlend mode="normal" in2="BackgroundImageFix" result="effect1_dropShadow_4027_21535"/>
<feBlend mode="normal" in="SourceGraphic" in2="effect1_dropShadow_4027_21535" result="shape"/>
</filter>
</defs>
</svg>
