<svg width="36" height="41" viewBox="0 0 36 41" fill="none" xmlns="http://www.w3.org/2000/svg">
<g filter="url(#filter0_d_4027_10525)">
<path d="M27 31.5L17.999 25.875L9 31.5V6.75C9 6.45163 9.11853 6.16548 9.32951 5.95451C9.54048 5.74353 9.82663 5.625 10.125 5.625H25.875C26.1734 5.625 26.4595 5.74353 26.6705 5.95451C26.8815 6.16548 27 6.45163 27 6.75V31.5Z" fill="#6F36E8"/>
<path d="M27 31.5L17.999 25.875L9 31.5V6.75C9 6.45163 9.11853 6.16548 9.32951 5.95451C9.54048 5.74353 9.82663 5.625 10.125 5.625H25.875C26.1734 5.625 26.4595 5.74353 26.6705 5.95451C26.8815 6.16548 27 6.45163 27 6.75V31.5Z" stroke="#6F36E8" stroke-width="2" stroke-linecap="round" stroke-linejoin="round"/>
</g>
<path d="M17.9727 21.1367C15.7988 21.1367 14.2402 19.9336 14.1992 18.2109H16.2773C16.3184 18.9492 17.0293 19.4414 17.9863 19.4414C18.9707 19.4414 19.6816 18.8809 19.668 18.0879C19.6816 17.2812 18.957 16.707 17.7949 16.707H16.8789V15.1895H17.7949C18.7656 15.1895 19.4492 14.6562 19.4492 13.877C19.4492 13.125 18.875 12.6055 18 12.6055C17.125 12.6055 16.4004 13.0977 16.373 13.8496H14.4043C14.4316 12.1406 15.9766 10.9648 18 10.9648C20.0645 10.9648 21.4453 12.1816 21.4316 13.7539C21.4453 14.8613 20.666 15.6543 19.5586 15.8457V15.9277C21.0078 16.1055 21.8145 16.9941 21.8008 18.2246C21.8145 19.9199 20.2012 21.1367 17.9727 21.1367Z" fill="white"/>
<defs>
<filter id="filter0_d_4027_10525" x="4" y="4.625" width="28" height="35.875" filterUnits="userSpaceOnUse" color-interpolation-filters="sRGB">
<feFlood flood-opacity="0" result="BackgroundImageFix"/>
<feColorMatrix in="SourceAlpha" type="matrix" values="0 0 0 0 0 0 0 0 0 0 0 0 0 0 0 0 0 0 127 0" result="hardAlpha"/>
<feOffset dy="4"/>
<feGaussianBlur stdDeviation="2"/>
<feComposite in2="hardAlpha" operator="out"/>
<feColorMatrix type="matrix" values="0 0 0 0 0 0 0 0 0 0 0 0 0 0 0 0 0 0 0.2 0"/>
<feBlend mode="normal" in2="BackgroundImageFix" result="effect1_dropShadow_4027_10525"/>
<feBlend mode="normal" in="SourceGraphic" in2="effect1_dropShadow_4027_10525" result="shape"/>
</filter>
</defs>
</svg>
