<svg width="61" height="60" viewBox="0 0 61 60" fill="none" xmlns="http://www.w3.org/2000/svg">
<g id="Megaphone">
<g id="Megaphone_2">
<path id="Vector" d="M45.666 37.4999C48.1524 37.4999 50.537 36.5122 52.2951 34.754C54.0533 32.9959 55.041 30.6113 55.041 28.1249C55.041 25.6385 54.0533 23.2539 52.2951 21.4958C50.537 19.7376 48.1524 18.7499 45.666 18.7499H36.291C36.291 18.7499 23.5289 18.7499 11.2478 8.44967C10.9747 8.21978 10.6416 8.07267 10.2877 8.02563C9.93379 7.97858 9.57382 8.03357 9.25012 8.18412C8.92641 8.33466 8.65242 8.57451 8.46037 8.87546C8.26833 9.1764 8.1662 9.52593 8.16602 9.88293V46.3669C8.1662 46.7239 8.26833 47.0734 8.46037 47.3743C8.65242 47.6753 8.92641 47.9151 9.25012 48.0657C9.57382 48.2162 9.93379 48.2712 10.2877 48.2242C10.6416 48.1771 10.9747 48.03 11.2478 47.8001C23.5289 37.4999 36.291 37.4999 36.291 37.4999H45.666Z" fill="#6F36E8" fill-opacity="0.2"/>
<path id="Vector_2" d="M36.666 18.75L36.291 47.7465C36.291 48.0552 36.3672 48.3591 36.5129 48.6313C36.6585 48.9034 36.8691 49.1354 37.126 49.3066L39.7022 51.0241C39.9522 51.1908 40.2386 51.295 40.5373 51.3278C40.836 51.3607 41.1382 51.3213 41.4184 51.2129C41.6987 51.1046 41.9488 50.9304 42.1477 50.7052C42.3466 50.48 42.4884 50.2103 42.5613 49.9188L45.666 37.5" fill="#B79AF4"/>
</g>
<path id="Vector_3" d="M46.041 37.5C48.5274 37.5 50.912 36.5125 52.6701 34.7542C54.4283 32.9959 55.416 30.6116 55.416 28.125C55.416 25.6384 54.4283 23.2542 52.6701 21.4959C50.912 19.7376 48.5274 18.75 46.041 18.75H36.666L36.6708 37.5C36.666 37.5 36.6738 37.5 36.6738 37.5H46.041Z" fill="#B79AF4"/>
<path id="Vector_4" d="M14.166 22.5L14.166 33" stroke="#6F36E8" stroke-width="2" stroke-linecap="round" stroke-linejoin="round"/>
</g>
</svg>
