<svg width="692" height="187" viewBox="0 0 692 187" fill="none" xmlns="http://www.w3.org/2000/svg">
<g clip-path="url(#clip0_807_77457)">
<rect width="692" height="187" rx="12" fill="#8F5AFF" fill-opacity="0.3"/>
<ellipse cx="542" cy="213.323" rx="112" ry="112.5" fill="url(#paint0_linear_807_77457)" fill-opacity="0.3"/>
<rect x="351.346" y="-138" width="226.329" height="113.627" transform="rotate(45 351.346 -138)" fill="url(#paint1_linear_807_77457)" fill-opacity="0.3"/>
<path d="M41.4219 38.6406V40.2656H35.875V44.4375H33.9062V40.2656H28.4062V38.6406H41.4219ZM40.0312 36.0312V37.6094H30.0469V30.7969H39.875V32.3594H32V33.4219H39.5781V34.9531H32V36.0312H40.0312ZM47.5 34.0938C47.4844 36.2656 48.6406 38.7656 50.9844 39.8438L49.875 41.4062C48.2891 40.6797 47.1562 39.2266 46.5312 37.5156C45.8906 39.3984 44.7266 40.9922 43.0781 41.7656L41.9219 40.1875C44.2969 39.0781 45.4844 36.4375 45.5 34.0938V33.2188H42.4844V31.5938H50.3594V33.2188H47.5V34.0938ZM53.4688 30.2188V35.6406H55.5625V37.3125H53.4688V44.4375H51.4688V30.2188H53.4688ZM70.9844 30.2188V35.6719H73V37.3125H70.9844V44.4062H68.9844V30.2188H70.9844ZM67.1875 31.6719C67.1719 35.9219 65.5156 39.6094 60.7344 41.9531L59.6094 40.4219C62.9766 38.7344 64.7812 36.4688 65.1562 33.2969H60.4219V31.6719H67.1875ZM85.5 30.2188V44.4688H83.4844V30.2188H85.5ZM77.7812 31.2188C79.9219 31.2188 81.5156 33.1875 81.5156 36.2812C81.5156 39.4062 79.9219 41.3594 77.7812 41.3594C75.5938 41.3594 74 39.4062 74.0156 36.2812C74 33.1875 75.5938 31.2188 77.7812 31.2188ZM77.7812 33.0156C76.6719 33.0156 75.9375 34.1719 75.9375 36.2812C75.9375 38.4062 76.6719 39.5469 77.7812 39.5469C78.8594 39.5469 79.5938 38.4062 79.5938 36.2812C79.5938 34.1719 78.8594 33.0156 77.7812 33.0156ZM99.0156 36.7969V38.3906H88.9531V31.4062H98.9062V33.0156H90.9219V36.7969H99.0156ZM100.438 41.0625V42.7031H87.4219V41.0625H100.438Z" fill="#8F5AFF"/>
<path d="M31.5547 78H28.3906L33.293 63.8594H37.0625L41.9453 78H38.8008L37.7461 74.7383H32.6289L31.5547 78ZM33.3711 72.4531H37.0039L35.2266 67.043H35.1289L33.3711 72.4531ZM50.0703 69.7773V72.082H43.625V69.7773H50.0703ZM52.3555 78V76.2422L59.4453 66.2812H52.3359V63.8594H63.1172V65.6172L56.0469 75.5781H63.1367V78H52.3555ZM78.918 62.0234V68.9961H81.2812V71.0469H78.918V79.7969H76.418V62.0234H78.918ZM69.9922 63.8398C69.9727 68.7227 69.4648 72.5312 66.2812 76.0273L64.3281 74.6406C66.75 72.0234 67.4531 69.416 67.6094 65.8711H65.1094V63.8398H69.9922ZM74.9141 63.8398C74.9141 68.918 74.4648 73.3125 71.3203 77.1797L69.3477 75.793C71.7598 72.8242 72.4141 69.7773 72.5703 65.8711H70.5781V63.8398H74.9141ZM88.8594 66.8672C88.8594 69.7383 90.3242 72.8047 93.3125 74.0547L91.9648 76.0078C89.8652 75.1191 88.4199 73.3516 87.6289 71.1836C86.8184 73.5371 85.3438 75.4902 83.2539 76.457L81.8281 74.4844C84.7773 73.1758 86.3008 69.875 86.3008 66.8672V65.7734H82.5312V63.7422H92.5703V65.7734H88.8594V66.8672ZM96.8477 62.0234V79.7969H94.3281V62.0234H96.8477ZM120.129 75.6758V77.668H103.859V75.6758H110.656V71.6523H113.137V75.6758H120.129ZM113.215 64.3086C113.215 66.8477 115.5 69.5234 119.562 70.1484L118.508 72.2188C115.383 71.6523 113.059 69.9824 111.887 67.7656C110.715 69.9727 108.41 71.6621 105.305 72.2188L104.25 70.1484C108.273 69.5234 110.539 66.8281 110.559 64.3086V63.0391H113.215V64.3086ZM125.305 63.0977C127.668 63.0977 129.406 64.8945 129.426 67.4336C129.406 70.0117 127.668 71.75 125.305 71.75C122.941 71.75 121.223 70.0117 121.223 67.4336C121.223 64.8945 122.941 63.0977 125.305 63.0977ZM125.305 65.207C124.211 65.207 123.449 66.0273 123.449 67.4336C123.449 68.8398 124.211 69.6797 125.305 69.6797C126.379 69.6797 127.141 68.8398 127.16 67.4336C127.141 66.0273 126.379 65.207 125.305 65.207ZM136.418 62.043V72.6484H134.055V68.332H132.59V72.5508H130.285V62.3555H132.59V66.3398H134.055V62.043H136.418ZM136.418 73.4297V79.7969H133.938V75.4219H124.133V73.4297H136.418ZM146.535 62.9219C150.285 62.9414 153.215 64.9531 153.234 68.0391C153.215 71.1445 150.285 73.1758 146.535 73.1562C142.766 73.1758 139.855 71.1445 139.855 68.0391C139.855 64.9531 142.766 62.9414 146.535 62.9219ZM146.535 64.9531C144.074 64.9336 142.277 66.125 142.277 68.0391C142.277 69.9727 144.074 71.125 146.535 71.125C148.996 71.125 150.754 69.9727 150.773 68.0391C150.754 66.125 148.996 64.9336 146.535 64.9531ZM154.699 75.6172V77.6289H138.43V75.6172H154.699ZM171.984 75.7734V77.8242H155.715V75.7734H162.57V73.0977H157.59V67.1211H167.648V65.168H157.57V63.1758H170.109V69.0742H160.09V71.0664H170.52V73.0977H165.051V75.7734H171.984ZM44.7969 107.715V109.727H28.5273V107.715H35.4023V103.75H37.9023V107.715H44.7969ZM43.3711 95.3711V97.3828H37.9609C38.166 99.7266 40.373 101.904 44.1914 102.461L43.2148 104.434C40.0996 103.887 37.7949 102.363 36.6523 100.254C35.5195 102.402 33.2344 103.965 30.168 104.531L29.1914 102.559C32.8828 101.963 35.0996 99.7363 35.3047 97.3828H29.875V95.3711H43.3711ZM59.9141 94.0234V98.1836H62.3164V100.254H59.9141V104.355H57.4141V94.0234H59.9141ZM54.9141 95.0195C54.9141 99.7656 51.9258 102.969 46.5938 104.316L45.5586 102.422C49.6113 101.406 51.8379 99.3945 52.2188 96.9922H46.4961V95.0195H54.9141ZM59.9141 105.059V111.797H57.4141V107.051H47.9414V105.059H59.9141ZM83.957 104.551V106.582H77.0234V111.797H74.5625V106.582H67.6875V104.551H83.957ZM82.2188 101.289V103.262H69.7383V94.7461H82.0234V96.6992H72.1797V98.0273H81.6523V99.9414H72.1797V101.289H82.2188ZM91.5547 98.8672C91.5352 101.582 92.9805 104.707 95.9102 106.055L94.5234 108.008C92.541 107.1 91.125 105.283 90.3438 103.145C89.543 105.498 88.0879 107.49 86.0273 108.457L84.582 106.484C87.5508 105.098 89.0352 101.797 89.0547 98.8672V97.7734H85.2852V95.7422H95.1289V97.7734H91.5547V98.8672ZM99.0156 94.0234V100.801H101.633V102.891H99.0156V111.797H96.5156V94.0234H99.0156ZM108.039 95.2148C110.852 95.1953 112.961 97.0312 112.961 99.5703C112.961 102.129 110.852 103.945 108.039 103.945C105.227 103.945 103.098 102.129 103.098 99.5703C103.098 97.0312 105.227 95.1953 108.039 95.2148ZM108.039 97.3633C106.633 97.3633 105.559 98.1836 105.578 99.5703C105.559 100.977 106.633 101.777 108.039 101.777C109.445 101.777 110.52 100.977 110.539 99.5703C110.52 98.1836 109.465 97.3633 108.039 97.3633ZM117.219 94.0234V111.836H114.738V94.0234H117.219ZM102.355 106.172C105.52 106.191 109.914 106.133 113.723 105.605L113.918 107.402C109.973 108.164 105.754 108.203 102.648 108.203L102.355 106.172ZM131.086 98.0469C131.086 101.309 132.57 104.59 135.578 105.859L134.113 107.852C132.082 106.934 130.676 105.166 129.875 102.969C129.064 105.361 127.609 107.295 125.441 108.281L123.938 106.211C127.043 104.902 128.547 101.504 128.566 98.0469V95.3906H131.086V98.0469ZM139.055 94.0234V111.836H136.535V94.0234H139.055ZM151.555 95.0586V97.0508H148.02C148.039 99.1309 149.27 101.26 152.16 102.188L150.891 104.121C148.918 103.486 147.561 102.217 146.789 100.625C145.998 102.363 144.582 103.74 142.512 104.414L141.184 102.5C144.123 101.553 145.461 99.2773 145.5 97.0508H141.867V95.0586H151.555ZM155.559 94.0234V98.3398H157.961V100.41H155.559V104.746H153.059V94.0234H155.559ZM155.559 105.508V111.797H153.059V107.48H143.586V105.508H155.559ZM162.785 95.8594L162.531 105.762H160.031L159.777 95.8594H162.785ZM161.301 110.176C160.383 110.176 159.641 109.434 159.66 108.535C159.641 107.637 160.383 106.914 161.301 106.914C162.16 106.914 162.922 107.637 162.922 108.535C162.922 109.434 162.16 110.176 161.301 110.176Z" fill="#1E1E1E"/>
</g>
<defs>
<linearGradient id="paint0_linear_807_77457" x1="542" y1="100.823" x2="542" y2="325.823" gradientUnits="userSpaceOnUse">
<stop stop-color="white"/>
<stop offset="1" stop-color="white" stop-opacity="0"/>
</linearGradient>
<linearGradient id="paint1_linear_807_77457" x1="464.51" y1="-138" x2="464.51" y2="-24.3728" gradientUnits="userSpaceOnUse">
<stop stop-color="white" stop-opacity="0"/>
<stop offset="1" stop-color="white"/>
</linearGradient>
<clipPath id="clip0_807_77457">
<rect width="692" height="187" rx="12" fill="white"/>
</clipPath>
</defs>
</svg>
