<svg width="21" height="20" viewBox="0 0 21 20" fill="none" xmlns="http://www.w3.org/2000/svg">
<g id="FileText">
<path id="Vector" d="M16.1256 17.5H4.875C4.70924 17.5 4.55027 17.4342 4.43306 17.3169C4.31585 17.1997 4.25 17.0408 4.25 16.875V3.125C4.25 2.95924 4.31585 2.80027 4.43306 2.68306C4.55027 2.56585 4.70924 2.5 4.875 2.5H12.3756L16.7506 6.875V16.875C16.7506 16.9571 16.7344 17.0383 16.703 17.1142C16.6716 17.19 16.6256 17.2589 16.5676 17.3169C16.5095 17.375 16.4406 17.421 16.3648 17.4524C16.289 17.4838 16.2077 17.5 16.1256 17.5Z" stroke="#6F36E8" stroke-width="1.5" stroke-linecap="round" stroke-linejoin="round"/>
<path id="Vector_2" d="M12.375 2.5V6.875H16.7506" stroke="#6F36E8" stroke-width="1.5" stroke-linecap="round" stroke-linejoin="round"/>
<path id="Vector_3" d="M8 10.625H13" stroke="#6F36E8" stroke-width="1.5" stroke-linecap="round" stroke-linejoin="round"/>
<path id="Vector_4" d="M8 13.125H13" stroke="#6F36E8" stroke-width="1.5" stroke-linecap="round" stroke-linejoin="round"/>
</g>
</svg>
