<svg width="20" height="20" viewBox="0 0 20 20" fill="none" xmlns="http://www.w3.org/2000/svg">
<mask id="mask0_1878_593" style="mask-type:alpha" maskUnits="userSpaceOnUse" x="0" y="0" width="20" height="20">
<rect width="20" height="20" fill="#D9D9D9"/>
</mask>
<g mask="url(#mask0_1878_593)">
<path d="M10.0003 17.5007L8.79199 16.4173C7.38921 15.1534 6.22949 14.0632 5.31283 13.1465C4.39616 12.2298 3.66699 11.4069 3.12533 10.6777C2.58366 9.94857 2.20519 9.27843 1.98991 8.66732C1.77463 8.05621 1.66699 7.43121 1.66699 6.79232C1.66699 5.48676 2.10449 4.39648 2.97949 3.52148C3.85449 2.64648 4.94477 2.20898 6.25033 2.20898C6.97255 2.20898 7.66005 2.36176 8.31283 2.66732C8.9656 2.97287 9.5281 3.40343 10.0003 3.95898C10.4725 3.40343 11.035 2.97287 11.6878 2.66732C12.3406 2.36176 13.0281 2.20898 13.7503 2.20898C15.0559 2.20898 16.1462 2.64648 17.0212 3.52148C17.8962 4.39648 18.3337 5.48676 18.3337 6.79232C18.3337 7.43121 18.226 8.05621 18.0107 8.66732C17.7955 9.27843 17.417 9.94857 16.8753 10.6777C16.3337 11.4069 15.6045 12.2298 14.6878 13.1465C13.7712 14.0632 12.6114 15.1534 11.2087 16.4173L10.0003 17.5007ZM10.0003 15.2507C11.3337 14.0562 12.4309 13.0319 13.292 12.1777C14.1531 11.3236 14.8337 10.5805 15.3337 9.94857C15.8337 9.31662 16.1809 8.75412 16.3753 8.26107C16.5698 7.76801 16.667 7.27843 16.667 6.79232C16.667 5.95898 16.3892 5.26454 15.8337 4.70898C15.2781 4.15343 14.5837 3.87565 13.7503 3.87565C13.0975 3.87565 12.4934 4.05968 11.9378 4.42773C11.3823 4.79579 11.0003 5.26454 10.792 5.83398H9.20866C9.00033 5.26454 8.61838 4.79579 8.06283 4.42773C7.50727 4.05968 6.9031 3.87565 6.25033 3.87565C5.41699 3.87565 4.72255 4.15343 4.16699 4.70898C3.61144 5.26454 3.33366 5.95898 3.33366 6.79232C3.33366 7.27843 3.43088 7.76801 3.62533 8.26107C3.81977 8.75412 4.16699 9.31662 4.66699 9.94857C5.16699 10.5805 5.84755 11.3236 6.70866 12.1777C7.56977 13.0319 8.66699 14.0562 10.0003 15.2507Z" fill="#8A8A8A"/>
</g>
</svg>
