<svg width="21" height="19" viewBox="0 0 21 19" fill="none" xmlns="http://www.w3.org/2000/svg">
<mask id="mask0_1878_590" style="mask-type:alpha" maskUnits="userSpaceOnUse" x="0" y="0" width="21" height="19">
<rect width="21" height="19" fill="#D9D9D9"/>
</mask>
<g mask="url(#mask0_1878_590)">
<path d="M7 8.70801C7.24792 8.70801 7.45573 8.63214 7.62344 8.4804C7.79115 8.32867 7.875 8.14065 7.875 7.91634C7.875 7.69204 7.79115 7.50401 7.62344 7.35228C7.45573 7.20054 7.24792 7.12467 7 7.12467C6.75208 7.12467 6.54427 7.20054 6.37656 7.35228C6.20885 7.50401 6.125 7.69204 6.125 7.91634C6.125 8.14065 6.20885 8.32867 6.37656 8.4804C6.54427 8.63214 6.75208 8.70801 7 8.70801ZM10.5 8.70801C10.7479 8.70801 10.9557 8.63214 11.1234 8.4804C11.2911 8.32867 11.375 8.14065 11.375 7.91634C11.375 7.69204 11.2911 7.50401 11.1234 7.35228C10.9557 7.20054 10.7479 7.12467 10.5 7.12467C10.2521 7.12467 10.0443 7.20054 9.87656 7.35228C9.70885 7.50401 9.625 7.69204 9.625 7.91634C9.625 8.14065 9.70885 8.32867 9.87656 8.4804C10.0443 8.63214 10.2521 8.70801 10.5 8.70801ZM14 8.70801C14.2479 8.70801 14.4557 8.63214 14.6234 8.4804C14.7911 8.32867 14.875 8.14065 14.875 7.91634C14.875 7.69204 14.7911 7.50401 14.6234 7.35228C14.4557 7.20054 14.2479 7.12467 14 7.12467C13.7521 7.12467 13.5443 7.20054 13.3766 7.35228C13.2089 7.50401 13.125 7.69204 13.125 7.91634C13.125 8.14065 13.2089 8.32867 13.3766 8.4804C13.5443 8.63214 13.7521 8.70801 14 8.70801ZM1.75 17.4163V3.16634C1.75 2.73092 1.92135 2.35818 2.26406 2.04811C2.60677 1.73804 3.01875 1.58301 3.5 1.58301H17.5C17.9813 1.58301 18.3932 1.73804 18.7359 2.04811C19.0786 2.35818 19.25 2.73092 19.25 3.16634V12.6663C19.25 13.1018 19.0786 13.4745 18.7359 13.7846C18.3932 14.0946 17.9813 14.2497 17.5 14.2497H5.25L1.75 17.4163ZM4.50625 12.6663H17.5V3.16634H3.5V13.557L4.50625 12.6663Z" fill="#8A8A8A"/>
</g>
</svg>
