<svg width="24" height="24" viewBox="0 0 24 24" fill="none" xmlns="http://www.w3.org/2000/svg">
<mask id="mask0_764_6238" style="mask-type:alpha" maskUnits="userSpaceOnUse" x="0" y="0" width="24" height="24">
<rect y="24" width="24" height="24" transform="rotate(-90 0 24)" fill="#D9D9D9"/>
</mask>
<g mask="url(#mask0_764_6238)">
<path d="M11.5951 17.3513L19.0282 9.40535C19.281 9.13508 19.5759 9.00445 19.913 9.01346C20.2501 9.02247 20.5451 9.16211 20.7979 9.43237C21.0508 9.70265 21.1772 10.018 21.1772 10.3783C21.1772 10.7387 21.0508 11.054 20.7979 11.3243L13.0362 19.6486C12.834 19.8648 12.6064 20.027 12.3536 20.1351C12.1008 20.2432 11.8479 20.2972 11.5951 20.2972C11.3423 20.2972 11.0895 20.2432 10.8366 20.1351C10.5838 20.027 10.3563 19.8648 10.154 19.6486L2.367 11.3243C2.11418 11.054 1.99198 10.7342 2.00041 10.3648C2.00884 9.99544 2.13946 9.67562 2.39229 9.40535C2.64511 9.13508 2.94007 8.99994 3.27717 8.99994C3.61427 8.99994 3.90924 9.13508 4.16206 9.40535L11.5951 17.3513Z" fill="#1B253E" fill-opacity="0.8"/>
</g>
</svg>
