<svg width="38" height="43" viewBox="0 0 38 43" fill="none" xmlns="http://www.w3.org/2000/svg">
<path d="M0 37.4583V15.7083C0 14.9431 0.164093 14.2181 0.49228 13.5333C0.820467 12.8486 1.27414 12.2847 1.85329 11.8417L15.753 0.966667C16.5638 0.322222 17.4904 0 18.5329 0C19.5754 0 20.502 0.322222 21.3128 0.966667L35.2125 11.8417C35.7917 12.2847 36.2453 12.8486 36.5735 13.5333C36.9017 14.2181 37.0658 14.9431 37.0658 15.7083V37.4583C37.0658 38.7875 36.6121 39.9253 35.7048 40.8719C34.7975 41.8184 33.7067 42.2917 32.4326 42.2917H25.4827C24.8264 42.2917 24.2762 42.0601 23.8322 41.5969C23.3881 41.1337 23.1661 40.5597 23.1661 39.875V27.7917C23.1661 27.1069 22.9441 26.533 22.5001 26.0698C22.0561 25.6066 21.5059 25.375 20.8495 25.375H16.2163C15.5599 25.375 15.0097 25.6066 14.5657 26.0698C14.1217 26.533 13.8997 27.1069 13.8997 27.7917V39.875C13.8997 40.5597 13.6777 41.1337 13.2337 41.5969C12.7896 42.0601 12.2394 42.2917 11.5831 42.2917H4.63323C3.35909 42.2917 2.26835 41.8184 1.36101 40.8719C0.45367 39.9253 0 38.7875 0 37.4583Z" fill="#1B253E" fill-opacity="0.8"/>
</svg>
