<svg width="25" height="25" viewBox="0 0 25 25" fill="none" xmlns="http://www.w3.org/2000/svg">
<rect width="25" height="25" rx="12.5" fill="#E6DBFF"/>
<mask id="mask0_1711_4764" style="mask-type:alpha" maskUnits="userSpaceOnUse" x="3" y="4" width="19" height="19">
<rect x="3" y="4" width="19" height="19" fill="#D9D9D9"/>
</mask>
<g mask="url(#mask0_1711_4764)">
<path d="M7.75065 19.833C7.52635 19.833 7.33832 19.7571 7.18659 19.6054C7.03485 19.4537 6.95898 19.2656 6.95898 19.0413C6.95898 18.817 7.03485 18.629 7.18659 18.4773C7.33832 18.3255 7.52635 18.2497 7.75065 18.2497H17.2507C17.475 18.2497 17.663 18.3255 17.8147 18.4773C17.9664 18.629 18.0423 18.817 18.0423 19.0413C18.0423 19.2656 17.9664 19.4537 17.8147 19.6054C17.663 19.7571 17.475 19.833 17.2507 19.833H7.75065ZM8.30482 17.0622C7.92218 17.0622 7.58242 16.9368 7.28555 16.6861C6.98867 16.4354 6.80725 16.1188 6.74128 15.7361L5.94961 10.709C5.92322 10.709 5.89353 10.7123 5.86055 10.7189C5.82756 10.7255 5.79787 10.7288 5.77148 10.7288C5.44162 10.7288 5.16124 10.6134 4.93034 10.3825C4.69944 10.1516 4.58398 9.8712 4.58398 9.54134C4.58398 9.21148 4.69944 8.9311 4.93034 8.7002C5.16124 8.46929 5.44162 8.35384 5.77148 8.35384C6.10135 8.35384 6.38173 8.46929 6.61263 8.7002C6.84353 8.9311 6.95898 9.21148 6.95898 9.54134C6.95898 9.6337 6.94909 9.71947 6.9293 9.79863C6.90951 9.8778 6.88641 9.95037 6.86003 10.0163L9.33398 11.1247L11.8079 7.7403C11.6628 7.63474 11.5441 7.4962 11.4517 7.32467C11.3593 7.15315 11.3132 6.96842 11.3132 6.77051C11.3132 6.44065 11.4286 6.16026 11.6595 5.92936C11.8904 5.69846 12.1708 5.58301 12.5007 5.58301C12.8305 5.58301 13.1109 5.69846 13.3418 5.92936C13.5727 6.16026 13.6882 6.44065 13.6882 6.77051C13.6882 6.96842 13.642 7.15315 13.5496 7.32467C13.4572 7.4962 13.3385 7.63474 13.1934 7.7403L15.6673 11.1247L18.1413 10.0163C18.1149 9.95037 18.0918 9.8778 18.072 9.79863C18.0522 9.71947 18.0423 9.6337 18.0423 9.54134C18.0423 9.21148 18.1578 8.9311 18.3887 8.7002C18.6196 8.46929 18.9 8.35384 19.2298 8.35384C19.5597 8.35384 19.8401 8.46929 20.071 8.7002C20.3019 8.9311 20.4173 9.21148 20.4173 9.54134C20.4173 9.8712 20.3019 10.1516 20.071 10.3825C19.8401 10.6134 19.5597 10.7288 19.2298 10.7288C19.2034 10.7288 19.1737 10.7255 19.1408 10.7189C19.1078 10.7123 19.0781 10.709 19.0517 10.709L18.26 15.7361C18.1941 16.1188 18.0126 16.4354 17.7158 16.6861C17.4189 16.9368 17.0791 17.0622 16.6965 17.0622H8.30482ZM8.30482 15.4788H16.6965L17.2111 12.1736L16.3007 12.5695C15.9576 12.7146 15.6079 12.741 15.2517 12.6486C14.8954 12.5563 14.6052 12.3584 14.3809 12.0549L12.5007 9.46217L10.6204 12.0549C10.3961 12.3584 10.1059 12.5563 9.74961 12.6486C9.39336 12.741 9.04371 12.7146 8.70065 12.5695L7.79023 12.1736L8.30482 15.4788Z" fill="#434343"/>
</g>
</svg>
