<svg width="32" height="32" viewBox="0 0 32 32" fill="none" xmlns="http://www.w3.org/2000/svg">
<g id="Clapper board">
<g id="Rectangle 858">
<path d="M4.14453 16.9692C4.14453 16.8312 4.25646 16.7192 4.39453 16.7192H25.1735C25.3116 16.7192 25.4235 16.8312 25.4235 16.9692V27.9731C25.4235 29.0224 24.5729 29.8731 23.5235 29.8731H6.04453C4.99519 29.8731 4.14453 29.0224 4.14453 27.9731V16.9692Z" fill="url(#paint0_linear_4036_7193)"/>
<path d="M4.14453 16.9692C4.14453 16.8312 4.25646 16.7192 4.39453 16.7192H25.1735C25.3116 16.7192 25.4235 16.8312 25.4235 16.9692V27.9731C25.4235 29.0224 24.5729 29.8731 23.5235 29.8731H6.04453C4.99519 29.8731 4.14453 29.0224 4.14453 27.9731V16.9692Z" fill="url(#paint1_linear_4036_7193)"/>
<path d="M4.14453 16.9692C4.14453 16.8312 4.25646 16.7192 4.39453 16.7192H25.1735C25.3116 16.7192 25.4235 16.8312 25.4235 16.9692V27.9731C25.4235 29.0224 24.5729 29.8731 23.5235 29.8731H6.04453C4.99519 29.8731 4.14453 29.0224 4.14453 27.9731V16.9692Z" fill="url(#paint2_linear_4036_7193)"/>
</g>
<g id="Rectangle 857">
<path d="M6.64453 16.9692C6.64453 16.8312 6.75646 16.7192 6.89453 16.7192H27.6735C27.8116 16.7192 27.9235 16.8312 27.9235 16.9692V27.9731C27.9235 29.0224 27.0729 29.8731 26.0235 29.8731H8.54453C7.49519 29.8731 6.64453 29.0224 6.64453 27.9731V16.9692Z" fill="url(#paint3_linear_4036_7193)"/>
<path d="M6.64453 16.9692C6.64453 16.8312 6.75646 16.7192 6.89453 16.7192H27.6735C27.8116 16.7192 27.9235 16.8312 27.9235 16.9692V27.9731C27.9235 29.0224 27.0729 29.8731 26.0235 29.8731H8.54453C7.49519 29.8731 6.64453 29.0224 6.64453 27.9731V16.9692Z" fill="url(#paint4_linear_4036_7193)"/>
<path d="M6.64453 16.9692C6.64453 16.8312 6.75646 16.7192 6.89453 16.7192H27.6735C27.8116 16.7192 27.9235 16.8312 27.9235 16.9692V27.9731C27.9235 29.0224 27.0729 29.8731 26.0235 29.8731H8.54453C7.49519 29.8731 6.64453 29.0224 6.64453 27.9731V16.9692Z" fill="url(#paint5_radial_4036_7193)"/>
<path d="M6.64453 16.9692C6.64453 16.8312 6.75646 16.7192 6.89453 16.7192H27.6735C27.8116 16.7192 27.9235 16.8312 27.9235 16.9692V27.9731C27.9235 29.0224 27.0729 29.8731 26.0235 29.8731H8.54453C7.49519 29.8731 6.64453 29.0224 6.64453 27.9731V16.9692Z" fill="url(#paint6_linear_4036_7193)"/>
<path d="M6.64453 16.9692C6.64453 16.8312 6.75646 16.7192 6.89453 16.7192H27.6735C27.8116 16.7192 27.9235 16.8312 27.9235 16.9692V27.9731C27.9235 29.0224 27.0729 29.8731 26.0235 29.8731H8.54453C7.49519 29.8731 6.64453 29.0224 6.64453 27.9731V16.9692Z" fill="url(#paint7_radial_4036_7193)"/>
<path d="M6.64453 16.9692C6.64453 16.8312 6.75646 16.7192 6.89453 16.7192H27.6735C27.8116 16.7192 27.9235 16.8312 27.9235 16.9692V27.9731C27.9235 29.0224 27.0729 29.8731 26.0235 29.8731H8.54453C7.49519 29.8731 6.64453 29.0224 6.64453 27.9731V16.9692Z" fill="url(#paint8_linear_4036_7193)"/>
<path d="M6.64453 16.9692C6.64453 16.8312 6.75646 16.7192 6.89453 16.7192H27.6735C27.8116 16.7192 27.9235 16.8312 27.9235 16.9692V27.9731C27.9235 29.0224 27.0729 29.8731 26.0235 29.8731H8.54453C7.49519 29.8731 6.64453 29.0224 6.64453 27.9731V16.9692Z" fill="url(#paint9_radial_4036_7193)"/>
<path d="M6.64453 16.9692C6.64453 16.8312 6.75646 16.7192 6.89453 16.7192H27.6735C27.8116 16.7192 27.9235 16.8312 27.9235 16.9692V27.9731C27.9235 29.0224 27.0729 29.8731 26.0235 29.8731H8.54453C7.49519 29.8731 6.64453 29.0224 6.64453 27.9731V16.9692Z" fill="url(#paint10_radial_4036_7193)"/>
<path d="M6.64453 16.9692C6.64453 16.8312 6.75646 16.7192 6.89453 16.7192H27.6735C27.8116 16.7192 27.9235 16.8312 27.9235 16.9692V27.9731C27.9235 29.0224 27.0729 29.8731 26.0235 29.8731H8.54453C7.49519 29.8731 6.64453 29.0224 6.64453 27.9731V16.9692Z" fill="url(#paint11_linear_4036_7193)"/>
</g>
<g id="Rectangle 860">
<path d="M4.14453 13.1328C4.14453 12.9947 4.25646 12.8828 4.39453 12.8828H25.1735C25.3116 12.8828 25.4235 12.9947 25.4235 13.1328V16.4693C25.4235 16.6074 25.3116 16.7193 25.1735 16.7193H4.39453C4.25646 16.7193 4.14453 16.6074 4.14453 16.4693V13.1328Z" fill="url(#paint12_linear_4036_7193)"/>
<path d="M4.14453 13.1328C4.14453 12.9947 4.25646 12.8828 4.39453 12.8828H25.1735C25.3116 12.8828 25.4235 12.9947 25.4235 13.1328V16.4693C25.4235 16.6074 25.3116 16.7193 25.1735 16.7193H4.39453C4.25646 16.7193 4.14453 16.6074 4.14453 16.4693V13.1328Z" fill="url(#paint13_linear_4036_7193)"/>
</g>
<g id="Rectangle 859">
<path d="M6.64453 13.1328C6.64453 12.9947 6.75646 12.8828 6.89453 12.8828H27.6735C27.8116 12.8828 27.9235 12.9947 27.9235 13.1328V16.4693C27.9235 16.6074 27.8116 16.7193 27.6735 16.7193H6.89453C6.75646 16.7193 6.64453 16.6074 6.64453 16.4693V13.1328Z" fill="url(#paint14_linear_4036_7193)"/>
<path d="M6.64453 13.1328C6.64453 12.9947 6.75646 12.8828 6.89453 12.8828H27.6735C27.8116 12.8828 27.9235 12.9947 27.9235 13.1328V16.4693C27.9235 16.6074 27.8116 16.7193 27.6735 16.7193H6.89453C6.75646 16.7193 6.64453 16.6074 6.64453 16.4693V13.1328Z" fill="url(#paint15_linear_4036_7193)"/>
<path d="M6.64453 13.1328C6.64453 12.9947 6.75646 12.8828 6.89453 12.8828H27.6735C27.8116 12.8828 27.9235 12.9947 27.9235 13.1328V16.4693C27.9235 16.6074 27.8116 16.7193 27.6735 16.7193H6.89453C6.75646 16.7193 6.64453 16.6074 6.64453 16.4693V13.1328Z" fill="url(#paint16_linear_4036_7193)"/>
<path d="M6.64453 13.1328C6.64453 12.9947 6.75646 12.8828 6.89453 12.8828H27.6735C27.8116 12.8828 27.9235 12.9947 27.9235 13.1328V16.4693C27.9235 16.6074 27.8116 16.7193 27.6735 16.7193H6.89453C6.75646 16.7193 6.64453 16.6074 6.64453 16.4693V13.1328Z" fill="url(#paint17_linear_4036_7193)"/>
<path d="M6.64453 13.1328C6.64453 12.9947 6.75646 12.8828 6.89453 12.8828H27.6735C27.8116 12.8828 27.9235 12.9947 27.9235 13.1328V16.4693C27.9235 16.6074 27.8116 16.7193 27.6735 16.7193H6.89453C6.75646 16.7193 6.64453 16.6074 6.64453 16.4693V13.1328Z" fill="url(#paint18_linear_4036_7193)"/>
</g>
<g id="Rectangle 862">
<path d="M3.668 9.8284C3.39081 8.75918 4.03289 7.6677 5.10211 7.39051L22.4205 2.90091C23.4897 2.62372 24.5812 3.2658 24.8584 4.33502L25.3356 6.17581C25.3702 6.30946 25.29 6.4459 25.1563 6.48054L4.44994 11.8485C4.31629 11.8831 4.17985 11.8028 4.1452 11.6692L3.668 9.8284Z" fill="url(#paint19_linear_4036_7193)"/>
<path d="M3.668 9.8284C3.39081 8.75918 4.03289 7.6677 5.10211 7.39051L22.4205 2.90091C23.4897 2.62372 24.5812 3.2658 24.8584 4.33502L25.3356 6.17581C25.3702 6.30946 25.29 6.4459 25.1563 6.48054L4.44994 11.8485C4.31629 11.8831 4.17985 11.8028 4.1452 11.6692L3.668 9.8284Z" fill="url(#paint20_linear_4036_7193)"/>
</g>
<g id="Rectangle 861">
<path d="M5.76175 9.28543C5.48456 8.21621 6.12664 7.12473 7.19586 6.84754L24.5142 2.35794C25.5835 2.08075 26.675 2.72283 26.9521 3.79205L27.4293 5.63284C27.464 5.76649 27.3837 5.90293 27.2501 5.93758L6.54369 11.3055C6.41004 11.3401 6.2736 11.2599 6.23895 11.1262L5.76175 9.28543Z" fill="url(#paint21_linear_4036_7193)"/>
<path d="M5.76175 9.28543C5.48456 8.21621 6.12664 7.12473 7.19586 6.84754L24.5142 2.35794C25.5835 2.08075 26.675 2.72283 26.9521 3.79205L27.4293 5.63284C27.464 5.76649 27.3837 5.90293 27.2501 5.93758L6.54369 11.3055C6.41004 11.3401 6.2736 11.2599 6.23895 11.1262L5.76175 9.28543Z" fill="url(#paint22_linear_4036_7193)"/>
<path d="M5.76175 9.28543C5.48456 8.21621 6.12664 7.12473 7.19586 6.84754L24.5142 2.35794C25.5835 2.08075 26.675 2.72283 26.9521 3.79205L27.4293 5.63284C27.464 5.76649 27.3837 5.90293 27.2501 5.93758L6.54369 11.3055C6.41004 11.3401 6.2736 11.2599 6.23895 11.1262L5.76175 9.28543Z" fill="url(#paint23_radial_4036_7193)"/>
<path d="M5.76175 9.28543C5.48456 8.21621 6.12664 7.12473 7.19586 6.84754L24.5142 2.35794C25.5835 2.08075 26.675 2.72283 26.9521 3.79205L27.4293 5.63284C27.464 5.76649 27.3837 5.90293 27.2501 5.93758L6.54369 11.3055C6.41004 11.3401 6.2736 11.2599 6.23895 11.1262L5.76175 9.28543Z" fill="url(#paint24_linear_4036_7193)"/>
<path d="M5.76175 9.28543C5.48456 8.21621 6.12664 7.12473 7.19586 6.84754L24.5142 2.35794C25.5835 2.08075 26.675 2.72283 26.9521 3.79205L27.4293 5.63284C27.464 5.76649 27.3837 5.90293 27.2501 5.93758L6.54369 11.3055C6.41004 11.3401 6.2736 11.2599 6.23895 11.1262L5.76175 9.28543Z" fill="url(#paint25_linear_4036_7193)"/>
<path d="M5.76175 9.28543C5.48456 8.21621 6.12664 7.12473 7.19586 6.84754L24.5142 2.35794C25.5835 2.08075 26.675 2.72283 26.9521 3.79205L27.4293 5.63284C27.464 5.76649 27.3837 5.90293 27.2501 5.93758L6.54369 11.3055C6.41004 11.3401 6.2736 11.2599 6.23895 11.1262L5.76175 9.28543Z" fill="url(#paint26_radial_4036_7193)"/>
<path d="M5.76175 9.28543C5.48456 8.21621 6.12664 7.12473 7.19586 6.84754L24.5142 2.35794C25.5835 2.08075 26.675 2.72283 26.9521 3.79205L27.4293 5.63284C27.464 5.76649 27.3837 5.90293 27.2501 5.93758L6.54369 11.3055C6.41004 11.3401 6.2736 11.2599 6.23895 11.1262L5.76175 9.28543Z" fill="url(#paint27_radial_4036_7193)"/>
<path d="M5.76175 9.28543C5.48456 8.21621 6.12664 7.12473 7.19586 6.84754L24.5142 2.35794C25.5835 2.08075 26.675 2.72283 26.9521 3.79205L27.4293 5.63284C27.464 5.76649 27.3837 5.90293 27.2501 5.93758L6.54369 11.3055C6.41004 11.3401 6.2736 11.2599 6.23895 11.1262L5.76175 9.28543Z" fill="url(#paint28_linear_4036_7193)"/>
<path d="M5.76175 9.28543C5.48456 8.21621 6.12664 7.12473 7.19586 6.84754L24.5142 2.35794C25.5835 2.08075 26.675 2.72283 26.9521 3.79205L27.4293 5.63284C27.464 5.76649 27.3837 5.90293 27.2501 5.93758L6.54369 11.3055C6.41004 11.3401 6.2736 11.2599 6.23895 11.1262L5.76175 9.28543Z" fill="url(#paint29_linear_4036_7193)"/>
</g>
<g id="Intersect">
<path d="M15.7497 8.91864L11.0451 10.1383C10.9601 9.98657 10.8406 9.89407 10.7681 9.83786L10.7555 9.82816C9.68262 8.99222 7.47742 7.27817 7.23991 7.10941C7.08923 7.00235 6.97878 6.95883 6.9082 6.94528C6.99986 6.9061 7.09563 6.87326 7.19507 6.84747L11.6074 5.70361C11.7289 5.75012 11.8226 5.81635 11.8884 5.86722C12.3147 6.19714 12.9404 6.67661 13.5425 7.13803C14.371 7.77289 15.1549 8.37363 15.3141 8.50394C15.5809 8.70142 15.6944 8.83154 15.7497 8.91864Z" fill="#CDCDFF"/>
<path d="M15.7497 8.91864L11.0451 10.1383C10.9601 9.98657 10.8406 9.89407 10.7681 9.83786L10.7555 9.82816C9.68262 8.99222 7.47742 7.27817 7.23991 7.10941C7.08923 7.00235 6.97878 6.95883 6.9082 6.94528C6.99986 6.9061 7.09563 6.87326 7.19507 6.84747L11.6074 5.70361C11.7289 5.75012 11.8226 5.81635 11.8884 5.86722C12.3147 6.19714 12.9404 6.67661 13.5425 7.13803C14.371 7.77289 15.1549 8.37363 15.3141 8.50394C15.5809 8.70142 15.6944 8.83154 15.7497 8.91864Z" fill="url(#paint30_linear_4036_7193)"/>
<path d="M15.7497 8.91864L11.0451 10.1383C10.9601 9.98657 10.8406 9.89407 10.7681 9.83786L10.7555 9.82816C9.68262 8.99222 7.47742 7.27817 7.23991 7.10941C7.08923 7.00235 6.97878 6.95883 6.9082 6.94528C6.99986 6.9061 7.09563 6.87326 7.19507 6.84747L11.6074 5.70361C11.7289 5.75012 11.8226 5.81635 11.8884 5.86722C12.3147 6.19714 12.9404 6.67661 13.5425 7.13803C14.371 7.77289 15.1549 8.37363 15.3141 8.50394C15.5809 8.70142 15.6944 8.83154 15.7497 8.91864Z" fill="url(#paint31_linear_4036_7193)"/>
<path d="M15.7497 8.91864L11.0451 10.1383C10.9601 9.98657 10.8406 9.89407 10.7681 9.83786L10.7555 9.82816C9.68262 8.99222 7.47742 7.27817 7.23991 7.10941C7.08923 7.00235 6.97878 6.95883 6.9082 6.94528C6.99986 6.9061 7.09563 6.87326 7.19507 6.84747L11.6074 5.70361C11.7289 5.75012 11.8226 5.81635 11.8884 5.86722C12.3147 6.19714 12.9404 6.67661 13.5425 7.13803C14.371 7.77289 15.1549 8.37363 15.3141 8.50394C15.5809 8.70142 15.6944 8.83154 15.7497 8.91864Z" fill="url(#paint32_linear_4036_7193)"/>
</g>
<g id="Intersect_2">
<path d="M25.1323 6.48938L20.4139 7.71259C20.3204 7.54248 20.186 7.41263 20.1096 7.35577C19.0783 6.56149 16.9502 4.92139 16.6877 4.71515C16.5363 4.59622 16.3898 4.53046 16.2754 4.49658L20.9974 3.27246C21.1753 3.35965 21.3277 3.47839 21.4557 3.57812L21.4611 3.58234C22.4976 4.38962 24.633 6.04794 24.883 6.22296C25.0249 6.32227 25.098 6.41623 25.1323 6.48938Z" fill="#CDCDFF"/>
<path d="M25.1323 6.48938L20.4139 7.71259C20.3204 7.54248 20.186 7.41263 20.1096 7.35577C19.0783 6.56149 16.9502 4.92139 16.6877 4.71515C16.5363 4.59622 16.3898 4.53046 16.2754 4.49658L20.9974 3.27246C21.1753 3.35965 21.3277 3.47839 21.4557 3.57812L21.4611 3.58234C22.4976 4.38962 24.633 6.04794 24.883 6.22296C25.0249 6.32227 25.098 6.41623 25.1323 6.48938Z" fill="url(#paint33_linear_4036_7193)"/>
<path d="M25.1323 6.48938L20.4139 7.71259C20.3204 7.54248 20.186 7.41263 20.1096 7.35577C19.0783 6.56149 16.9502 4.92139 16.6877 4.71515C16.5363 4.59622 16.3898 4.53046 16.2754 4.49658L20.9974 3.27246C21.1753 3.35965 21.3277 3.47839 21.4557 3.57812L21.4611 3.58234C22.4976 4.38962 24.633 6.04794 24.883 6.22296C25.0249 6.32227 25.098 6.41623 25.1323 6.48938Z" fill="url(#paint34_linear_4036_7193)"/>
<path d="M25.1323 6.48938L20.4139 7.71259C20.3204 7.54248 20.186 7.41263 20.1096 7.35577C19.0783 6.56149 16.9502 4.92139 16.6877 4.71515C16.5363 4.59622 16.3898 4.53046 16.2754 4.49658L20.9974 3.27246C21.1753 3.35965 21.3277 3.47839 21.4557 3.57812L21.4611 3.58234C22.4976 4.38962 24.633 6.04794 24.883 6.22296C25.0249 6.32227 25.098 6.41623 25.1323 6.48938Z" fill="url(#paint35_linear_4036_7193)"/>
</g>
<g id="Intersect_3">
<path d="M7.98047 16.7193C8.05826 16.6768 8.15375 16.6061 8.25632 16.4932C8.4623 16.2666 10.1617 14.2589 10.9856 13.2833C11.0436 13.2067 11.1486 13.0388 11.1863 12.8828H16.1086C16.057 12.9983 15.9697 13.1635 15.8177 13.3519C15.6461 13.5648 13.9724 15.5348 13.1571 16.4932C13.1096 16.5491 13.0139 16.6349 12.8997 16.7193H7.98047Z" fill="#CDCDFF"/>
<path d="M7.98047 16.7193C8.05826 16.6768 8.15375 16.6061 8.25632 16.4932C8.4623 16.2666 10.1617 14.2589 10.9856 13.2833C11.0436 13.2067 11.1486 13.0388 11.1863 12.8828H16.1086C16.057 12.9983 15.9697 13.1635 15.8177 13.3519C15.6461 13.5648 13.9724 15.5348 13.1571 16.4932C13.1096 16.5491 13.0139 16.6349 12.8997 16.7193H7.98047Z" fill="url(#paint36_linear_4036_7193)"/>
<path d="M7.98047 16.7193C8.05826 16.6768 8.15375 16.6061 8.25632 16.4932C8.4623 16.2666 10.1617 14.2589 10.9856 13.2833C11.0436 13.2067 11.1486 13.0388 11.1863 12.8828H16.1086C16.057 12.9983 15.9697 13.1635 15.8177 13.3519C15.6461 13.5648 13.9724 15.5348 13.1571 16.4932C13.1096 16.5491 13.0139 16.6349 12.8997 16.7193H7.98047Z" fill="url(#paint37_linear_4036_7193)"/>
<path d="M7.98047 16.7193C8.05826 16.6768 8.15375 16.6061 8.25632 16.4932C8.4623 16.2666 10.1617 14.2589 10.9856 13.2833C11.0436 13.2067 11.1486 13.0388 11.1863 12.8828H16.1086C16.057 12.9983 15.9697 13.1635 15.8177 13.3519C15.6461 13.5648 13.9724 15.5348 13.1571 16.4932C13.1096 16.5491 13.0139 16.6349 12.8997 16.7193H7.98047Z" fill="url(#paint38_linear_4036_7193)"/>
</g>
<g id="Intersect_4">
<path d="M17.7832 16.7193C17.861 16.6768 17.9565 16.6061 18.0591 16.4932C18.265 16.2666 19.9644 14.2589 20.7884 13.2833C20.8464 13.2067 20.9514 13.0388 20.989 12.8828H25.9113C25.8597 12.9983 25.7724 13.1635 25.6205 13.3519C25.4488 13.5648 23.7752 15.5348 22.9598 16.4932C22.9123 16.5491 22.8167 16.6349 22.7024 16.7193H17.7832Z" fill="#CDCDFF"/>
<path d="M17.7832 16.7193C17.861 16.6768 17.9565 16.6061 18.0591 16.4932C18.265 16.2666 19.9644 14.2589 20.7884 13.2833C20.8464 13.2067 20.9514 13.0388 20.989 12.8828H25.9113C25.8597 12.9983 25.7724 13.1635 25.6205 13.3519C25.4488 13.5648 23.7752 15.5348 22.9598 16.4932C22.9123 16.5491 22.8167 16.6349 22.7024 16.7193H17.7832Z" fill="url(#paint39_linear_4036_7193)"/>
<path d="M17.7832 16.7193C17.861 16.6768 17.9565 16.6061 18.0591 16.4932C18.265 16.2666 19.9644 14.2589 20.7884 13.2833C20.8464 13.2067 20.9514 13.0388 20.989 12.8828H25.9113C25.8597 12.9983 25.7724 13.1635 25.6205 13.3519C25.4488 13.5648 23.7752 15.5348 22.9598 16.4932C22.9123 16.5491 22.8167 16.6349 22.7024 16.7193H17.7832Z" fill="url(#paint40_linear_4036_7193)"/>
<path d="M17.7832 16.7193C17.861 16.6768 17.9565 16.6061 18.0591 16.4932C18.265 16.2666 19.9644 14.2589 20.7884 13.2833C20.8464 13.2067 20.9514 13.0388 20.989 12.8828H25.9113C25.8597 12.9983 25.7724 13.1635 25.6205 13.3519C25.4488 13.5648 23.7752 15.5348 22.9598 16.4932C22.9123 16.5491 22.8167 16.6349 22.7024 16.7193H17.7832Z" fill="url(#paint41_linear_4036_7193)"/>
</g>
</g>
<defs>
<linearGradient id="paint0_linear_4036_7193" x1="4.50699" y1="22.2187" x2="6.85074" y2="22.2187" gradientUnits="userSpaceOnUse">
<stop stop-color="#473850"/>
<stop offset="1" stop-color="#3F314A"/>
</linearGradient>
<linearGradient id="paint1_linear_4036_7193" x1="5.78824" y1="30.0937" x2="5.78824" y2="28.0624" gradientUnits="userSpaceOnUse">
<stop stop-color="#5F75A6"/>
<stop offset="1" stop-color="#443C61" stop-opacity="0"/>
</linearGradient>
<linearGradient id="paint2_linear_4036_7193" x1="6.05386" y1="16.7192" x2="6.05386" y2="17.3437" gradientUnits="userSpaceOnUse">
<stop stop-color="#1E0F2A"/>
<stop offset="1" stop-color="#45374F" stop-opacity="0"/>
</linearGradient>
<linearGradient id="paint3_linear_4036_7193" x1="17.284" y1="17.8921" x2="17.284" y2="29.8731" gradientUnits="userSpaceOnUse">
<stop stop-color="#7B638E"/>
<stop offset="0.875651" stop-color="#8180C8"/>
</linearGradient>
<linearGradient id="paint4_linear_4036_7193" x1="6.63723" y1="22.8564" x2="7.46691" y2="22.8564" gradientUnits="userSpaceOnUse">
<stop stop-color="#553766"/>
<stop offset="0.494568" stop-color="#553766" stop-opacity="0.418487"/>
<stop offset="0.9" stop-color="#553766" stop-opacity="0.0622717"/>
<stop offset="1" stop-color="#553766" stop-opacity="0"/>
</linearGradient>
<radialGradient id="paint5_radial_4036_7193" cx="0" cy="0" r="1" gradientUnits="userSpaceOnUse" gradientTransform="translate(6.61581 29.7613) rotate(-40.914) scale(1.70841 7.35724)">
<stop stop-color="#553766"/>
<stop offset="0.821184" stop-color="#553766" stop-opacity="0.125046"/>
<stop offset="0.901564" stop-color="#553766" stop-opacity="0.04"/>
<stop offset="1" stop-color="#553766" stop-opacity="0"/>
</radialGradient>
<linearGradient id="paint6_linear_4036_7193" x1="6.64453" y1="26.6562" x2="7.20384" y2="26.6562" gradientUnits="userSpaceOnUse">
<stop offset="0.16742" stop-color="#5F5691"/>
<stop offset="1" stop-color="#5F5691" stop-opacity="0"/>
</linearGradient>
<radialGradient id="paint7_radial_4036_7193" cx="0" cy="0" r="1" gradientUnits="userSpaceOnUse" gradientTransform="translate(25.3549 17.0896) rotate(90) scale(0.378907 23.3293)">
<stop stop-color="#857498"/>
<stop offset="0.346439" stop-color="#857498" stop-opacity="0.749642"/>
<stop offset="0.692334" stop-color="#857498" stop-opacity="0.231668"/>
<stop offset="1" stop-color="#857498" stop-opacity="0"/>
</radialGradient>
<linearGradient id="paint8_linear_4036_7193" x1="17.284" y1="16.7192" x2="17.284" y2="29.8731" gradientUnits="userSpaceOnUse">
<stop offset="0.919029" stop-color="#667AC9" stop-opacity="0"/>
<stop offset="0.955878" stop-color="#667AC9" stop-opacity="0.151377"/>
<stop offset="0.984461" stop-color="#667AC9"/>
</linearGradient>
<radialGradient id="paint9_radial_4036_7193" cx="0" cy="0" r="1" gradientUnits="userSpaceOnUse" gradientTransform="translate(27.3894 29.2747) rotate(-137.022) scale(1.3848 8.29073)">
<stop stop-color="#667AC9"/>
<stop offset="0.301776" stop-color="#667AC9" stop-opacity="0.151377"/>
<stop offset="0.919029" stop-color="#667AC9" stop-opacity="0"/>
</radialGradient>
<radialGradient id="paint10_radial_4036_7193" cx="0" cy="0" r="1" gradientUnits="userSpaceOnUse" gradientTransform="translate(7.52922 29.6172) rotate(-39.5424) scale(1.27418 7.62843)">
<stop stop-color="#667AC9"/>
<stop offset="0.169116" stop-color="#667AC9" stop-opacity="0.366344"/>
<stop offset="0.251118" stop-color="#667AC9" stop-opacity="0.151377"/>
<stop offset="0.919029" stop-color="#667AC9" stop-opacity="0"/>
</radialGradient>
<linearGradient id="paint11_linear_4036_7193" x1="17.284" y1="16.7192" x2="17.284" y2="17.0405" gradientUnits="userSpaceOnUse">
<stop stop-color="#59386F"/>
<stop offset="0.802083" stop-color="#59386F" stop-opacity="0.0833333"/>
<stop offset="1" stop-color="#59386F" stop-opacity="0"/>
</linearGradient>
<linearGradient id="paint12_linear_4036_7193" x1="4.47574" y1="16.4375" x2="6.60074" y2="14.3437" gradientUnits="userSpaceOnUse">
<stop stop-color="#45374F"/>
<stop offset="1" stop-color="#3F3148"/>
</linearGradient>
<linearGradient id="paint13_linear_4036_7193" x1="6.38199" y1="16.7193" x2="6.38199" y2="16.2812" gradientUnits="userSpaceOnUse">
<stop stop-color="#22112E"/>
<stop offset="1" stop-color="#3D2E49" stop-opacity="0"/>
</linearGradient>
<linearGradient id="paint14_linear_4036_7193" x1="17.284" y1="14.3438" x2="17.284" y2="16.7193" gradientUnits="userSpaceOnUse">
<stop stop-color="#8F6DBD"/>
<stop offset="1" stop-color="#8661B9"/>
</linearGradient>
<linearGradient id="paint15_linear_4036_7193" x1="17.284" y1="13.0362" x2="17.284" y2="13.4663" gradientUnits="userSpaceOnUse">
<stop offset="0.00875693" stop-color="#9C81C5" stop-opacity="0"/>
<stop offset="0.219562" stop-color="#9C81C5" stop-opacity="0.455546"/>
<stop offset="0.417996" stop-color="#9C81C5"/>
<stop offset="0.586067" stop-color="#9C81C5"/>
<stop offset="0.734452" stop-color="#9C81C5" stop-opacity="0.65"/>
<stop offset="0.869792" stop-color="#9C81C5" stop-opacity="0.21673"/>
<stop offset="1" stop-color="#9C81C5" stop-opacity="0"/>
</linearGradient>
<linearGradient id="paint16_linear_4036_7193" x1="17.284" y1="12.8828" x2="17.284" y2="13.4277" gradientUnits="userSpaceOnUse">
<stop stop-color="#6E4D9A"/>
<stop offset="1" stop-color="#6E4D9A" stop-opacity="0"/>
</linearGradient>
<linearGradient id="paint17_linear_4036_7193" x1="17.284" y1="16.1712" x2="17.284" y2="16.7193" gradientUnits="userSpaceOnUse">
<stop stop-color="#7450AE" stop-opacity="0"/>
<stop offset="0.707618" stop-color="#7450AE"/>
</linearGradient>
<linearGradient id="paint18_linear_4036_7193" x1="7.11005" y1="14.9463" x2="6.76593" y2="14.9463" gradientUnits="userSpaceOnUse">
<stop stop-color="#7450AE" stop-opacity="0"/>
<stop offset="0.332928" stop-color="#7450AE" stop-opacity="0.253469"/>
<stop offset="1" stop-color="#7450AE"/>
</linearGradient>
<linearGradient id="paint19_linear_4036_7193" x1="5.66412" y1="11.6876" x2="4.78912" y2="7.59384" gradientUnits="userSpaceOnUse">
<stop stop-color="#483751"/>
<stop offset="1" stop-color="#514257"/>
</linearGradient>
<linearGradient id="paint20_linear_4036_7193" x1="5.57037" y1="6.96884" x2="5.97662" y2="8.78134" gradientUnits="userSpaceOnUse">
<stop stop-color="#947397"/>
<stop offset="1" stop-color="#5B4860" stop-opacity="0"/>
</linearGradient>
<linearGradient id="paint21_linear_4036_7193" x1="19.6952" y1="3.81259" x2="18.6015" y2="8.03134" gradientUnits="userSpaceOnUse">
<stop stop-color="#8D74BA"/>
<stop offset="1" stop-color="#8A6EB8"/>
</linearGradient>
<linearGradient id="paint22_linear_4036_7193" x1="27.1102" y1="4.45664" x2="26.6392" y2="4.58774" gradientUnits="userSpaceOnUse">
<stop offset="0.138153" stop-color="#9F8AC9"/>
<stop offset="0.681916" stop-color="#9F8AC9" stop-opacity="0.208692"/>
<stop offset="1" stop-color="#9F8AC9" stop-opacity="0"/>
</linearGradient>
<radialGradient id="paint23_radial_4036_7193" cx="0" cy="0" r="1" gradientUnits="userSpaceOnUse" gradientTransform="translate(26.4876 2.90434) rotate(114.444) scale(0.607549 2.54625)">
<stop offset="0.138153" stop-color="#9F8AC9"/>
<stop offset="0.681916" stop-color="#9F8AC9" stop-opacity="0.208692"/>
<stop offset="1" stop-color="#9F8AC9" stop-opacity="0"/>
</radialGradient>
<linearGradient id="paint24_linear_4036_7193" x1="17.3377" y1="8.58794" x2="17.1709" y2="7.94844" gradientUnits="userSpaceOnUse">
<stop offset="0.260018" stop-color="#7450AE"/>
<stop offset="0.799126" stop-color="#7450AE" stop-opacity="0.224434"/>
<stop offset="1" stop-color="#7450AE" stop-opacity="0"/>
</linearGradient>
<linearGradient id="paint25_linear_4036_7193" x1="5.91177" y1="10.0286" x2="6.40637" y2="9.89075" gradientUnits="userSpaceOnUse">
<stop offset="0.394223" stop-color="#7450AE"/>
<stop offset="0.774759" stop-color="#7450AE" stop-opacity="0.224434"/>
<stop offset="0.916667" stop-color="#7450AE" stop-opacity="0.0830346"/>
<stop offset="1" stop-color="#7450AE" stop-opacity="0"/>
</linearGradient>
<radialGradient id="paint26_radial_4036_7193" cx="0" cy="0" r="1" gradientUnits="userSpaceOnUse" gradientTransform="translate(5.70677 8.07264) rotate(10.2222) scale(0.529427 4.13962)">
<stop offset="0.09266" stop-color="#7450AE"/>
<stop offset="0.737637" stop-color="#7450AE" stop-opacity="0.224434"/>
<stop offset="0.859375" stop-color="#7450AE" stop-opacity="0.0801967"/>
<stop offset="1" stop-color="#7450AE" stop-opacity="0"/>
</radialGradient>
<radialGradient id="paint27_radial_4036_7193" cx="0" cy="0" r="1" gradientUnits="userSpaceOnUse" gradientTransform="translate(5.99412 7.32179) rotate(38.88) scale(0.755905 5.91046)">
<stop offset="0.09266" stop-color="#7450AE"/>
<stop offset="0.737637" stop-color="#7450AE" stop-opacity="0.224434"/>
<stop offset="0.859375" stop-color="#7450AE" stop-opacity="0.0801967"/>
<stop offset="1" stop-color="#7450AE" stop-opacity="0"/>
</radialGradient>
<linearGradient id="paint28_linear_4036_7193" x1="15.6372" y1="4.69875" x2="15.742" y2="5.09876" gradientUnits="userSpaceOnUse">
<stop offset="0.204119" stop-color="#765EA2"/>
<stop offset="0.753349" stop-color="#765EA2" stop-opacity="0.255507"/>
<stop offset="1" stop-color="#765EA2" stop-opacity="0"/>
</linearGradient>
<linearGradient id="paint29_linear_4036_7193" x1="5.76456" y1="10.4327" x2="6.36838" y2="10.2833" gradientUnits="userSpaceOnUse">
<stop offset="0.138153" stop-color="#9F8AC9"/>
<stop offset="0.681916" stop-color="#9F8AC9" stop-opacity="0.208692"/>
<stop offset="1" stop-color="#9F8AC9" stop-opacity="0"/>
</linearGradient>
<linearGradient id="paint30_linear_4036_7193" x1="11.2877" y1="5.66997" x2="11.4324" y2="6.2239" gradientUnits="userSpaceOnUse">
<stop offset="0.28396" stop-color="#B2B9FF"/>
<stop offset="0.628009" stop-color="#B2B9FF" stop-opacity="0.622034"/>
<stop offset="1" stop-color="#B2B9FF" stop-opacity="0"/>
</linearGradient>
<linearGradient id="paint31_linear_4036_7193" x1="11.6132" y1="10.0708" x2="11.4605" y2="9.46597" gradientUnits="userSpaceOnUse">
<stop offset="0.384" stop-color="#B6BDFF"/>
<stop offset="0.776809" stop-color="#B6BDFF" stop-opacity="0.180449"/>
<stop offset="1" stop-color="#B6BDFF" stop-opacity="0"/>
</linearGradient>
<linearGradient id="paint32_linear_4036_7193" x1="11.2018" y1="5.92974" x2="11.3328" y2="6.42431" gradientUnits="userSpaceOnUse">
<stop offset="0.00875693" stop-color="#D3D4FF" stop-opacity="0"/>
<stop offset="0.250757" stop-color="#D3D4FF" stop-opacity="0.455546"/>
<stop offset="0.417996" stop-color="#D3D4FF" stop-opacity="0.59"/>
<stop offset="0.562276" stop-color="#D3D4FF" stop-opacity="0.65"/>
<stop offset="0.730349" stop-color="#D3D4FF" stop-opacity="0.46"/>
<stop offset="1" stop-color="#D3D4FF" stop-opacity="0"/>
</linearGradient>
<linearGradient id="paint33_linear_4036_7193" x1="20.6626" y1="3.23877" x2="20.8073" y2="3.79342" gradientUnits="userSpaceOnUse">
<stop offset="0.28396" stop-color="#B2B9FF"/>
<stop offset="0.628009" stop-color="#B2B9FF" stop-opacity="0.622034"/>
<stop offset="1" stop-color="#B2B9FF" stop-opacity="0"/>
</linearGradient>
<linearGradient id="paint34_linear_4036_7193" x1="20.9886" y1="7.64508" x2="20.8357" y2="7.03941" gradientUnits="userSpaceOnUse">
<stop offset="0.384" stop-color="#B6BDFF"/>
<stop offset="0.776809" stop-color="#B6BDFF" stop-opacity="0.180449"/>
<stop offset="1" stop-color="#B6BDFF" stop-opacity="0"/>
</linearGradient>
<linearGradient id="paint35_linear_4036_7193" x1="20.5765" y1="3.49887" x2="20.7076" y2="3.99408" gradientUnits="userSpaceOnUse">
<stop offset="0.00875693" stop-color="#D3D4FF" stop-opacity="0"/>
<stop offset="0.250757" stop-color="#D3D4FF" stop-opacity="0.455546"/>
<stop offset="0.417996" stop-color="#D3D4FF" stop-opacity="0.59"/>
<stop offset="0.562276" stop-color="#D3D4FF" stop-opacity="0.65"/>
<stop offset="0.730349" stop-color="#D3D4FF" stop-opacity="0.46"/>
<stop offset="1" stop-color="#D3D4FF" stop-opacity="0"/>
</linearGradient>
<linearGradient id="paint36_linear_4036_7193" x1="12.1655" y1="12.8828" x2="12.1655" y2="13.2652" gradientUnits="userSpaceOnUse">
<stop offset="0.28396" stop-color="#B2B9FF"/>
<stop offset="0.628009" stop-color="#B2B9FF" stop-opacity="0.622034"/>
<stop offset="1" stop-color="#B2B9FF" stop-opacity="0"/>
</linearGradient>
<linearGradient id="paint37_linear_4036_7193" x1="12.1655" y1="16.711" x2="12.1655" y2="16.1376" gradientUnits="userSpaceOnUse">
<stop offset="0.384" stop-color="#B6ADFF"/>
<stop offset="0.776809" stop-color="#B6ADFF" stop-opacity="0.180449"/>
<stop offset="1" stop-color="#B6ADFF" stop-opacity="0"/>
</linearGradient>
<linearGradient id="paint38_linear_4036_7193" x1="12.0445" y1="13.049" x2="12.0445" y2="13.4663" gradientUnits="userSpaceOnUse">
<stop offset="0.00875693" stop-color="#D3D4FF" stop-opacity="0"/>
<stop offset="0.204664" stop-color="#D3D4FF" stop-opacity="0.455546"/>
<stop offset="0.417996" stop-color="#D3D4FF"/>
<stop offset="0.586067" stop-color="#D3D4FF"/>
<stop offset="0.705101" stop-color="#D3D4FF" stop-opacity="0.639677"/>
<stop offset="1" stop-color="#D3D4FF" stop-opacity="0"/>
</linearGradient>
<linearGradient id="paint39_linear_4036_7193" x1="21.9683" y1="12.8828" x2="21.9683" y2="13.2652" gradientUnits="userSpaceOnUse">
<stop offset="0.28396" stop-color="#B2B9FF"/>
<stop offset="0.628009" stop-color="#B2B9FF" stop-opacity="0.622034"/>
<stop offset="1" stop-color="#B2B9FF" stop-opacity="0"/>
</linearGradient>
<linearGradient id="paint40_linear_4036_7193" x1="21.9683" y1="16.711" x2="21.9683" y2="16.1376" gradientUnits="userSpaceOnUse">
<stop offset="0.384" stop-color="#B6ADFF"/>
<stop offset="0.776809" stop-color="#B6ADFF" stop-opacity="0.180449"/>
<stop offset="1" stop-color="#B6ADFF" stop-opacity="0"/>
</linearGradient>
<linearGradient id="paint41_linear_4036_7193" x1="21.8472" y1="13.049" x2="21.8472" y2="13.4663" gradientUnits="userSpaceOnUse">
<stop offset="0.00875693" stop-color="#D3D4FF" stop-opacity="0"/>
<stop offset="0.204664" stop-color="#D3D4FF" stop-opacity="0.455546"/>
<stop offset="0.417996" stop-color="#D3D4FF"/>
<stop offset="0.586067" stop-color="#D3D4FF"/>
<stop offset="0.705101" stop-color="#D3D4FF" stop-opacity="0.639677"/>
<stop offset="1" stop-color="#D3D4FF" stop-opacity="0"/>
</linearGradient>
</defs>
</svg>
