<svg width="32" height="32" viewBox="0 0 32 32" fill="none" xmlns="http://www.w3.org/2000/svg">
<g id="Musical note">
<g id="Union">
<path d="M29.4785 3.09959C29.4785 2.3774 28.8452 1.81881 28.1287 1.90898L11.4935 4.00238C10.8935 4.07789 10.4434 4.58818 10.4434 5.19299V24.4911H14.5879V10.0216C14.5879 9.51764 14.963 9.0924 15.463 9.02947L24.2091 7.92883C24.8062 7.85369 25.334 8.31918 25.334 8.92101V20.8036H29.4785V3.09959Z" fill="#634FC9"/>
<path d="M29.4785 3.09959C29.4785 2.3774 28.8452 1.81881 28.1287 1.90898L11.4935 4.00238C10.8935 4.07789 10.4434 4.58818 10.4434 5.19299V24.4911H14.5879V10.0216C14.5879 9.51764 14.963 9.0924 15.463 9.02947L24.2091 7.92883C24.8062 7.85369 25.334 8.31918 25.334 8.92101V20.8036H29.4785V3.09959Z" fill="url(#paint0_linear_4036_7143)"/>
<path d="M29.4785 3.09959C29.4785 2.3774 28.8452 1.81881 28.1287 1.90898L11.4935 4.00238C10.8935 4.07789 10.4434 4.58818 10.4434 5.19299V24.4911H14.5879V10.0216C14.5879 9.51764 14.963 9.0924 15.463 9.02947L24.2091 7.92883C24.8062 7.85369 25.334 8.31918 25.334 8.92101V20.8036H29.4785V3.09959Z" fill="url(#paint1_radial_4036_7143)"/>
<path d="M29.4785 3.09959C29.4785 2.3774 28.8452 1.81881 28.1287 1.90898L11.4935 4.00238C10.8935 4.07789 10.4434 4.58818 10.4434 5.19299V24.4911H14.5879V10.0216C14.5879 9.51764 14.963 9.0924 15.463 9.02947L24.2091 7.92883C24.8062 7.85369 25.334 8.31918 25.334 8.92101V20.8036H29.4785V3.09959Z" fill="url(#paint2_radial_4036_7143)"/>
<path d="M29.4785 3.09959C29.4785 2.3774 28.8452 1.81881 28.1287 1.90898L11.4935 4.00238C10.8935 4.07789 10.4434 4.58818 10.4434 5.19299V24.4911H14.5879V10.0216C14.5879 9.51764 14.963 9.0924 15.463 9.02947L24.2091 7.92883C24.8062 7.85369 25.334 8.31918 25.334 8.92101V20.8036H29.4785V3.09959Z" fill="url(#paint3_radial_4036_7143)"/>
<path d="M29.4785 3.09959C29.4785 2.3774 28.8452 1.81881 28.1287 1.90898L11.4935 4.00238C10.8935 4.07789 10.4434 4.58818 10.4434 5.19299V24.4911H14.5879V10.0216C14.5879 9.51764 14.963 9.0924 15.463 9.02947L24.2091 7.92883C24.8062 7.85369 25.334 8.31918 25.334 8.92101V20.8036H29.4785V3.09959Z" fill="url(#paint4_radial_4036_7143)" fill-opacity="0.4"/>
<path d="M29.4785 3.09959C29.4785 2.3774 28.8452 1.81881 28.1287 1.90898L11.4935 4.00238C10.8935 4.07789 10.4434 4.58818 10.4434 5.19299V24.4911H14.5879V10.0216C14.5879 9.51764 14.963 9.0924 15.463 9.02947L24.2091 7.92883C24.8062 7.85369 25.334 8.31918 25.334 8.92101V20.8036H29.4785V3.09959Z" fill="url(#paint5_radial_4036_7143)"/>
<path d="M29.4785 3.09959C29.4785 2.3774 28.8452 1.81881 28.1287 1.90898L11.4935 4.00238C10.8935 4.07789 10.4434 4.58818 10.4434 5.19299V24.4911H14.5879V10.0216C14.5879 9.51764 14.963 9.0924 15.463 9.02947L24.2091 7.92883C24.8062 7.85369 25.334 8.31918 25.334 8.92101V20.8036H29.4785V3.09959Z" fill="url(#paint6_radial_4036_7143)" fill-opacity="0.8"/>
<path d="M29.4785 3.09959C29.4785 2.3774 28.8452 1.81881 28.1287 1.90898L11.4935 4.00238C10.8935 4.07789 10.4434 4.58818 10.4434 5.19299V24.4911H14.5879V10.0216C14.5879 9.51764 14.963 9.0924 15.463 9.02947L24.2091 7.92883C24.8062 7.85369 25.334 8.31918 25.334 8.92101V20.8036H29.4785V3.09959Z" fill="url(#paint7_linear_4036_7143)"/>
<path d="M29.4785 3.09959C29.4785 2.3774 28.8452 1.81881 28.1287 1.90898L11.4935 4.00238C10.8935 4.07789 10.4434 4.58818 10.4434 5.19299V24.4911H14.5879V10.0216C14.5879 9.51764 14.963 9.0924 15.463 9.02947L24.2091 7.92883C24.8062 7.85369 25.334 8.31918 25.334 8.92101V20.8036H29.4785V3.09959Z" fill="url(#paint8_linear_4036_7143)"/>
<path d="M29.4785 3.09959C29.4785 2.3774 28.8452 1.81881 28.1287 1.90898L11.4935 4.00238C10.8935 4.07789 10.4434 4.58818 10.4434 5.19299V24.4911H14.5879V10.0216C14.5879 9.51764 14.963 9.0924 15.463 9.02947L24.2091 7.92883C24.8062 7.85369 25.334 8.31918 25.334 8.92101V20.8036H29.4785V3.09959Z" fill="url(#paint9_radial_4036_7143)"/>
</g>
<g id="Ellipse 116">
<circle cx="8.64648" cy="24.1592" r="5.94141" fill="url(#paint10_linear_4036_7143)"/>
<circle cx="8.64648" cy="24.1592" r="5.94141" fill="url(#paint11_radial_4036_7143)"/>
<circle cx="8.64648" cy="24.1592" r="5.94141" fill="url(#paint12_radial_4036_7143)"/>
<circle cx="8.64648" cy="24.1592" r="5.94141" fill="url(#paint13_radial_4036_7143)"/>
</g>
<g id="Ellipse 117">
<circle cx="23.5371" cy="20.7686" r="5.94141" fill="url(#paint14_linear_4036_7143)"/>
<circle cx="23.5371" cy="20.7686" r="5.94141" fill="url(#paint15_radial_4036_7143)"/>
<circle cx="23.5371" cy="20.7686" r="5.94141" fill="url(#paint16_radial_4036_7143)"/>
<circle cx="23.5371" cy="20.7686" r="5.94141" fill="url(#paint17_radial_4036_7143)"/>
</g>
</g>
<defs>
<linearGradient id="paint0_linear_4036_7143" x1="10.3112" y1="17.3205" x2="11.537" y2="17.3205" gradientUnits="userSpaceOnUse">
<stop stop-color="#544B83"/>
<stop offset="1" stop-color="#544B83" stop-opacity="0"/>
</linearGradient>
<radialGradient id="paint1_radial_4036_7143" cx="0" cy="0" r="1" gradientUnits="userSpaceOnUse" gradientTransform="translate(27.3184 17.2656) rotate(-51.1467) scale(1.44461 4.28044)">
<stop offset="0.582086" stop-color="#796DB7"/>
<stop offset="1" stop-color="#796DB7" stop-opacity="0"/>
</radialGradient>
<radialGradient id="paint2_radial_4036_7143" cx="0" cy="0" r="1" gradientUnits="userSpaceOnUse" gradientTransform="translate(12.4746 20.3906) rotate(-47.1211) scale(1.49258 4.0639)">
<stop offset="0.381918" stop-color="#796DB7"/>
<stop offset="1" stop-color="#796DB7" stop-opacity="0"/>
</radialGradient>
<radialGradient id="paint3_radial_4036_7143" cx="0" cy="0" r="1" gradientUnits="userSpaceOnUse" gradientTransform="translate(14.6062 17.1298) rotate(-0.279522) scale(2.22578 14.2144)">
<stop offset="0.116071" stop-color="#796DB7"/>
<stop offset="0.553571" stop-color="#796DB7" stop-opacity="0"/>
</radialGradient>
<radialGradient id="paint4_radial_4036_7143" cx="0" cy="0" r="1" gradientUnits="userSpaceOnUse" gradientTransform="translate(19.6506 8.42697) rotate(84.6373) scale(3.32105 15.6933)">
<stop offset="0.116071" stop-color="#544B83"/>
<stop offset="0.35185" stop-color="#544B83" stop-opacity="0"/>
</radialGradient>
<radialGradient id="paint5_radial_4036_7143" cx="0" cy="0" r="1" gradientUnits="userSpaceOnUse" gradientTransform="translate(14.9094 12.7973) rotate(-2.8864) scale(2.42866 5.06616)">
<stop offset="0.153652" stop-color="#796DB7"/>
<stop offset="0.557338" stop-color="#796DB7" stop-opacity="0"/>
</radialGradient>
<radialGradient id="paint6_radial_4036_7143" cx="0" cy="0" r="1" gradientUnits="userSpaceOnUse" gradientTransform="translate(14.8489 10.0928) rotate(31.8095) scale(1.79653 2.75469)">
<stop offset="0.239763" stop-color="#796DB7"/>
<stop offset="0.618253" stop-color="#796DB7" stop-opacity="0"/>
</radialGradient>
<linearGradient id="paint7_linear_4036_7143" x1="31.3917" y1="14.6013" x2="27.7154" y2="14.6183" gradientUnits="userSpaceOnUse">
<stop offset="0.480286" stop-color="#796DB7"/>
<stop offset="0.90049" stop-color="#796DB7" stop-opacity="0"/>
</linearGradient>
<linearGradient id="paint8_linear_4036_7143" x1="17.6474" y1="0.939506" x2="18.5479" y2="6.76279" gradientUnits="userSpaceOnUse">
<stop offset="0.304546" stop-color="#544B83"/>
<stop offset="0.678742" stop-color="#544B83" stop-opacity="0"/>
</linearGradient>
<radialGradient id="paint9_radial_4036_7143" cx="0" cy="0" r="1" gradientUnits="userSpaceOnUse" gradientTransform="translate(29.2052 2.22084) rotate(137.021) scale(2.3405 0.716969)">
<stop stop-color="#796DB7"/>
<stop offset="1" stop-color="#796DB7" stop-opacity="0"/>
</radialGradient>
<linearGradient id="paint10_linear_4036_7143" x1="8.64648" y1="18.2178" x2="8.64649" y2="29.1672" gradientUnits="userSpaceOnUse">
<stop stop-color="#7961F4"/>
<stop offset="1" stop-color="#503DAC"/>
</linearGradient>
<radialGradient id="paint11_radial_4036_7143" cx="0" cy="0" r="1" gradientUnits="userSpaceOnUse" gradientTransform="translate(11.545 22.8695) rotate(131.406) scale(5.169 4.49706)">
<stop stop-color="#897CCC"/>
<stop offset="1" stop-color="#796DB7" stop-opacity="0"/>
</radialGradient>
<radialGradient id="paint12_radial_4036_7143" cx="0" cy="0" r="1" gradientUnits="userSpaceOnUse" gradientTransform="translate(7.29796 24.1592) scale(8.19062 10.8866)">
<stop offset="0.796178" stop-color="#796DB7" stop-opacity="0"/>
<stop offset="0.955414" stop-color="#796DB7"/>
</radialGradient>
<radialGradient id="paint13_radial_4036_7143" cx="0" cy="0" r="1" gradientUnits="userSpaceOnUse" gradientTransform="translate(8.64648 22.9375) rotate(90) scale(7.40421 7.50615)">
<stop offset="0.71875" stop-color="#544B83" stop-opacity="0"/>
<stop offset="1" stop-color="#544B83"/>
</radialGradient>
<linearGradient id="paint14_linear_4036_7143" x1="23.5371" y1="14.8271" x2="23.5371" y2="25.7766" gradientUnits="userSpaceOnUse">
<stop stop-color="#7961F4"/>
<stop offset="1" stop-color="#503DAC"/>
</linearGradient>
<radialGradient id="paint15_radial_4036_7143" cx="0" cy="0" r="1" gradientUnits="userSpaceOnUse" gradientTransform="translate(26.4356 19.4789) rotate(131.406) scale(5.169 4.49706)">
<stop stop-color="#897CCC"/>
<stop offset="1" stop-color="#796DB7" stop-opacity="0"/>
</radialGradient>
<radialGradient id="paint16_radial_4036_7143" cx="0" cy="0" r="1" gradientUnits="userSpaceOnUse" gradientTransform="translate(22.1886 20.7686) scale(8.19062 10.8866)">
<stop offset="0.796178" stop-color="#796DB7" stop-opacity="0"/>
<stop offset="0.955414" stop-color="#796DB7"/>
</radialGradient>
<radialGradient id="paint17_radial_4036_7143" cx="0" cy="0" r="1" gradientUnits="userSpaceOnUse" gradientTransform="translate(23.5371 19.5469) rotate(90) scale(7.40421 7.50615)">
<stop offset="0.71875" stop-color="#544B83" stop-opacity="0"/>
<stop offset="1" stop-color="#544B83"/>
</radialGradient>
</defs>
</svg>
