<svg width="32" height="32" viewBox="0 0 32 32" fill="none" xmlns="http://www.w3.org/2000/svg">
<g id="Framed picture">
<rect id="Rectangle 5" x="3.5" y="3.5" width="25" height="25" fill="url(#paint0_linear_4036_7175)"/>
<circle id="Ellipse 367" cx="7.5" cy="12.3281" r="1.51562" fill="url(#paint1_radial_4036_7175)"/>
<g id="Union">
<path d="M5 16.0002L3.84375 13.0006L5 10.001C6.13864 10.1664 7.07478 10.9568 7.44928 12.0129C7.47252 12.0784 7.553 12.1047 7.6112 12.0667C7.9475 11.8468 8.34942 11.7189 8.78125 11.7189C9.96347 11.7189 10.9219 12.6773 10.9219 13.8595C10.9219 15.0417 9.96347 16.0002 8.78125 16.0002H5Z" fill="#DFDEFF"/>
<path d="M5 16.0002L3.84375 13.0006L5 10.001C6.13864 10.1664 7.07478 10.9568 7.44928 12.0129C7.47252 12.0784 7.553 12.1047 7.6112 12.0667C7.9475 11.8468 8.34942 11.7189 8.78125 11.7189C9.96347 11.7189 10.9219 12.6773 10.9219 13.8595C10.9219 15.0417 9.96347 16.0002 8.78125 16.0002H5Z" fill="url(#paint2_linear_4036_7175)"/>
<path d="M5 16.0002L3.84375 13.0006L5 10.001C6.13864 10.1664 7.07478 10.9568 7.44928 12.0129C7.47252 12.0784 7.553 12.1047 7.6112 12.0667C7.9475 11.8468 8.34942 11.7189 8.78125 11.7189C9.96347 11.7189 10.9219 12.6773 10.9219 13.8595C10.9219 15.0417 9.96347 16.0002 8.78125 16.0002H5Z" fill="url(#paint3_radial_4036_7175)"/>
<path d="M5 16.0002L3.84375 13.0006L5 10.001C6.13864 10.1664 7.07478 10.9568 7.44928 12.0129C7.47252 12.0784 7.553 12.1047 7.6112 12.0667C7.9475 11.8468 8.34942 11.7189 8.78125 11.7189C9.96347 11.7189 10.9219 12.6773 10.9219 13.8595C10.9219 15.0417 9.96347 16.0002 8.78125 16.0002H5Z" fill="url(#paint4_radial_4036_7175)"/>
</g>
<g id="Ellipse 365">
<circle cx="24.1869" cy="12.1266" r="2.06773" fill="url(#paint5_radial_4036_7175)"/>
<circle cx="24.1869" cy="12.1266" r="2.06773" fill="url(#paint6_radial_4036_7175)"/>
</g>
<g id="Vector 907">
<path d="M23.2676 12.9869C24.3301 10.5398 26.1822 9.32772 27.0006 9.15332L28.6568 14.7075H24.6863L23.2676 12.9869Z" fill="url(#paint7_radial_4036_7175)"/>
<path d="M23.2676 12.9869C24.3301 10.5398 26.1822 9.32772 27.0006 9.15332L28.6568 14.7075H24.6863L23.2676 12.9869Z" fill="url(#paint8_radial_4036_7175)"/>
</g>
<circle id="Ellipse 366" cx="22.3069" cy="14.7334" r="3.24443" fill="url(#paint9_radial_4036_7175)"/>
<g id="Vector 908">
<path d="M7.51073 17.808L5 19.2487L4.0625 27.875H28.2812C28.2812 27.875 27 12.7959 27 12.2393C25.5 12.2393 24.5 12.7313 23 14.2074L18.5 18.6356C17.5 19.6197 16.5724 19.9998 15.5724 19.5077C15.2391 19.3437 14.0345 18.5796 12.529 17.727C10.9774 16.8483 8.62771 17.1119 7.51073 17.808Z" fill="url(#paint10_radial_4036_7175)"/>
<path d="M7.51073 17.808L5 19.2487L4.0625 27.875H28.2812C28.2812 27.875 27 12.7959 27 12.2393C25.5 12.2393 24.5 12.7313 23 14.2074L18.5 18.6356C17.5 19.6197 16.5724 19.9998 15.5724 19.5077C15.2391 19.3437 14.0345 18.5796 12.529 17.727C10.9774 16.8483 8.62771 17.1119 7.51073 17.808Z" fill="url(#paint11_radial_4036_7175)"/>
<path d="M7.51073 17.808L5 19.2487L4.0625 27.875H28.2812C28.2812 27.875 27 12.7959 27 12.2393C25.5 12.2393 24.5 12.7313 23 14.2074L18.5 18.6356C17.5 19.6197 16.5724 19.9998 15.5724 19.5077C15.2391 19.3437 14.0345 18.5796 12.529 17.727C10.9774 16.8483 8.62771 17.1119 7.51073 17.808Z" fill="url(#paint12_radial_4036_7175)"/>
<path d="M7.51073 17.808L5 19.2487L4.0625 27.875H28.2812C28.2812 27.875 27 12.7959 27 12.2393C25.5 12.2393 24.5 12.7313 23 14.2074L18.5 18.6356C17.5 19.6197 16.5724 19.9998 15.5724 19.5077C15.2391 19.3437 14.0345 18.5796 12.529 17.727C10.9774 16.8483 8.62771 17.1119 7.51073 17.808Z" fill="url(#paint13_radial_4036_7175)"/>
<path d="M7.51073 17.808L5 19.2487L4.0625 27.875H28.2812C28.2812 27.875 27 12.7959 27 12.2393C25.5 12.2393 24.5 12.7313 23 14.2074L18.5 18.6356C17.5 19.6197 16.5724 19.9998 15.5724 19.5077C15.2391 19.3437 14.0345 18.5796 12.529 17.727C10.9774 16.8483 8.62771 17.1119 7.51073 17.808Z" fill="url(#paint14_radial_4036_7175)"/>
</g>
<g id="Intersect">
<path d="M27 26.8115V27H5V26.8114C7.56366 24.232 11.538 22.5 16 22.5C20.4619 22.5 24.4363 24.232 27 26.8115Z" fill="url(#paint15_radial_4036_7175)"/>
<path d="M27 26.8115V27H5V26.8114C7.56366 24.232 11.538 22.5 16 22.5C20.4619 22.5 24.4363 24.232 27 26.8115Z" fill="url(#paint16_radial_4036_7175)"/>
<path d="M27 26.8115V27H5V26.8114C7.56366 24.232 11.538 22.5 16 22.5C20.4619 22.5 24.4363 24.232 27 26.8115Z" fill="url(#paint17_radial_4036_7175)"/>
</g>
<g id="Sun Rays">
<path d="M16.2495 6.93358C16.5612 6.58271 16.985 6.63855 17.2561 6.93358L17.4215 7.12505C17.4788 7.18735 17.5616 7.21965 17.646 7.21255L17.94 7.12505C18.3407 7.03913 18.7049 7.33812 18.7049 7.80249V7.97742C18.7134 8.07292 18.7968 8.13766 18.883 8.17973L19.1486 8.29072C19.5329 8.47838 19.6289 8.92367 19.349 9.29739L19.2695 9.40235C19.1982 9.49878 19.2128 9.62533 19.2838 9.72201L19.3633 9.83333C19.6528 10.1896 19.4896 10.6783 19.0807 10.8491L18.852 10.9446C18.7659 10.9805 18.7322 11.0423 18.7161 11.1342L18.7002 11.4332C18.6445 11.8435 18.2801 12.0288 17.9877 11.9874L17.6394 11.8944C17.5558 11.8825 17.4518 11.9103 17.3961 11.9978L17.2705 12.1695C16.9588 12.521 16.538 12.4625 16.3258 12.257L16.094 11.9763C16.0334 11.9175 15.9568 11.8674 15.8653 11.9019L15.5147 11.9978C15.2253 12.0387 14.8846 11.8163 14.83 11.5291L14.7896 11.1135C14.7731 11.027 14.7161 10.9537 14.6363 10.9165L14.3904 10.8321C14.0206 10.6597 13.8968 10.2426 14.1091 9.89421L14.2477 9.70255C14.3033 9.61121 14.3007 9.49582 14.2409 9.40713L14.1375 9.26082C13.8449 8.84415 14.0472 8.37844 14.4808 8.23882L14.5765 8.20802C14.682 8.17404 14.784 8.08638 14.7927 7.97584L14.814 7.70749C14.8486 7.27192 15.2461 7.02199 15.6641 7.14908L15.7994 7.19021C15.9298 7.2411 16.032 7.19776 16.1032 7.12023L16.2495 6.93358Z" fill="url(#paint18_linear_4036_7175)"/>
<path d="M16.2495 6.93358C16.5612 6.58271 16.985 6.63855 17.2561 6.93358L17.4215 7.12505C17.4788 7.18735 17.5616 7.21965 17.646 7.21255L17.94 7.12505C18.3407 7.03913 18.7049 7.33812 18.7049 7.80249V7.97742C18.7134 8.07292 18.7968 8.13766 18.883 8.17973L19.1486 8.29072C19.5329 8.47838 19.6289 8.92367 19.349 9.29739L19.2695 9.40235C19.1982 9.49878 19.2128 9.62533 19.2838 9.72201L19.3633 9.83333C19.6528 10.1896 19.4896 10.6783 19.0807 10.8491L18.852 10.9446C18.7659 10.9805 18.7322 11.0423 18.7161 11.1342L18.7002 11.4332C18.6445 11.8435 18.2801 12.0288 17.9877 11.9874L17.6394 11.8944C17.5558 11.8825 17.4518 11.9103 17.3961 11.9978L17.2705 12.1695C16.9588 12.521 16.538 12.4625 16.3258 12.257L16.094 11.9763C16.0334 11.9175 15.9568 11.8674 15.8653 11.9019L15.5147 11.9978C15.2253 12.0387 14.8846 11.8163 14.83 11.5291L14.7896 11.1135C14.7731 11.027 14.7161 10.9537 14.6363 10.9165L14.3904 10.8321C14.0206 10.6597 13.8968 10.2426 14.1091 9.89421L14.2477 9.70255C14.3033 9.61121 14.3007 9.49582 14.2409 9.40713L14.1375 9.26082C13.8449 8.84415 14.0472 8.37844 14.4808 8.23882L14.5765 8.20802C14.682 8.17404 14.784 8.08638 14.7927 7.97584L14.814 7.70749C14.8486 7.27192 15.2461 7.02199 15.6641 7.14908L15.7994 7.19021C15.9298 7.2411 16.032 7.19776 16.1032 7.12023L16.2495 6.93358Z" fill="url(#paint19_radial_4036_7175)"/>
<path d="M16.2495 6.93358C16.5612 6.58271 16.985 6.63855 17.2561 6.93358L17.4215 7.12505C17.4788 7.18735 17.5616 7.21965 17.646 7.21255L17.94 7.12505C18.3407 7.03913 18.7049 7.33812 18.7049 7.80249V7.97742C18.7134 8.07292 18.7968 8.13766 18.883 8.17973L19.1486 8.29072C19.5329 8.47838 19.6289 8.92367 19.349 9.29739L19.2695 9.40235C19.1982 9.49878 19.2128 9.62533 19.2838 9.72201L19.3633 9.83333C19.6528 10.1896 19.4896 10.6783 19.0807 10.8491L18.852 10.9446C18.7659 10.9805 18.7322 11.0423 18.7161 11.1342L18.7002 11.4332C18.6445 11.8435 18.2801 12.0288 17.9877 11.9874L17.6394 11.8944C17.5558 11.8825 17.4518 11.9103 17.3961 11.9978L17.2705 12.1695C16.9588 12.521 16.538 12.4625 16.3258 12.257L16.094 11.9763C16.0334 11.9175 15.9568 11.8674 15.8653 11.9019L15.5147 11.9978C15.2253 12.0387 14.8846 11.8163 14.83 11.5291L14.7896 11.1135C14.7731 11.027 14.7161 10.9537 14.6363 10.9165L14.3904 10.8321C14.0206 10.6597 13.8968 10.2426 14.1091 9.89421L14.2477 9.70255C14.3033 9.61121 14.3007 9.49582 14.2409 9.40713L14.1375 9.26082C13.8449 8.84415 14.0472 8.37844 14.4808 8.23882L14.5765 8.20802C14.682 8.17404 14.784 8.08638 14.7927 7.97584L14.814 7.70749C14.8486 7.27192 15.2461 7.02199 15.6641 7.14908L15.7994 7.19021C15.9298 7.2411 16.032 7.19776 16.1032 7.12023L16.2495 6.93358Z" fill="url(#paint20_radial_4036_7175)"/>
<path d="M16.2495 6.93358C16.5612 6.58271 16.985 6.63855 17.2561 6.93358L17.4215 7.12505C17.4788 7.18735 17.5616 7.21965 17.646 7.21255L17.94 7.12505C18.3407 7.03913 18.7049 7.33812 18.7049 7.80249V7.97742C18.7134 8.07292 18.7968 8.13766 18.883 8.17973L19.1486 8.29072C19.5329 8.47838 19.6289 8.92367 19.349 9.29739L19.2695 9.40235C19.1982 9.49878 19.2128 9.62533 19.2838 9.72201L19.3633 9.83333C19.6528 10.1896 19.4896 10.6783 19.0807 10.8491L18.852 10.9446C18.7659 10.9805 18.7322 11.0423 18.7161 11.1342L18.7002 11.4332C18.6445 11.8435 18.2801 12.0288 17.9877 11.9874L17.6394 11.8944C17.5558 11.8825 17.4518 11.9103 17.3961 11.9978L17.2705 12.1695C16.9588 12.521 16.538 12.4625 16.3258 12.257L16.094 11.9763C16.0334 11.9175 15.9568 11.8674 15.8653 11.9019L15.5147 11.9978C15.2253 12.0387 14.8846 11.8163 14.83 11.5291L14.7896 11.1135C14.7731 11.027 14.7161 10.9537 14.6363 10.9165L14.3904 10.8321C14.0206 10.6597 13.8968 10.2426 14.1091 9.89421L14.2477 9.70255C14.3033 9.61121 14.3007 9.49582 14.2409 9.40713L14.1375 9.26082C13.8449 8.84415 14.0472 8.37844 14.4808 8.23882L14.5765 8.20802C14.682 8.17404 14.784 8.08638 14.7927 7.97584L14.814 7.70749C14.8486 7.27192 15.2461 7.02199 15.6641 7.14908L15.7994 7.19021C15.9298 7.2411 16.032 7.19776 16.1032 7.12023L16.2495 6.93358Z" fill="url(#paint21_radial_4036_7175)"/>
<path d="M16.2495 6.93358C16.5612 6.58271 16.985 6.63855 17.2561 6.93358L17.4215 7.12505C17.4788 7.18735 17.5616 7.21965 17.646 7.21255L17.94 7.12505C18.3407 7.03913 18.7049 7.33812 18.7049 7.80249V7.97742C18.7134 8.07292 18.7968 8.13766 18.883 8.17973L19.1486 8.29072C19.5329 8.47838 19.6289 8.92367 19.349 9.29739L19.2695 9.40235C19.1982 9.49878 19.2128 9.62533 19.2838 9.72201L19.3633 9.83333C19.6528 10.1896 19.4896 10.6783 19.0807 10.8491L18.852 10.9446C18.7659 10.9805 18.7322 11.0423 18.7161 11.1342L18.7002 11.4332C18.6445 11.8435 18.2801 12.0288 17.9877 11.9874L17.6394 11.8944C17.5558 11.8825 17.4518 11.9103 17.3961 11.9978L17.2705 12.1695C16.9588 12.521 16.538 12.4625 16.3258 12.257L16.094 11.9763C16.0334 11.9175 15.9568 11.8674 15.8653 11.9019L15.5147 11.9978C15.2253 12.0387 14.8846 11.8163 14.83 11.5291L14.7896 11.1135C14.7731 11.027 14.7161 10.9537 14.6363 10.9165L14.3904 10.8321C14.0206 10.6597 13.8968 10.2426 14.1091 9.89421L14.2477 9.70255C14.3033 9.61121 14.3007 9.49582 14.2409 9.40713L14.1375 9.26082C13.8449 8.84415 14.0472 8.37844 14.4808 8.23882L14.5765 8.20802C14.682 8.17404 14.784 8.08638 14.7927 7.97584L14.814 7.70749C14.8486 7.27192 15.2461 7.02199 15.6641 7.14908L15.7994 7.19021C15.9298 7.2411 16.032 7.19776 16.1032 7.12023L16.2495 6.93358Z" fill="url(#paint22_radial_4036_7175)"/>
<path d="M16.2495 6.93358C16.5612 6.58271 16.985 6.63855 17.2561 6.93358L17.4215 7.12505C17.4788 7.18735 17.5616 7.21965 17.646 7.21255L17.94 7.12505C18.3407 7.03913 18.7049 7.33812 18.7049 7.80249V7.97742C18.7134 8.07292 18.7968 8.13766 18.883 8.17973L19.1486 8.29072C19.5329 8.47838 19.6289 8.92367 19.349 9.29739L19.2695 9.40235C19.1982 9.49878 19.2128 9.62533 19.2838 9.72201L19.3633 9.83333C19.6528 10.1896 19.4896 10.6783 19.0807 10.8491L18.852 10.9446C18.7659 10.9805 18.7322 11.0423 18.7161 11.1342L18.7002 11.4332C18.6445 11.8435 18.2801 12.0288 17.9877 11.9874L17.6394 11.8944C17.5558 11.8825 17.4518 11.9103 17.3961 11.9978L17.2705 12.1695C16.9588 12.521 16.538 12.4625 16.3258 12.257L16.094 11.9763C16.0334 11.9175 15.9568 11.8674 15.8653 11.9019L15.5147 11.9978C15.2253 12.0387 14.8846 11.8163 14.83 11.5291L14.7896 11.1135C14.7731 11.027 14.7161 10.9537 14.6363 10.9165L14.3904 10.8321C14.0206 10.6597 13.8968 10.2426 14.1091 9.89421L14.2477 9.70255C14.3033 9.61121 14.3007 9.49582 14.2409 9.40713L14.1375 9.26082C13.8449 8.84415 14.0472 8.37844 14.4808 8.23882L14.5765 8.20802C14.682 8.17404 14.784 8.08638 14.7927 7.97584L14.814 7.70749C14.8486 7.27192 15.2461 7.02199 15.6641 7.14908L15.7994 7.19021C15.9298 7.2411 16.032 7.19776 16.1032 7.12023L16.2495 6.93358Z" fill="url(#paint23_radial_4036_7175)"/>
<path d="M16.2495 6.93358C16.5612 6.58271 16.985 6.63855 17.2561 6.93358L17.4215 7.12505C17.4788 7.18735 17.5616 7.21965 17.646 7.21255L17.94 7.12505C18.3407 7.03913 18.7049 7.33812 18.7049 7.80249V7.97742C18.7134 8.07292 18.7968 8.13766 18.883 8.17973L19.1486 8.29072C19.5329 8.47838 19.6289 8.92367 19.349 9.29739L19.2695 9.40235C19.1982 9.49878 19.2128 9.62533 19.2838 9.72201L19.3633 9.83333C19.6528 10.1896 19.4896 10.6783 19.0807 10.8491L18.852 10.9446C18.7659 10.9805 18.7322 11.0423 18.7161 11.1342L18.7002 11.4332C18.6445 11.8435 18.2801 12.0288 17.9877 11.9874L17.6394 11.8944C17.5558 11.8825 17.4518 11.9103 17.3961 11.9978L17.2705 12.1695C16.9588 12.521 16.538 12.4625 16.3258 12.257L16.094 11.9763C16.0334 11.9175 15.9568 11.8674 15.8653 11.9019L15.5147 11.9978C15.2253 12.0387 14.8846 11.8163 14.83 11.5291L14.7896 11.1135C14.7731 11.027 14.7161 10.9537 14.6363 10.9165L14.3904 10.8321C14.0206 10.6597 13.8968 10.2426 14.1091 9.89421L14.2477 9.70255C14.3033 9.61121 14.3007 9.49582 14.2409 9.40713L14.1375 9.26082C13.8449 8.84415 14.0472 8.37844 14.4808 8.23882L14.5765 8.20802C14.682 8.17404 14.784 8.08638 14.7927 7.97584L14.814 7.70749C14.8486 7.27192 15.2461 7.02199 15.6641 7.14908L15.7994 7.19021C15.9298 7.2411 16.032 7.19776 16.1032 7.12023L16.2495 6.93358Z" fill="url(#paint24_radial_4036_7175)"/>
<path d="M16.2495 6.93358C16.5612 6.58271 16.985 6.63855 17.2561 6.93358L17.4215 7.12505C17.4788 7.18735 17.5616 7.21965 17.646 7.21255L17.94 7.12505C18.3407 7.03913 18.7049 7.33812 18.7049 7.80249V7.97742C18.7134 8.07292 18.7968 8.13766 18.883 8.17973L19.1486 8.29072C19.5329 8.47838 19.6289 8.92367 19.349 9.29739L19.2695 9.40235C19.1982 9.49878 19.2128 9.62533 19.2838 9.72201L19.3633 9.83333C19.6528 10.1896 19.4896 10.6783 19.0807 10.8491L18.852 10.9446C18.7659 10.9805 18.7322 11.0423 18.7161 11.1342L18.7002 11.4332C18.6445 11.8435 18.2801 12.0288 17.9877 11.9874L17.6394 11.8944C17.5558 11.8825 17.4518 11.9103 17.3961 11.9978L17.2705 12.1695C16.9588 12.521 16.538 12.4625 16.3258 12.257L16.094 11.9763C16.0334 11.9175 15.9568 11.8674 15.8653 11.9019L15.5147 11.9978C15.2253 12.0387 14.8846 11.8163 14.83 11.5291L14.7896 11.1135C14.7731 11.027 14.7161 10.9537 14.6363 10.9165L14.3904 10.8321C14.0206 10.6597 13.8968 10.2426 14.1091 9.89421L14.2477 9.70255C14.3033 9.61121 14.3007 9.49582 14.2409 9.40713L14.1375 9.26082C13.8449 8.84415 14.0472 8.37844 14.4808 8.23882L14.5765 8.20802C14.682 8.17404 14.784 8.08638 14.7927 7.97584L14.814 7.70749C14.8486 7.27192 15.2461 7.02199 15.6641 7.14908L15.7994 7.19021C15.9298 7.2411 16.032 7.19776 16.1032 7.12023L16.2495 6.93358Z" fill="url(#paint25_radial_4036_7175)"/>
<path d="M16.2495 6.93358C16.5612 6.58271 16.985 6.63855 17.2561 6.93358L17.4215 7.12505C17.4788 7.18735 17.5616 7.21965 17.646 7.21255L17.94 7.12505C18.3407 7.03913 18.7049 7.33812 18.7049 7.80249V7.97742C18.7134 8.07292 18.7968 8.13766 18.883 8.17973L19.1486 8.29072C19.5329 8.47838 19.6289 8.92367 19.349 9.29739L19.2695 9.40235C19.1982 9.49878 19.2128 9.62533 19.2838 9.72201L19.3633 9.83333C19.6528 10.1896 19.4896 10.6783 19.0807 10.8491L18.852 10.9446C18.7659 10.9805 18.7322 11.0423 18.7161 11.1342L18.7002 11.4332C18.6445 11.8435 18.2801 12.0288 17.9877 11.9874L17.6394 11.8944C17.5558 11.8825 17.4518 11.9103 17.3961 11.9978L17.2705 12.1695C16.9588 12.521 16.538 12.4625 16.3258 12.257L16.094 11.9763C16.0334 11.9175 15.9568 11.8674 15.8653 11.9019L15.5147 11.9978C15.2253 12.0387 14.8846 11.8163 14.83 11.5291L14.7896 11.1135C14.7731 11.027 14.7161 10.9537 14.6363 10.9165L14.3904 10.8321C14.0206 10.6597 13.8968 10.2426 14.1091 9.89421L14.2477 9.70255C14.3033 9.61121 14.3007 9.49582 14.2409 9.40713L14.1375 9.26082C13.8449 8.84415 14.0472 8.37844 14.4808 8.23882L14.5765 8.20802C14.682 8.17404 14.784 8.08638 14.7927 7.97584L14.814 7.70749C14.8486 7.27192 15.2461 7.02199 15.6641 7.14908L15.7994 7.19021C15.9298 7.2411 16.032 7.19776 16.1032 7.12023L16.2495 6.93358Z" fill="url(#paint26_radial_4036_7175)"/>
<path d="M16.2495 6.93358C16.5612 6.58271 16.985 6.63855 17.2561 6.93358L17.4215 7.12505C17.4788 7.18735 17.5616 7.21965 17.646 7.21255L17.94 7.12505C18.3407 7.03913 18.7049 7.33812 18.7049 7.80249V7.97742C18.7134 8.07292 18.7968 8.13766 18.883 8.17973L19.1486 8.29072C19.5329 8.47838 19.6289 8.92367 19.349 9.29739L19.2695 9.40235C19.1982 9.49878 19.2128 9.62533 19.2838 9.72201L19.3633 9.83333C19.6528 10.1896 19.4896 10.6783 19.0807 10.8491L18.852 10.9446C18.7659 10.9805 18.7322 11.0423 18.7161 11.1342L18.7002 11.4332C18.6445 11.8435 18.2801 12.0288 17.9877 11.9874L17.6394 11.8944C17.5558 11.8825 17.4518 11.9103 17.3961 11.9978L17.2705 12.1695C16.9588 12.521 16.538 12.4625 16.3258 12.257L16.094 11.9763C16.0334 11.9175 15.9568 11.8674 15.8653 11.9019L15.5147 11.9978C15.2253 12.0387 14.8846 11.8163 14.83 11.5291L14.7896 11.1135C14.7731 11.027 14.7161 10.9537 14.6363 10.9165L14.3904 10.8321C14.0206 10.6597 13.8968 10.2426 14.1091 9.89421L14.2477 9.70255C14.3033 9.61121 14.3007 9.49582 14.2409 9.40713L14.1375 9.26082C13.8449 8.84415 14.0472 8.37844 14.4808 8.23882L14.5765 8.20802C14.682 8.17404 14.784 8.08638 14.7927 7.97584L14.814 7.70749C14.8486 7.27192 15.2461 7.02199 15.6641 7.14908L15.7994 7.19021C15.9298 7.2411 16.032 7.19776 16.1032 7.12023L16.2495 6.93358Z" fill="url(#paint27_radial_4036_7175)"/>
</g>
<path id="Sun centre" d="M16.7552 11.7384C17.963 11.7384 18.9421 10.7594 18.9421 9.55159C18.9421 8.34383 17.963 7.36475 16.7552 7.36475C15.5474 7.36475 14.5684 8.34383 14.5684 9.55159C14.5684 10.7594 15.5474 11.7384 16.7552 11.7384Z" fill="url(#paint28_radial_4036_7175)"/>
<g id="Subtract">
<path d="M5 5L4.21875 3.0625L2 2V30L4.21875 28.75L5 27V5Z" fill="url(#paint29_linear_4036_7175)"/>
<path d="M5 5L4.21875 3.0625L2 2V30L4.21875 28.75L5 27V5Z" fill="url(#paint30_linear_4036_7175)"/>
</g>
<g id="Subtract_2">
<path d="M27 27L27.375 28.5L30 30L30 2L27.5625 3.5L27 5V27Z" fill="url(#paint31_linear_4036_7175)"/>
<path d="M27 27L27.375 28.5L30 30L30 2L27.5625 3.5L27 5V27Z" fill="url(#paint32_linear_4036_7175)"/>
</g>
<g id="Subtract_3">
<path d="M5 27L2 30L30 30L27 27H5Z" fill="url(#paint33_linear_4036_7175)"/>
<path d="M5 27L2 30L30 30L27 27H5Z" fill="url(#paint34_linear_4036_7175)"/>
<path d="M5 27L2 30L30 30L27 27H5Z" fill="url(#paint35_linear_4036_7175)"/>
</g>
<g id="Subtract_4">
<path d="M27 5H5L2 2H30L27 5Z" fill="url(#paint36_linear_4036_7175)"/>
<path d="M27 5H5L2 2H30L27 5Z" fill="url(#paint37_linear_4036_7175)"/>
<path d="M27 5H5L2 2H30L27 5Z" fill="url(#paint38_linear_4036_7175)"/>
</g>
</g>
<defs>
<linearGradient id="paint0_linear_4036_7175" x1="16" y1="3.5" x2="16" y2="28.5" gradientUnits="userSpaceOnUse">
<stop stop-color="#A6E5F7"/>
<stop offset="0.614765" stop-color="#85D6F5"/>
</linearGradient>
<radialGradient id="paint1_radial_4036_7175" cx="0" cy="0" r="1" gradientUnits="userSpaceOnUse" gradientTransform="translate(7.67184 12.1094) rotate(-115.017) scale(1.55184)">
<stop offset="0.108272" stop-color="#EBEAFF"/>
<stop offset="1" stop-color="#D5D8FF"/>
</radialGradient>
<linearGradient id="paint2_linear_4036_7175" x1="7.06247" y1="16.0002" x2="7.06247" y2="15.1252" gradientUnits="userSpaceOnUse">
<stop stop-color="#CFC9FF"/>
<stop offset="1" stop-color="#CFC9FF" stop-opacity="0"/>
</linearGradient>
<radialGradient id="paint3_radial_4036_7175" cx="0" cy="0" r="1" gradientUnits="userSpaceOnUse" gradientTransform="translate(10.5625 13.3127) rotate(151.736) scale(3.29965 2.77018)">
<stop stop-color="#F2F3FF"/>
<stop offset="1" stop-color="#F2F3FF" stop-opacity="0"/>
</radialGradient>
<radialGradient id="paint4_radial_4036_7175" cx="0" cy="0" r="1" gradientUnits="userSpaceOnUse" gradientTransform="translate(6.87497 10.6877) rotate(121.861) scale(2.72323 2.20759)">
<stop offset="0.222069" stop-color="#F4F4FF"/>
<stop offset="1" stop-color="#F4F4FF" stop-opacity="0"/>
</radialGradient>
<radialGradient id="paint5_radial_4036_7175" cx="0" cy="0" r="1" gradientUnits="userSpaceOnUse" gradientTransform="translate(22.3117 10.6875) rotate(18.4331) scale(1.97661)">
<stop offset="0.209985" stop-color="#D4D5FF"/>
<stop offset="0.754934" stop-color="#DDDCFF"/>
</radialGradient>
<radialGradient id="paint6_radial_4036_7175" cx="0" cy="0" r="1" gradientUnits="userSpaceOnUse" gradientTransform="translate(23.7336 12.6094) rotate(-50.9342) scale(3.09915 1.44237)">
<stop offset="0.457026" stop-color="#EFEFFF"/>
<stop offset="1" stop-color="#EFEFFF" stop-opacity="0"/>
</radialGradient>
<radialGradient id="paint7_radial_4036_7175" cx="0" cy="0" r="1" gradientUnits="userSpaceOnUse" gradientTransform="translate(27.0005 12.3126) rotate(-128.32) scale(2.46954 5.0951)">
<stop offset="0.581265" stop-color="#DEDFFF"/>
<stop offset="1" stop-color="#D8D9FF"/>
</radialGradient>
<radialGradient id="paint8_radial_4036_7175" cx="0" cy="0" r="1" gradientUnits="userSpaceOnUse" gradientTransform="translate(23.7818 12.8751) rotate(-42.7094) scale(1.65861 2.55667)">
<stop offset="0.564164" stop-color="#EFEFFF"/>
<stop offset="0.728168" stop-color="#EFEFFF" stop-opacity="0"/>
</radialGradient>
<radialGradient id="paint9_radial_4036_7175" cx="0" cy="0" r="1" gradientUnits="userSpaceOnUse" gradientTransform="translate(24.8583 12.7781) rotate(152.354) scale(6.19123)">
<stop offset="0.400983" stop-color="#EEEEFF"/>
<stop offset="1" stop-color="#D4D3FF"/>
</radialGradient>
<radialGradient id="paint10_radial_4036_7175" cx="0" cy="0" r="1" gradientUnits="userSpaceOnUse" gradientTransform="translate(16 24.1035) rotate(-90) scale(8.72958 21.4715)">
<stop stop-color="#2DAC5B"/>
<stop offset="1" stop-color="#35BD69"/>
</radialGradient>
<radialGradient id="paint11_radial_4036_7175" cx="0" cy="0" r="1" gradientUnits="userSpaceOnUse" gradientTransform="translate(11.5625 16.3125) rotate(50.3558) scale(8.52249 5.18342)">
<stop stop-color="#4DC277"/>
<stop offset="1" stop-color="#4DC277" stop-opacity="0"/>
</radialGradient>
<radialGradient id="paint12_radial_4036_7175" cx="0" cy="0" r="1" gradientUnits="userSpaceOnUse" gradientTransform="translate(27 12.2393) rotate(90) scale(12.6982 5.0046)">
<stop stop-color="#3BCC74"/>
<stop offset="1" stop-color="#3BCC74" stop-opacity="0"/>
</radialGradient>
<radialGradient id="paint13_radial_4036_7175" cx="0" cy="0" r="1" gradientUnits="userSpaceOnUse" gradientTransform="translate(18 18.3125) rotate(110.45) scale(3.93552 2.5757)">
<stop offset="0.350226" stop-color="#4CA876"/>
<stop offset="1" stop-color="#4CA876" stop-opacity="0"/>
</radialGradient>
<radialGradient id="paint14_radial_4036_7175" cx="0" cy="0" r="1" gradientUnits="userSpaceOnUse" gradientTransform="translate(5 28.125) rotate(-49.844) scale(5.2336 7.8004)">
<stop stop-color="#399E60"/>
<stop offset="1" stop-color="#399E60" stop-opacity="0"/>
</radialGradient>
<radialGradient id="paint15_radial_4036_7175" cx="0" cy="0" r="1" gradientUnits="userSpaceOnUse" gradientTransform="translate(16 27) rotate(-90) scale(4.04422 11.7897)">
<stop stop-color="#7FD86C"/>
<stop offset="1" stop-color="#9FD660"/>
</radialGradient>
<radialGradient id="paint16_radial_4036_7175" cx="0" cy="0" r="1" gradientUnits="userSpaceOnUse" gradientTransform="translate(6.39028 28.2655) rotate(-31.3955) scale(10.3168 13.9517)">
<stop stop-color="#79C56C"/>
<stop offset="1" stop-color="#79C56C" stop-opacity="0"/>
</radialGradient>
<radialGradient id="paint17_radial_4036_7175" cx="0" cy="0" r="1" gradientUnits="userSpaceOnUse" gradientTransform="translate(27.5643 28.395) rotate(-133.877) scale(9.34232 9.40426)">
<stop stop-color="#93EB81"/>
<stop offset="1" stop-color="#93EB81" stop-opacity="0"/>
</radialGradient>
<linearGradient id="paint18_linear_4036_7175" x1="18.4535" y1="7.65336" x2="15.3289" y2="11.64" gradientUnits="userSpaceOnUse">
<stop stop-color="#FC8B23"/>
<stop offset="1" stop-color="#E67639"/>
</linearGradient>
<radialGradient id="paint19_radial_4036_7175" cx="0" cy="0" r="1" gradientUnits="userSpaceOnUse" gradientTransform="translate(17.2812 6.95523) rotate(138.155) scale(0.769184 0.678659)">
<stop offset="0.300161" stop-color="#FFA13A"/>
<stop offset="1" stop-color="#FFA13A" stop-opacity="0"/>
</radialGradient>
<radialGradient id="paint20_radial_4036_7175" cx="0" cy="0" r="1" gradientUnits="userSpaceOnUse" gradientTransform="translate(15.2799 6.71241) rotate(67.8105) scale(1.22282 1.07891)">
<stop offset="0.300161" stop-color="#FF942A"/>
<stop offset="1" stop-color="#FF942A" stop-opacity="0"/>
</radialGradient>
<radialGradient id="paint21_radial_4036_7175" cx="0" cy="0" r="1" gradientUnits="userSpaceOnUse" gradientTransform="translate(18.564 7.85322) rotate(-164.745) scale(0.487556 0.675085)">
<stop offset="0.300161" stop-color="#FFA13D"/>
<stop offset="1" stop-color="#FFA13D" stop-opacity="0"/>
</radialGradient>
<radialGradient id="paint22_radial_4036_7175" cx="0" cy="0" r="1" gradientUnits="userSpaceOnUse" gradientTransform="translate(19.5475 8.56306) rotate(154.195) scale(0.86446 0.638467)">
<stop offset="0.300161" stop-color="#FFA13D"/>
<stop offset="1" stop-color="#FFA13D" stop-opacity="0"/>
</radialGradient>
<radialGradient id="paint23_radial_4036_7175" cx="0" cy="0" r="1" gradientUnits="userSpaceOnUse" gradientTransform="translate(19.7357 10.0255) rotate(-173.379) scale(0.964289 0.54341)">
<stop offset="0.300161" stop-color="#FFA13D"/>
<stop offset="1" stop-color="#FFA13D" stop-opacity="0"/>
</radialGradient>
<radialGradient id="paint24_radial_4036_7175" cx="0" cy="0" r="1" gradientUnits="userSpaceOnUse" gradientTransform="translate(18.8719 11.1459) rotate(-43.9639) scale(0.874688 0.84266)">
<stop stop-color="#E0762A"/>
<stop offset="1" stop-color="#E0762A" stop-opacity="0"/>
</radialGradient>
<radialGradient id="paint25_radial_4036_7175" cx="0" cy="0" r="1" gradientUnits="userSpaceOnUse" gradientTransform="translate(14.8181 10.9406) rotate(-127.747) scale(0.670579 0.646024)">
<stop stop-color="#E0762A"/>
<stop offset="1" stop-color="#E0762A" stop-opacity="0"/>
</radialGradient>
<radialGradient id="paint26_radial_4036_7175" cx="0" cy="0" r="1" gradientUnits="userSpaceOnUse" gradientTransform="translate(13.903 8.67424) rotate(25.2777) scale(0.68097 0.82305)">
<stop stop-color="#F0851D"/>
<stop offset="1" stop-color="#F0851D" stop-opacity="0"/>
</radialGradient>
<radialGradient id="paint27_radial_4036_7175" cx="0" cy="0" r="1" gradientUnits="userSpaceOnUse" gradientTransform="translate(17.9678 12.117) rotate(-142.487) scale(0.793939 0.749012)">
<stop offset="0.336586" stop-color="#E3745B"/>
<stop offset="1" stop-color="#E3745B" stop-opacity="0"/>
</radialGradient>
<radialGradient id="paint28_radial_4036_7175" cx="0" cy="0" r="1" gradientUnits="userSpaceOnUse" gradientTransform="translate(17.9962 8.28466) rotate(117.739) scale(3.90225 4.8189)">
<stop offset="0.17178" stop-color="#FFCB38"/>
<stop offset="1" stop-color="#DCA21C"/>
<stop offset="1" stop-color="#E5AE1B"/>
</radialGradient>
<linearGradient id="paint29_linear_4036_7175" x1="3.5" y1="2" x2="3.5" y2="30" gradientUnits="userSpaceOnUse">
<stop stop-color="#D38E57"/>
<stop offset="0.272321" stop-color="#EFA570"/>
<stop offset="0.79771" stop-color="#EFA570"/>
<stop offset="1" stop-color="#D38E57"/>
</linearGradient>
<linearGradient id="paint30_linear_4036_7175" x1="4.0909" y1="28.1055" x2="3.86744" y2="27.8626" gradientUnits="userSpaceOnUse">
<stop stop-color="#CB7734"/>
<stop offset="1" stop-color="#CB7734" stop-opacity="0"/>
</linearGradient>
<linearGradient id="paint31_linear_4036_7175" x1="28.5" y1="2" x2="28.5" y2="30" gradientUnits="userSpaceOnUse">
<stop stop-color="#CA7C50"/>
<stop offset="1" stop-color="#E0966B"/>
</linearGradient>
<linearGradient id="paint32_linear_4036_7175" x1="28.1563" y1="3.75" x2="28.293" y2="3.89063" gradientUnits="userSpaceOnUse">
<stop stop-color="#C2712E"/>
<stop offset="1" stop-color="#C2712E" stop-opacity="0"/>
</linearGradient>
<linearGradient id="paint33_linear_4036_7175" x1="10.5711" y1="28.9993" x2="31.6343" y2="28.9993" gradientUnits="userSpaceOnUse">
<stop stop-color="#E69F70"/>
<stop offset="1" stop-color="#D3895C"/>
</linearGradient>
<linearGradient id="paint34_linear_4036_7175" x1="16" y1="30.5625" x2="16" y2="29.1875" gradientUnits="userSpaceOnUse">
<stop stop-color="#D47F6E"/>
<stop offset="1" stop-color="#D47F6E" stop-opacity="0"/>
</linearGradient>
<linearGradient id="paint35_linear_4036_7175" x1="27.8684" y1="27.7544" x2="27.6404" y2="27.9825" gradientUnits="userSpaceOnUse">
<stop stop-color="#C67331"/>
<stop offset="1" stop-color="#C67331" stop-opacity="0"/>
</linearGradient>
<linearGradient id="paint36_linear_4036_7175" x1="27.3701" y1="4.37184" x2="3.60596" y2="4.37184" gradientUnits="userSpaceOnUse">
<stop stop-color="#D99569"/>
<stop offset="1" stop-color="#D28459"/>
</linearGradient>
<linearGradient id="paint37_linear_4036_7175" x1="16" y1="5" x2="16" y2="4.67187" gradientUnits="userSpaceOnUse">
<stop stop-color="#CC8159"/>
<stop offset="1" stop-color="#CC8159" stop-opacity="0"/>
</linearGradient>
<linearGradient id="paint38_linear_4036_7175" x1="3.91116" y1="4.13497" x2="4.45584" y2="3.63219" gradientUnits="userSpaceOnUse">
<stop stop-color="#C77731"/>
<stop offset="1" stop-color="#C77731" stop-opacity="0"/>
</linearGradient>
</defs>
</svg>
