<svg width="1000" height="196" viewBox="0 0 1000 196" fill="none" xmlns="http://www.w3.org/2000/svg">
<g clip-path="url(#clip0_807_74712)">
<rect width="1000" height="196" rx="12" fill="#8F5AFF" fill-opacity="0.3"/>
<circle cx="790.5" cy="255.5" r="146.5" fill="url(#paint0_linear_807_74712)" fill-opacity="0.3"/>
<rect x="528.471" y="-183" width="294.286" height="147.745" transform="rotate(45 528.471 -183)" fill="url(#paint1_linear_807_74712)" fill-opacity="0.3"/>
<path d="M56.7773 53.5508V55.582H49.8438V60.7969H47.3828V55.582H40.5078V53.5508H56.7773ZM55.0391 50.2891V52.2617H42.5586V43.7461H54.8438V45.6992H45V47.0273H54.4727V48.9414H45V50.2891H55.0391ZM64.375 47.8672C64.3555 50.582 65.8008 53.707 68.7305 55.0547L67.3438 57.0078C65.3613 56.0996 63.9453 54.2832 63.1641 52.1445C62.3633 54.498 60.9082 56.4902 58.8477 57.457L57.4023 55.4844C60.3711 54.0977 61.8555 50.7969 61.875 47.8672V46.7734H58.1055V44.7422H67.9492V46.7734H64.375V47.8672ZM71.8359 43.0234V49.8008H74.4531V51.8906H71.8359V60.7969H69.3359V43.0234H71.8359ZM93.7305 43.0234V49.8398H96.25V51.8906H93.7305V60.7578H91.2305V43.0234H93.7305ZM88.9844 44.8398C88.9648 50.1523 86.8945 54.7617 80.918 57.6914L79.5117 55.7773C83.7207 53.668 85.9766 50.8359 86.4453 46.8711H80.5273V44.8398H88.9844ZM111.875 43.0234V60.8359H109.355V43.0234H111.875ZM102.227 44.2734C104.902 44.2734 106.895 46.7344 106.895 50.6016C106.895 54.5078 104.902 56.9492 102.227 56.9492C99.4922 56.9492 97.5 54.5078 97.5195 50.6016C97.5 46.7344 99.4922 44.2734 102.227 44.2734ZM102.227 46.5195C100.84 46.5195 99.9219 47.9648 99.9219 50.6016C99.9219 53.2578 100.84 54.6836 102.227 54.6836C103.574 54.6836 104.492 53.2578 104.492 50.6016C104.492 47.9648 103.574 46.5195 102.227 46.5195ZM128.77 51.2461V53.2383H116.191V44.5078H128.633V46.5195H118.652V51.2461H128.77ZM130.547 56.5781V58.6289H114.277V56.5781H130.547Z" fill="#8F5AFF"/>
<path d="M44.2656 111H40.4688L46.3516 94.0312H50.875L56.7344 111H52.9609L51.6953 107.086H45.5547L44.2656 111ZM46.4453 104.344H50.8047L48.6719 97.8516H48.5547L46.4453 104.344ZM66.4844 101.133V103.898H58.75V101.133H66.4844ZM69.2266 111V108.891L77.7344 96.9375H69.2031V94.0312H82.1406V96.1406L73.6562 108.094H82.1641V111H69.2266ZM101.102 91.8281V100.195H103.938V102.656H101.102V113.156H98.1016V91.8281H101.102ZM90.3906 94.0078C90.3672 99.8672 89.7578 104.438 85.9375 108.633L83.5938 106.969C86.5 103.828 87.3438 100.699 87.5312 96.4453H84.5312V94.0078H90.3906ZM96.2969 94.0078C96.2969 100.102 95.7578 105.375 91.9844 110.016L89.6172 108.352C92.5117 104.789 93.2969 101.133 93.4844 96.4453H91.0938V94.0078H96.2969ZM113.031 97.6406C113.031 101.086 114.789 104.766 118.375 106.266L116.758 108.609C114.238 107.543 112.504 105.422 111.555 102.82C110.582 105.645 108.812 107.988 106.305 109.148L104.594 106.781C108.133 105.211 109.961 101.25 109.961 97.6406V96.3281H105.438V93.8906H117.484V96.3281H113.031V97.6406ZM122.617 91.8281V113.156H119.594V91.8281H122.617ZM150.555 108.211V110.602H131.031V108.211H139.188V103.383H142.164V108.211H150.555ZM142.258 94.5703C142.258 97.6172 145 100.828 149.875 101.578L148.609 104.062C144.859 103.383 142.07 101.379 140.664 98.7188C139.258 101.367 136.492 103.395 132.766 104.062L131.5 101.578C136.328 100.828 139.047 97.5938 139.07 94.5703V93.0469H142.258V94.5703ZM156.766 93.1172C159.602 93.1172 161.688 95.2734 161.711 98.3203C161.688 101.414 159.602 103.5 156.766 103.5C153.93 103.5 151.867 101.414 151.867 98.3203C151.867 95.2734 153.93 93.1172 156.766 93.1172ZM156.766 95.6484C155.453 95.6484 154.539 96.6328 154.539 98.3203C154.539 100.008 155.453 101.016 156.766 101.016C158.055 101.016 158.969 100.008 158.992 98.3203C158.969 96.6328 158.055 95.6484 156.766 95.6484ZM170.102 91.8516V104.578H167.266V99.3984H165.508V104.461H162.742V92.2266H165.508V97.0078H167.266V91.8516H170.102ZM170.102 105.516V113.156H167.125V107.906H155.359V105.516H170.102ZM182.242 92.9062C186.742 92.9297 190.258 95.3438 190.281 99.0469C190.258 102.773 186.742 105.211 182.242 105.188C177.719 105.211 174.227 102.773 174.227 99.0469C174.227 95.3438 177.719 92.9297 182.242 92.9062ZM182.242 95.3438C179.289 95.3203 177.133 96.75 177.133 99.0469C177.133 101.367 179.289 102.75 182.242 102.75C185.195 102.75 187.305 101.367 187.328 99.0469C187.305 96.75 185.195 95.3203 182.242 95.3438ZM192.039 108.141V110.555H172.516V108.141H192.039ZM212.781 108.328V110.789H193.258V108.328H201.484V105.117H195.508V97.9453H207.578V95.6016H195.484V93.2109H210.531V100.289H198.508V102.68H211.023V105.117H204.461V108.328H212.781ZM60.1562 144.258V146.672H40.6328V144.258H48.8828V139.5H51.8828V144.258H60.1562ZM58.4453 129.445V131.859H51.9531C52.1992 134.672 54.8477 137.285 59.4297 137.953L58.2578 140.32C54.5195 139.664 51.7539 137.836 50.3828 135.305C49.0234 137.883 46.2812 139.758 42.6016 140.438L41.4297 138.07C45.8594 137.355 48.5195 134.684 48.7656 131.859H42.25V129.445H58.4453ZM78.2969 127.828V132.82H81.1797V135.305H78.2969V140.227H75.2969V127.828H78.2969ZM72.2969 129.023C72.2969 134.719 68.7109 138.562 62.3125 140.18L61.0703 137.906C65.9336 136.688 68.6055 134.273 69.0625 131.391H62.1953V129.023H72.2969ZM78.2969 141.07V149.156H75.2969V143.461H63.9297V141.07H78.2969ZM107.148 140.461V142.898H98.8281V149.156H95.875V142.898H87.625V140.461H107.148ZM105.062 136.547V138.914H90.0859V128.695H104.828V131.039H93.0156V132.633H104.383V134.93H93.0156V136.547H105.062ZM116.266 133.641C116.242 136.898 117.977 140.648 121.492 142.266L119.828 144.609C117.449 143.52 115.75 141.34 114.812 138.773C113.852 141.598 112.105 143.988 109.633 145.148L107.898 142.781C111.461 141.117 113.242 137.156 113.266 133.641V132.328H108.742V129.891H120.555V132.328H116.266V133.641ZM125.219 127.828V135.961H128.359V138.469H125.219V149.156H122.219V127.828H125.219ZM136.047 129.258C139.422 129.234 141.953 131.438 141.953 134.484C141.953 137.555 139.422 139.734 136.047 139.734C132.672 139.734 130.117 137.555 130.117 134.484C130.117 131.438 132.672 129.234 136.047 129.258ZM136.047 131.836C134.359 131.836 133.07 132.82 133.094 134.484C133.07 136.172 134.359 137.133 136.047 137.133C137.734 137.133 139.023 136.172 139.047 134.484C139.023 132.82 137.758 131.836 136.047 131.836ZM147.062 127.828V149.203H144.086V127.828H147.062ZM129.227 142.406C133.023 142.43 138.297 142.359 142.867 141.727L143.102 143.883C138.367 144.797 133.305 144.844 129.578 144.844L129.227 142.406ZM163.703 132.656C163.703 136.57 165.484 140.508 169.094 142.031L167.336 144.422C164.898 143.32 163.211 141.199 162.25 138.562C161.277 141.434 159.531 143.754 156.93 144.938L155.125 142.453C158.852 140.883 160.656 136.805 160.68 132.656V129.469H163.703V132.656ZM173.266 127.828V149.203H170.242V127.828H173.266ZM188.266 129.07V131.461H184.023C184.047 133.957 185.523 136.512 188.992 137.625L187.469 139.945C185.102 139.184 183.473 137.66 182.547 135.75C181.598 137.836 179.898 139.488 177.414 140.297L175.82 138C179.348 136.863 180.953 134.133 181 131.461H176.641V129.07H188.266ZM193.07 127.828V133.008H195.953V135.492H193.07V140.695H190.07V127.828H193.07ZM193.07 141.609V149.156H190.07V143.977H178.703V141.609H193.07ZM201.742 130.031L201.438 141.914H198.438L198.133 130.031H201.742ZM199.961 147.211C198.859 147.211 197.969 146.32 197.992 145.242C197.969 144.164 198.859 143.297 199.961 143.297C200.992 143.297 201.906 144.164 201.906 145.242C201.906 146.32 200.992 147.211 199.961 147.211Z" fill="#1E1E1E"/>
</g>
<defs>
<linearGradient id="paint0_linear_807_74712" x1="790.5" y1="109" x2="790.5" y2="402" gradientUnits="userSpaceOnUse">
<stop stop-color="white"/>
<stop offset="1" stop-color="white" stop-opacity="0"/>
</linearGradient>
<linearGradient id="paint1_linear_807_74712" x1="675.614" y1="-183" x2="675.614" y2="-35.2551" gradientUnits="userSpaceOnUse">
<stop stop-color="white" stop-opacity="0"/>
<stop offset="1" stop-color="white"/>
</linearGradient>
<clipPath id="clip0_807_74712">
<rect width="1000" height="196" rx="12" fill="white"/>
</clipPath>
</defs>
</svg>
